<svg width="26" height="24" viewBox="0 0 26 24" fill="none" xmlns="http://www.w3.org/2000/svg">
<path d="M13.0003 15.0853C15.1303 15.0853 16.857 13.3586 16.857 11.2286C16.857 9.09855 15.1303 7.37183 13.0003 7.37183C10.8703 7.37183 9.14355 9.09855 9.14355 11.2286C9.14355 13.3586 10.8703 15.0853 13.0003 15.0853Z" stroke="#F9F9F9" stroke-width="1.58" stroke-linecap="round" stroke-linejoin="round"/>
<path d="M6.81006 18.8843C7.39041 17.7412 8.27596 16.7811 9.36856 16.1105C10.4612 15.4398 11.7181 15.0848 13.0001 15.0848C14.2821 15.0848 15.5391 15.4398 16.6317 16.1105C17.7243 16.7811 18.6098 17.7412 19.1902 18.8843" stroke="#F9F9F9" stroke-width="1.58" stroke-linecap="round" stroke-linejoin="round"/>
<path d="M19.9419 12L22.2559 14.314L24.57 12" stroke="#F9F9F9" stroke-width="1.58" stroke-linecap="round" stroke-linejoin="round"/>
<path d="M1.4292 12L3.74324 9.68591L6.05728 12" stroke="#F9F9F9" stroke-width="1.58" stroke-linecap="round" stroke-linejoin="round"/>
<path d="M22.2559 14.314V11.9999C22.2581 10.0001 21.6125 8.05331 20.4158 6.45102C19.2191 4.84873 17.5357 3.67711 15.6175 3.11153C13.6993 2.54594 11.6495 2.61682 9.77494 3.31356C7.90039 4.01029 6.3019 5.29539 5.21875 6.97652" stroke="#F9F9F9" stroke-width="1.58" stroke-linecap="round" stroke-linejoin="round"/>
<path d="M3.74366 9.68591V12C3.74147 13.9998 4.38704 15.9466 5.58373 17.5489C6.78042 19.1511 8.46385 20.3228 10.3821 20.8883C12.3003 21.4539 14.35 21.383 16.2246 20.6863C18.0992 19.9896 19.6976 18.7045 20.7808 17.0234" stroke="#F9F9F9" stroke-width="1.58" stroke-linecap="round" stroke-linejoin="round"/>
</svg>
