<svg width="201" height="51" viewBox="0 0 201 51" fill="none" xmlns="http://www.w3.org/2000/svg">
<mask id="mask0_318_220" style="mask-type:luminance" maskUnits="userSpaceOnUse" x="0" y="0" width="201" height="51">
<path d="M200.222 0H0.5V50.3497H200.222V0Z" fill="white"/>
</mask>
<g mask="url(#mask0_318_220)">
<path d="M39.0888 8.46448V6.12077H38.1126V4.54783H36.4542V3.13367H34.0851V2.02085H33.1113V0H25.9044V2.02085H24.9307V3.13367H22.5615V4.54783H20.903V6.12077H0.631623C0.631623 6.12077 0.5 20.0974 0.5 28.2316C0.5 35.3552 3.88242 41.4343 10.2819 45.8108C13.1971 47.7927 16.4185 49.2815 19.8171 50.2175L20.3606 50.3497L20.904 50.2175C24.3025 49.2815 27.524 47.7927 30.4392 45.8108C36.8385 41.4343 40.221 35.3552 40.221 28.2316C40.221 20.014 40.2094 8.46448 40.2094 8.46448H39.0888ZM36.4696 38.6741C34.9012 41.1294 32.7267 43.3175 30.0064 45.178C27.1684 47.1091 24.032 48.5601 20.7228 49.4724L20.3606 49.5605L19.9983 49.4724C16.6891 48.5601 13.5526 47.1091 10.7146 45.178C7.99427 43.3175 5.81983 41.1294 4.25157 38.6741C2.26583 35.5559 1.22881 31.9281 1.26659 28.2316C1.26659 20.1012 1.39096 6.88734 1.39096 6.88734H21.6696V5.31465H23.3281V3.90004H25.697V2.78744H26.6708V0.766587H32.3448V2.78744H33.3185V3.90004H35.6874V5.31465H37.3462V6.88734H38.3224V9.23105H39.4434C39.4434 9.23105 39.4545 21.6727 39.4545 28.2316C39.4923 31.9281 38.4552 35.5559 36.4696 38.6741Z" fill="black"/>
<path d="M4.90177 17.9369H8.90327C8.9103 18.0601 8.92618 18.1827 8.95072 18.3037L6.67597 18.9134C6.64006 18.923 6.60883 18.9453 6.58817 18.9762C6.5675 19.0071 6.55876 19.0445 6.56359 19.0814C6.56841 19.1183 6.58649 19.1521 6.61443 19.1767C6.6424 19.2012 6.67831 19.2147 6.71548 19.2147C6.72894 19.2148 6.74229 19.213 6.75523 19.2094L9.03069 18.5997C9.06957 18.7169 9.11691 18.8311 9.17236 18.9414L5.70694 20.9422C5.68939 20.9522 5.67401 20.9656 5.66166 20.9816C5.64929 20.9976 5.64023 21.0158 5.63495 21.0353C5.62967 21.0548 5.62831 21.0752 5.63093 21.0952C5.63355 21.1152 5.64009 21.1346 5.6502 21.152C5.6603 21.1695 5.67376 21.1848 5.68978 21.1971C5.70583 21.2094 5.72415 21.2184 5.74366 21.2236C5.76317 21.2288 5.78355 21.23 5.80355 21.2273C5.82359 21.2246 5.84285 21.2179 5.8603 21.2078L9.32572 19.207C9.39376 19.31 9.46908 19.408 9.55107 19.5002L7.88513 21.1662C7.8709 21.1804 7.85957 21.1973 7.85187 21.2159C7.84415 21.2345 7.84016 21.2544 7.84016 21.2746C7.84016 21.2947 7.84411 21.3146 7.8518 21.3332C7.8595 21.3518 7.87079 21.3688 7.88502 21.383C7.89925 21.3972 7.91614 21.4085 7.93474 21.4163C7.95334 21.424 7.97327 21.4279 7.99341 21.4279C8.01352 21.428 8.03348 21.424 8.05208 21.4163C8.07069 21.4086 8.08761 21.3974 8.10184 21.3831L9.76782 19.7169C9.86009 19.7989 9.95806 19.8743 10.061 19.9425L8.06023 23.4077C8.03999 23.4429 8.03453 23.4848 8.04506 23.524C8.05555 23.5633 8.08118 23.5968 8.11635 23.6172C8.13967 23.6306 8.16611 23.6376 8.19303 23.6377C8.21995 23.6378 8.24639 23.6307 8.26971 23.6173C8.29303 23.6038 8.31236 23.5844 8.32583 23.5611L10.3266 20.0959C10.4369 20.1512 10.5511 20.1985 10.6683 20.2373L10.0586 22.5128C10.0481 22.552 10.0536 22.5938 10.0739 22.629C10.0942 22.6642 10.1276 22.6899 10.1669 22.7005C10.1799 22.7041 10.1933 22.7059 10.2069 22.7059C10.2406 22.7058 10.2733 22.6947 10.3001 22.6741C10.3268 22.6536 10.3461 22.6248 10.3548 22.5922L10.9643 20.3173C11.0853 20.3418 11.2079 20.3577 11.3311 20.3647V24.3662C11.3311 24.4069 11.3473 24.4459 11.3761 24.4747C11.4048 24.5034 11.4438 24.5196 11.4845 24.5196C11.5252 24.5196 11.5642 24.5034 11.593 24.4747C11.6217 24.4459 11.6379 24.4069 11.6379 24.3662V20.3647C11.7611 20.3577 11.8837 20.3418 12.0047 20.3173L12.6141 22.5922C12.623 22.6248 12.6422 22.6536 12.669 22.6742C12.6958 22.6947 12.7286 22.7058 12.7624 22.7059C12.7757 22.7059 12.789 22.7041 12.8019 22.7005C12.8214 22.6953 12.8396 22.6864 12.8556 22.6741C12.8716 22.6619 12.885 22.6466 12.8951 22.6292C12.9052 22.6117 12.9117 22.5925 12.9143 22.5725C12.9169 22.5525 12.9156 22.5322 12.9104 22.5128L12.3007 20.2373C12.4179 20.1985 12.5321 20.1512 12.6424 20.0959L14.643 23.5611C14.6634 23.5962 14.6969 23.6217 14.7361 23.6322C14.7753 23.6426 14.8171 23.6371 14.8523 23.6168C14.8874 23.5965 14.9131 23.5631 14.9237 23.5239C14.9343 23.4847 14.9289 23.4429 14.9088 23.4077L12.908 19.9425C13.0109 19.8743 13.1089 19.7989 13.2012 19.7169L14.8672 21.3831C14.8814 21.3974 14.8983 21.4086 14.9169 21.4163C14.9355 21.424 14.9555 21.428 14.9756 21.4279C14.9957 21.4279 15.0157 21.424 15.0343 21.4163C15.0529 21.4085 15.0698 21.3972 15.084 21.383C15.0982 21.3688 15.1095 21.3518 15.1172 21.3332C15.1249 21.3146 15.1289 21.2947 15.1288 21.2746C15.1288 21.2544 15.1248 21.2345 15.1172 21.2159C15.1094 21.1973 15.0981 21.1804 15.0839 21.1662L13.4179 19.5002C13.4999 19.408 13.5752 19.31 13.6433 19.207L17.1087 21.2078C17.1439 21.2279 17.1857 21.2332 17.2248 21.2226C17.2639 21.2121 17.2973 21.1864 17.3175 21.1513C17.3378 21.1162 17.3433 21.0745 17.333 21.0353C17.3226 20.9961 17.2971 20.9626 17.262 20.9422L13.7966 18.9414C13.8521 18.8311 13.8994 18.7169 13.9383 18.5997L16.2138 19.2094C16.2267 19.213 16.2401 19.2148 16.2535 19.2147C16.2907 19.2147 16.3266 19.2012 16.3546 19.1767C16.3825 19.1521 16.4006 19.1183 16.4054 19.0814C16.4102 19.0445 16.4015 19.0071 16.3808 18.9762C16.3602 18.9453 16.3289 18.923 16.293 18.9134L14.0183 18.3037C14.0428 18.1827 14.0587 18.0601 14.0657 17.9369H18.0672C18.1079 17.9369 18.1469 17.9207 18.1757 17.8919C18.2044 17.8632 18.2206 17.8242 18.2206 17.7835C18.2206 17.7428 18.2044 17.7038 18.1757 17.675C18.1469 17.6463 18.1079 17.6302 18.0672 17.6302H14.0657C14.0587 17.5069 14.0428 17.3843 14.0183 17.2633L16.293 16.6539C16.3323 16.6433 16.3658 16.6177 16.3861 16.5825C16.4065 16.5472 16.412 16.5054 16.4015 16.4661C16.391 16.4268 16.3653 16.3933 16.3301 16.373C16.2949 16.3527 16.253 16.3471 16.2138 16.3576L13.9383 16.9674C13.8994 16.8502 13.852 16.7359 13.7966 16.6256L17.262 14.6248C17.2795 14.6147 17.2947 14.6013 17.307 14.5854C17.3193 14.5694 17.3282 14.5512 17.3334 14.5317C17.3386 14.5123 17.34 14.492 17.3373 14.4721C17.3347 14.4521 17.3281 14.4329 17.3181 14.4155C17.308 14.3981 17.2946 14.3828 17.2786 14.3705C17.2626 14.3583 17.2444 14.3493 17.225 14.3441C17.2055 14.3389 17.1853 14.3376 17.1653 14.3402C17.1454 14.3429 17.1261 14.3494 17.1087 14.3595L13.6433 16.3602C13.5752 16.2572 13.4999 16.1591 13.4179 16.0668L15.0839 14.4009C15.1126 14.3721 15.1288 14.3331 15.1288 14.2925C15.1288 14.2518 15.1126 14.2129 15.0839 14.1841C15.0551 14.1554 15.0161 14.1392 14.9755 14.1392C14.9349 14.1392 14.8959 14.1554 14.8672 14.1841L13.2012 15.8501C13.109 15.7681 13.011 15.6928 12.908 15.6247L14.9088 12.1595C14.9289 12.1243 14.9343 12.0825 14.9237 12.0433C14.9131 12.0041 14.8874 11.9707 14.8523 11.9504C14.8171 11.9302 14.7753 11.9246 14.7361 11.9351C14.6969 11.9455 14.6634 11.9711 14.643 12.0062L12.6424 15.4714C12.5321 15.4159 12.4179 15.3686 12.3007 15.3297L12.9104 13.0545C12.9207 13.0153 12.9151 12.9735 12.8947 12.9385C12.8744 12.9034 12.841 12.8778 12.8018 12.8673C12.7626 12.8568 12.7209 12.8622 12.6858 12.8824C12.6506 12.9026 12.6248 12.9359 12.6141 12.975L12.0047 15.2497C11.8837 15.2252 11.7611 15.2094 11.6379 15.2025V11.2008C11.6379 11.1601 11.6217 11.1211 11.593 11.0924C11.5642 11.0636 11.5252 11.0474 11.4845 11.0474C11.4438 11.0474 11.4048 11.0636 11.3761 11.0924C11.3473 11.1211 11.3311 11.1601 11.3311 11.2008V15.2025C11.2079 15.2094 11.0853 15.2252 10.9643 15.2497L10.3548 12.975C10.3441 12.9359 10.3184 12.9026 10.2832 12.8824C10.2481 12.8622 10.2064 12.8568 10.1672 12.8673C10.128 12.8778 10.0946 12.9034 10.0743 12.9385C10.0539 12.9735 10.0483 13.0153 10.0586 13.0545L10.6683 15.3297C10.5511 15.3686 10.4369 15.4159 10.3266 15.4714L8.32583 12.0062C8.31576 11.9887 8.30233 11.9734 8.28635 11.9612C8.27037 11.9489 8.25215 11.9399 8.23268 11.9347C8.21324 11.9295 8.19296 11.9282 8.17299 11.9308C8.15303 11.9335 8.13376 11.94 8.11635 11.9501C8.0989 11.9602 8.08362 11.9735 8.07135 11.9895C8.05911 12.0055 8.05013 12.0237 8.04492 12.0432C8.03971 12.0626 8.03838 12.0829 8.041 12.1029C8.04362 12.1228 8.05016 12.1421 8.06023 12.1595L10.061 15.6247C9.95799 15.6928 9.86002 15.7681 9.76782 15.8501L8.10184 14.1841C8.0731 14.1554 8.03411 14.1392 7.99348 14.1392C7.95285 14.1392 7.91387 14.1554 7.88513 14.1841C7.85639 14.2129 7.84023 14.2518 7.84023 14.2925C7.84023 14.3331 7.85639 14.3721 7.88513 14.4009L9.55107 16.0668C9.46908 16.1591 9.39376 16.2572 9.32572 16.3602L5.8603 14.3595C5.84289 14.3494 5.82362 14.3429 5.80369 14.3402C5.78373 14.3376 5.76345 14.3389 5.74401 14.3441C5.72457 14.3493 5.70635 14.3583 5.69037 14.3705C5.67443 14.3828 5.661 14.3981 5.65093 14.4155C5.64086 14.4329 5.63432 14.4521 5.6317 14.4721C5.62908 14.492 5.63037 14.5123 5.63558 14.5317C5.64079 14.5512 5.64974 14.5694 5.66201 14.5854C5.67425 14.6013 5.6895 14.6147 5.70694 14.6248L9.17236 16.6256C9.11694 16.7359 9.0696 16.8502 9.03069 16.9674L6.75523 16.3576C6.71604 16.3473 6.67432 16.353 6.63925 16.3733C6.60418 16.3937 6.57862 16.4271 6.56813 16.4663C6.55768 16.5055 6.56313 16.5472 6.58334 16.5824C6.60355 16.6175 6.63684 16.6432 6.67597 16.6539L8.95072 17.2633C8.92618 17.3843 8.91034 17.5069 8.90327 17.6302H4.90177C4.86111 17.6302 4.82208 17.6463 4.79334 17.675C4.76457 17.7038 4.74841 17.7428 4.74841 17.7835C4.74841 17.8242 4.76457 17.8632 4.79334 17.8919C4.82208 17.9207 4.86111 17.9369 4.90177 17.9369Z" fill="black"/>
<path d="M30.8114 2.29971H28.204V2.88255H30.8114V2.29971Z" fill="black"/>
<path d="M31.7853 4.3206H30.4747V3.39365H28.5411V4.3206H27.2305V4.90343H31.7853V4.3206Z" fill="black"/>
<path d="M19.5726 47.7587V38.7993C14.8728 35.6 7.44847 33.5966 3.32074 32.6659C5.81687 42.8542 16.5615 46.8318 19.5726 47.7587Z" fill="black"/>
<path d="M36.399 9.51445H33.8003V9.0034H36.7892V8.42056H33.8003V6.52738H32.3169V7.03724H31.4026V5.41455H27.6133V7.03724H26.6988V6.52738H25.2154V8.42056H22.2267V9.0034H25.2154V9.51445H22.6169V10.7643H20.8303V11.3471H22.6169V11.8582H21.1059V47.772C22.665 47.2871 24.1828 46.6783 25.6449 45.9518C25.6453 45.6713 25.6456 45.4217 25.6456 45.2161C25.642 44.4598 25.8025 43.7119 26.1161 43.0234C26.4296 42.3353 26.8887 41.7234 27.4616 41.2297C27.9938 40.7521 28.6028 40.3678 29.263 40.0934L29.5327 39.992L29.8023 40.0934C30.4625 40.3678 31.0714 40.7521 31.6036 41.2297C31.7464 41.357 31.881 41.4892 32.0071 41.6262C35.1368 38.7014 37.7206 34.5815 37.9098 28.9009V11.8582H36.399V11.3471H38.1853V10.7643H36.399V9.51445ZM23.6044 24.1729H22.5907V20.2565C22.5956 20.0655 22.6411 19.8777 22.7239 19.7055C22.8067 19.5333 22.925 19.3806 23.0711 19.2575C23.3584 19.0515 23.6044 19.2007 23.6044 19.6019V24.1729ZM31.7572 18.7077C31.7569 18.5992 31.7783 18.4917 31.8197 18.3914C31.861 18.2912 31.9217 18.2 31.9983 18.1232C32.0749 18.0464 32.1659 17.9855 32.2661 17.944C32.3663 17.9024 32.4737 17.881 32.5821 17.881C32.6906 17.881 32.798 17.9024 32.8982 17.944C32.9984 17.9855 33.0894 18.0464 33.166 18.1232C33.2426 18.2 33.3033 18.2912 33.3446 18.3914C33.3859 18.4917 33.4071 18.5992 33.4068 18.7077V24.1729H31.7572V18.7077ZM28.3484 27.8969C28.376 27.9312 28.4038 27.9654 28.4302 28C28.4498 28.0257 28.4683 28.0516 28.487 28.0778C28.5118 28.1115 28.5366 28.1456 28.5599 28.1797C28.5784 28.2066 28.5962 28.2342 28.6137 28.2616C28.6362 28.2955 28.6582 28.3298 28.6792 28.3642C28.6962 28.3922 28.7126 28.4205 28.729 28.4488C28.7491 28.4834 28.7687 28.518 28.7877 28.5533C28.8031 28.5821 28.8183 28.6113 28.833 28.6405C28.851 28.6756 28.8685 28.7111 28.8854 28.7467C28.8994 28.7764 28.913 28.8061 28.9261 28.836C28.942 28.872 28.9574 28.908 28.9721 28.9444C28.9845 28.9748 28.9967 29.005 29.0081 29.0356C29.0222 29.0723 29.0355 29.1097 29.0481 29.1467C29.0589 29.1778 29.0696 29.2086 29.0794 29.2395C29.0913 29.2774 29.1026 29.3157 29.1135 29.3541C29.1225 29.3849 29.1313 29.4162 29.1395 29.4476C29.1498 29.4868 29.1589 29.5266 29.168 29.5661C29.1751 29.5972 29.1825 29.628 29.1888 29.6596C29.1973 29.7007 29.2045 29.7423 29.2118 29.7837C29.2169 29.8144 29.2227 29.8448 29.2274 29.8756C29.234 29.9196 29.2391 29.9637 29.2442 30.0079C29.2477 30.0374 29.252 30.0664 29.255 30.0961C29.2597 30.1454 29.263 30.1954 29.2662 30.2455C29.2678 30.2702 29.2702 30.295 29.2714 30.32C29.2751 30.3958 29.2772 30.4718 29.2772 30.5485C29.2772 30.5936 29.277 30.6927 29.277 30.6941C29.277 30.7369 29.2618 35.9262 29.2588 36.7206H26.6492C26.6534 35.7133 26.6677 32.0148 26.6677 30.5485C26.6614 29.9752 26.7742 29.4068 26.9987 28.8793C27.2232 28.3517 27.5547 27.8765 27.9722 27.4835L27.9767 27.4875C27.9916 27.5022 28.0054 27.5172 28.0199 27.5319C28.0601 27.5721 28.1001 27.6126 28.1384 27.6537C28.1581 27.675 28.1766 27.6965 28.1957 27.718C28.2275 27.7533 28.2593 27.7886 28.2897 27.8246C28.3098 27.8485 28.329 27.873 28.3484 27.8969ZM28.3292 17.9862C28.3292 16.7894 29.508 16.3553 29.508 16.3553C29.508 16.3553 30.6865 16.7894 30.6865 17.9862C30.6865 18.6214 30.6937 24.1729 30.6937 24.1729H28.3367C28.3367 24.1729 28.3292 18.6214 28.3292 17.9862ZM29.2269 28.3006C29.2085 28.2665 29.1896 28.2328 29.1702 28.1991C29.1458 28.1566 29.1203 28.114 29.0944 28.072C29.074 28.039 29.0535 28.006 29.0322 27.9733C29.0048 27.9314 28.9766 27.8901 28.9478 27.8487C28.9258 27.8169 28.9039 27.7854 28.8807 27.754C28.8503 27.7124 28.8188 27.6715 28.7867 27.6308C28.7633 27.6009 28.7402 27.5707 28.7161 27.5413C28.6818 27.4992 28.6458 27.4578 28.6098 27.4166C28.5859 27.3896 28.5627 27.362 28.5384 27.3353C28.4975 27.2904 28.455 27.2469 28.4124 27.2032C28.3933 27.1836 28.3753 27.1632 28.3559 27.1438C28.7161 26.8541 29.1116 26.6111 29.5327 26.4205C29.9538 26.6112 30.3492 26.8542 30.7094 27.1438C30.6895 27.1637 30.6713 27.1843 30.6516 27.2044C30.6096 27.2476 30.5675 27.2906 30.527 27.3351C30.5025 27.3622 30.4789 27.39 30.455 27.4173C30.4192 27.4583 30.3835 27.4994 30.3494 27.541C30.3251 27.5707 30.3019 27.6011 30.2783 27.6311C30.2465 27.6717 30.2149 27.7124 30.1845 27.754C30.1616 27.7854 30.1394 27.8169 30.1174 27.8487C30.0887 27.8901 30.0604 27.9314 30.0331 27.9733C30.0118 28.006 29.9912 28.039 29.9709 28.072C29.9449 28.114 29.9197 28.1566 29.8951 28.1991C29.8757 28.2328 29.8568 28.2665 29.8383 28.3006C29.8149 28.3438 29.7923 28.3876 29.7703 28.4313C29.7532 28.4657 29.7361 28.5 29.7198 28.5349C29.6987 28.5795 29.6789 28.6246 29.6592 28.6702C29.6442 28.7046 29.6291 28.7394 29.615 28.7743C29.5963 28.821 29.5788 28.8683 29.5615 28.9159C29.5521 28.9414 29.5416 28.9664 29.5327 28.9924C29.5239 28.9666 29.5133 28.9419 29.504 28.9164C29.4867 28.8687 29.4691 28.821 29.4502 28.774C29.4362 28.7392 29.421 28.7046 29.4063 28.6702C29.3866 28.6246 29.3665 28.5795 29.3455 28.5346C29.3291 28.5 29.312 28.4657 29.295 28.4313C29.273 28.3876 29.2503 28.3438 29.2269 28.3006ZM29.788 30.6939V30.6904C29.788 30.6411 29.7883 30.5936 29.7883 30.5485C29.7883 30.4718 29.7902 30.3958 29.7939 30.32C29.7951 30.295 29.7974 30.2702 29.799 30.2455C29.8023 30.1954 29.8056 30.1454 29.8105 30.0961C29.8133 30.0664 29.8175 30.0374 29.821 30.0082C29.8261 29.964 29.8313 29.9196 29.8378 29.8756C29.8425 29.845 29.8483 29.8146 29.8537 29.7842C29.8608 29.7426 29.868 29.7007 29.8764 29.6594C29.8827 29.6283 29.8902 29.5977 29.8972 29.5665C29.9063 29.5266 29.9154 29.4868 29.9258 29.4473C29.9339 29.4162 29.9428 29.3851 29.9517 29.3545C29.9627 29.3157 29.9739 29.2774 29.9861 29.2395C29.9959 29.2086 30.0064 29.178 30.0169 29.1471C30.03 29.11 30.0431 29.0723 30.0571 29.0356C30.0688 29.005 30.0808 28.9748 30.0931 28.9449C30.1078 28.9082 30.1233 28.872 30.1392 28.8357C30.1525 28.8061 30.1661 28.7764 30.1799 28.7469C30.1967 28.7111 30.2145 28.6756 30.2322 28.6403C30.2472 28.6111 30.2621 28.5823 30.2776 28.5536C30.2965 28.5183 30.3164 28.4834 30.3365 28.4488C30.3526 28.4203 30.369 28.3922 30.3858 28.3644C30.4071 28.3298 30.4293 28.2955 30.4518 28.2611C30.4693 28.2342 30.4868 28.2069 30.5051 28.18C30.5287 28.1456 30.5537 28.1112 30.5785 28.0773C30.5972 28.0514 30.6154 28.0257 30.6348 28.0002C30.6615 27.9651 30.6895 27.931 30.7173 27.8964C30.7367 27.8725 30.7557 27.8485 30.7755 27.8248C30.8062 27.7884 30.8382 27.7528 30.87 27.7176C30.8892 27.6963 30.9072 27.6748 30.9268 27.6537C30.9652 27.6123 31.0056 27.5719 31.046 27.5312C31.0603 27.5167 31.0739 27.502 31.0886 27.4877C31.0899 27.4862 31.0915 27.4848 31.093 27.4835C31.5105 27.8765 31.842 28.3517 32.0665 28.8793C32.2911 29.4068 32.4038 29.9752 32.3976 30.5485C32.3976 32.0148 32.3831 35.7161 32.3791 36.7206H29.7698C29.7703 36.5741 29.788 30.7373 29.788 30.6939ZM29.508 10.2532C29.8299 10.2533 30.1446 10.3488 30.4123 10.5277C30.6799 10.7066 30.8885 10.9608 31.0117 11.2583C31.1349 11.5557 31.1671 11.883 31.1043 12.1988C31.0414 12.5146 30.8864 12.8046 30.6587 13.0322C30.431 13.2599 30.141 13.4149 29.8252 13.4777C29.5095 13.5405 29.1821 13.5082 28.8847 13.385C28.5873 13.2618 28.3331 13.0532 28.1542 12.7855C27.9753 12.5178 27.8799 12.203 27.8799 11.8811C27.8799 11.6673 27.922 11.4556 28.0038 11.2581C28.0856 11.0606 28.2056 10.8811 28.3567 10.7299C28.5079 10.5788 28.6874 10.4589 28.8849 10.3771C29.0825 10.2953 29.2942 10.2532 29.508 10.2532ZM27.3856 12.1366C27.4478 12.6558 27.6981 13.1342 28.0891 13.4813C28.4802 13.8283 28.9849 14.02 29.5078 14.02C30.0307 14.02 30.5355 13.8283 30.9266 13.4813C31.3176 13.1342 31.5679 12.6558 31.6301 12.1366C31.6681 12.4378 31.6416 12.7436 31.5524 13.0337C31.4631 13.3238 31.3131 13.5916 31.1124 13.8193C30.9117 14.047 30.6647 14.2293 30.3881 14.3543C30.1114 14.4792 29.8114 14.5438 29.5078 14.5438C29.2043 14.5438 28.9042 14.4792 28.6276 14.3543C28.3509 14.2293 28.104 14.047 27.9033 13.8193C27.7026 13.5916 27.5526 13.3238 27.4633 13.0337C27.3741 12.7436 27.3476 12.4378 27.3856 12.1366ZM25.6161 18.7077C25.6161 18.4889 25.7032 18.2791 25.8579 18.1244C26.0126 17.9697 26.2224 17.8828 26.4411 17.8828C26.6599 17.8828 26.8697 17.9697 27.0244 18.1244C27.179 18.2791 27.266 18.4889 27.266 18.7077V24.1729H25.6161V18.7077ZM33.4054 37.4885L33.4042 37.7504H25.6163L25.6175 37.486C25.6177 37.4392 25.6402 32.7552 25.6402 31.0595C25.6421 29.9551 26.0699 28.894 26.8344 28.097C26.3854 28.8354 26.1507 29.6842 26.1566 30.5485C26.1566 32.2441 26.1375 36.928 26.1372 36.9752L26.1361 37.2318H32.8881L32.889 36.9773C32.8892 36.9304 32.9086 32.2453 32.9086 30.5485C32.9146 29.6804 32.6779 28.8279 32.2253 28.0872C32.9952 28.8854 33.4263 29.9505 33.4283 31.0595C33.4283 32.7563 33.4056 37.4413 33.4054 37.4885ZM36.4248 20.2565V24.1729H35.4115V19.6019C35.4115 19.2007 35.6574 19.0515 35.9444 19.2575C36.0906 19.3806 36.2091 19.5333 36.292 19.7055C36.3748 19.8777 36.4199 20.0655 36.4248 20.2565Z" fill="black"/>
<path d="M24.5083 7.49238H23.9222V6.84763H23.2029V7.49238H22.6168V8.11402H24.5083V7.49238Z" fill="black"/>
<path d="M36.399 7.49238H35.8126V6.84763H35.0934V7.49238H34.5073V8.11402H36.399V7.49238Z" fill="black"/>
<path d="M26.699 5.43338H24.8615V6.01621H26.699V5.43338Z" fill="black"/>
<path d="M34.1544 5.43338H32.3168V6.01621H34.1544V5.43338Z" fill="black"/>
<path d="M8.6689 28.1095C8.53306 28.275 8.45544 28.4807 8.44799 28.6947C8.4459 28.8205 8.47167 28.9452 8.52345 29.0599C8.5752 29.1745 8.65174 29.2763 8.74747 29.3579C8.96478 29.5395 9.24212 29.6334 9.52506 29.6209C9.81376 29.6309 10.095 29.5279 10.3089 29.3338C10.4082 29.2444 10.4872 29.1348 10.5405 29.0123C10.5939 28.8899 10.6205 28.7574 10.6184 28.6238C10.6164 28.4362 10.5629 28.2527 10.4637 28.0934C10.3283 27.89 10.1645 27.7071 9.97719 27.5503C10.1463 27.4442 10.2932 27.3063 10.4097 27.1442C10.5354 26.9835 10.6066 26.7869 10.6129 26.5829C10.6155 26.4631 10.5918 26.3441 10.5434 26.2345C10.495 26.1248 10.4231 26.0272 10.3328 25.9484C10.1341 25.7785 9.87859 25.6899 9.6174 25.7003C9.48369 25.6975 9.35079 25.7221 9.22695 25.7726C9.1031 25.8231 8.99093 25.8984 8.89733 25.994C8.80181 26.0896 8.7267 26.2037 8.67653 26.3292C8.62639 26.4548 8.60223 26.5892 8.60555 26.7243C8.60555 27.017 8.7996 27.3282 9.18278 27.6499C8.98464 27.7701 8.81041 27.9259 8.6689 28.1095ZM9.14282 26.5286C9.13216 26.3796 9.17778 26.2319 9.27069 26.1149C9.31862 26.0664 9.37653 26.0288 9.44037 26.005C9.50425 25.981 9.57254 25.9713 9.64055 25.9764C9.70817 25.9732 9.77562 25.9861 9.83723 26.0142C9.89883 26.0423 9.95285 26.0848 9.99471 26.138C10.0911 26.2759 10.1379 26.4423 10.1275 26.6102C10.1232 26.7625 10.0823 26.9115 10.0083 27.0446C9.94803 27.1675 9.86415 27.2773 9.76142 27.3677C9.35086 27.0189 9.14282 26.7367 9.14282 26.5286ZM9.39764 27.8341C9.59128 27.9825 9.76258 28.1579 9.90635 28.355C9.97834 28.4795 10.0154 28.6212 10.0134 28.765C10.0241 28.9211 9.97653 29.0755 9.87995 29.1985C9.82761 29.2479 9.76583 29.2863 9.69834 29.3113C9.63086 29.3363 9.55901 29.3474 9.48712 29.3441C9.41523 29.3407 9.34474 29.3229 9.27988 29.2917C9.21502 29.2605 9.15712 29.2166 9.1096 29.1625C9.00247 29.0183 8.94883 28.8413 8.95789 28.662C8.95219 28.4975 8.98981 28.3345 9.06702 28.1892C9.14418 28.0439 9.2582 27.9214 9.39764 27.8341Z" fill="black"/>
<path d="M11.6671 30.35C11.6161 30.3444 11.567 30.3277 11.5232 30.3009C11.4468 30.2592 11.3619 30.2351 11.275 30.2306C11.2432 30.2261 11.2108 30.2289 11.1802 30.2388C11.1496 30.2486 11.1216 30.2652 11.0984 30.2874C11.0751 30.3096 11.0572 30.3367 11.0459 30.3668C11.0346 30.3969 11.0303 30.4291 11.0332 30.4611C11.0332 30.5836 11.1052 30.7295 11.4485 30.7295C11.6871 30.7105 11.9165 30.6287 12.1133 30.4924C12.3566 30.3517 12.5681 30.1623 12.7347 29.936C12.8812 29.7424 12.9626 29.5073 12.9671 29.2646C12.9768 29.0413 12.909 28.8216 12.7752 28.6427C12.668 28.5104 12.5201 28.4173 12.3544 28.378C12.4954 28.282 12.6215 28.1658 12.7287 28.033C12.8253 27.9098 12.8786 27.7582 12.8802 27.6016C12.879 27.5107 12.858 27.4211 12.8187 27.3391C12.7795 27.257 12.7228 27.1845 12.6527 27.1266C12.5066 26.993 12.315 26.9202 12.1171 26.9232C11.9738 26.925 11.8328 26.9602 11.7056 27.0263C11.5666 27.0968 11.4418 27.1923 11.3374 27.308C11.1871 27.4726 11.1663 27.5308 11.1663 27.5694C11.1669 27.587 11.1718 27.6041 11.1804 27.6194C11.1891 27.6347 11.2013 27.6477 11.2161 27.6573C11.2285 27.6688 11.2431 27.6778 11.259 27.6836C11.275 27.6894 11.2919 27.6919 11.3089 27.6911C11.3258 27.6902 11.3424 27.6859 11.3577 27.6785C11.3729 27.6711 11.3866 27.6607 11.3977 27.6479C11.4543 27.5685 11.5302 27.5048 11.6183 27.4629C11.7064 27.421 11.8037 27.4023 11.9011 27.4085C12.0053 27.4029 12.1076 27.4376 12.187 27.5053C12.2216 27.5366 12.2489 27.575 12.267 27.618C12.2851 27.661 12.2934 27.7075 12.2915 27.7541C12.2915 28.0657 12.0114 28.3591 11.4583 28.6256C11.4421 28.634 11.4287 28.6469 11.4198 28.6628C11.4109 28.6786 11.4069 28.6968 11.4082 28.7149C11.4089 28.7506 11.4222 28.7848 11.4459 28.8115C11.4576 28.8274 11.4732 28.8402 11.4911 28.8487C11.509 28.8572 11.5287 28.8612 11.5485 28.8601L11.5782 28.8512C11.667 28.803 11.7672 28.7796 11.8681 28.7837C11.9371 28.7823 12.0055 28.7965 12.0682 28.8253C12.1309 28.8541 12.1863 28.8967 12.2302 28.9499C12.3301 29.0639 12.383 29.2115 12.3785 29.363C12.3816 29.6111 12.3048 29.8535 12.1594 30.0545C12.1085 30.1409 12.0367 30.2132 11.9507 30.2648C11.8647 30.3164 11.7672 30.3457 11.6671 30.35Z" fill="black"/>
<path d="M16.0197 25.9469C16.045 25.9392 16.0745 25.9158 16.0745 25.8492C16.0745 25.7148 15.9968 25.7003 15.9636 25.7003C15.8376 25.7212 15.7162 25.7636 15.6045 25.8256C15.4112 25.9122 15.2258 26.0156 15.0505 26.1344C14.8685 26.2563 14.6969 26.393 14.5373 26.5431C13.9404 27.103 13.6379 27.7118 13.6379 28.3521C13.6311 28.6823 13.7505 29.0026 13.9718 29.2477C14.0781 29.3684 14.2096 29.4643 14.357 29.5288C14.5043 29.5933 14.6641 29.6247 14.8249 29.6209C14.9873 29.6228 15.1483 29.5905 15.2975 29.5262C15.4467 29.4619 15.5807 29.3669 15.6908 29.2475C15.805 29.1326 15.8953 28.9963 15.9564 28.8463C16.0176 28.6964 16.0485 28.5358 16.0473 28.3739C16.0601 28.0828 15.9716 27.7964 15.7969 27.5633C15.7174 27.4615 15.615 27.3798 15.4981 27.3248C15.3812 27.2698 15.253 27.2431 15.1239 27.2468C14.9876 27.2519 14.8555 27.295 14.7423 27.3711C14.7264 27.381 14.7126 27.3901 14.6989 27.399C14.6014 27.4721 14.6483 27.7127 14.8171 27.6828L14.8178 27.684C14.8435 27.6785 14.8695 27.6755 14.8957 27.675C14.9705 27.6722 15.0448 27.6887 15.1114 27.7227C15.1781 27.7568 15.2349 27.8073 15.2766 27.8696C15.3819 28.0401 15.4321 28.239 15.4205 28.4391C15.4347 28.6757 15.3834 28.9116 15.2723 29.121C15.2317 29.1916 15.1726 29.2496 15.1014 29.289C15.0303 29.3284 14.9497 29.3476 14.8683 29.3445C14.7804 29.3456 14.6939 29.3214 14.6192 29.275C14.5444 29.2285 14.4846 29.1616 14.4466 29.0822C14.3292 28.84 14.275 28.572 14.289 28.3033C14.2903 27.7789 14.4654 27.2698 14.787 26.8556C15.0942 26.4327 15.5248 26.1152 16.0197 25.9469Z" fill="black"/>
<path d="M6.93889 29.1268C6.92805 29.1667 6.90322 29.2015 6.86899 29.2247C6.78916 29.2604 6.70336 29.2809 6.61602 29.285C6.57979 29.2856 6.5442 29.2948 6.51224 29.3119C6.49693 29.3237 6.48493 29.3392 6.47735 29.357C6.46976 29.3748 6.46689 29.3942 6.46899 29.4134C6.46899 29.5303 6.54123 29.5392 6.56368 29.5392C6.63917 29.5392 6.74927 29.5336 6.89025 29.5228C7.04574 29.5118 7.16941 29.5067 7.25777 29.5067C7.34451 29.5067 7.46724 29.5118 7.62224 29.5226C7.76721 29.5336 7.88011 29.5392 7.95773 29.5392C7.98437 29.5392 8.04679 29.527 8.04679 29.4134C8.04923 29.3935 8.0463 29.3734 8.03826 29.355C8.03025 29.3367 8.01745 29.3208 8.00123 29.3091C7.97084 29.2944 7.9377 29.2863 7.90396 29.2853C7.82224 29.2787 7.74172 29.2616 7.66434 29.2345C7.64521 29.2259 7.62808 29.2134 7.61403 29.1978C7.59993 29.1822 7.58923 29.1639 7.58249 29.144C7.55864 29.0659 7.54843 28.9842 7.55235 28.9026V26.7314C7.55665 26.7054 7.55357 26.6787 7.54343 26.6544C7.53329 26.6301 7.51654 26.6092 7.49507 26.5939C7.47616 26.577 7.45235 26.5665 7.42707 26.564C7.40179 26.5616 7.3764 26.5672 7.35455 26.5801C7.29542 26.6295 7.22175 26.7012 7.14791 26.7648C7.03007 26.8667 6.99431 26.8911 6.92602 26.9446C6.85658 26.9993 6.79252 27.0435 6.6642 27.1311C6.54588 27.2104 6.45612 27.274 6.39696 27.3205C6.37944 27.3343 6.32826 27.3865 6.40049 27.4781C6.41004 27.4928 6.42263 27.5052 6.43738 27.5146C6.45214 27.524 6.46871 27.5301 6.48605 27.5326C6.52147 27.5314 6.55563 27.5189 6.58354 27.497C6.65364 27.4503 6.72927 27.4123 6.80868 27.3841C6.82913 27.3761 6.8514 27.3737 6.87308 27.3773C6.89476 27.3809 6.91507 27.3903 6.93189 27.4045C6.96368 27.436 6.96343 27.49 6.96343 27.555V28.9026C6.96616 28.9781 6.95787 29.0536 6.93889 29.1268Z" fill="black"/>
<path d="M60.3164 29.6471L54.536 13.7242C53.9437 14.4992 53.3504 15.3011 52.5357 15.8081L52.9797 16.6096L47.9409 30.8224C47.8318 31.1675 47.6238 31.473 47.3427 31.7009C47.0616 31.9288 46.7199 32.0691 46.3598 32.1045V32.666H50.8308V32.1045C50.1392 31.9979 48.8297 31.9979 48.8297 30.9561C48.8297 30.2613 50.2626 26.6282 50.5098 25.6662H56.4133C56.735 26.8417 58.1178 30.2613 58.1178 31.0365C58.1178 32.1045 56.7839 32.1045 56.043 32.1045V32.666H62.4899V32.1045C61.1563 31.891 60.8602 31.1695 60.3164 29.6471ZM50.7811 24.9447L53.3504 17.3843L56.1416 24.9447H50.7811Z" fill="black"/>
<path d="M66.2724 30.6891V13.9916C65.1857 14.3659 64.0741 14.9001 62.9126 15.2204V15.5414C63.3046 15.5366 63.6836 15.6796 63.9745 15.9418C64.3206 16.3161 64.3206 16.9572 64.3206 17.6253V30.6891C64.3206 32.078 64 32.078 62.8881 32.1584V32.6657H67.6311V32.1584C66.5937 32.078 66.2724 32.078 66.2724 30.6891Z" fill="black"/>
<path d="M74.2724 22.4608L74.5196 21.3117H71.9014V17.4645C71.9014 16.0487 72.321 14.8199 73.4325 14.8199C75.0133 14.8199 74.7668 17.1176 76.0514 17.1176C76.693 17.1176 77.0888 16.6365 77.0888 15.9683C77.0888 14.526 75.4832 13.9919 74.3962 13.9919C73.0871 13.9919 70.0983 14.6862 69.9497 20.2431V21.3117H68.4178L68.1713 22.4608H69.9497V30.6889C69.9497 32.0783 69.6287 32.0783 68.3441 32.158V32.666H73.7787V32.158C72.222 32.0783 71.9014 32.0783 71.9014 30.6889V22.4608H74.2724Z" fill="black"/>
<path d="M79.0343 22.4338C79.6759 22.4338 80.0962 22.8878 80.4913 22.8878C80.6203 22.885 80.7472 22.8562 80.8647 22.8031C80.9825 22.7501 81.0881 22.6739 81.1759 22.5792C81.2633 22.4845 81.3311 22.3731 81.3748 22.2517C81.4186 22.1303 81.4371 22.0013 81.4301 21.8725C81.4301 21.0444 80.8371 20.6437 80.1206 20.6437C79.0588 20.6437 78.2682 21.8994 77.6511 22.6744V20.7503C76.6378 21.1779 75.6497 21.7393 74.6123 22.1129V22.3803C75.4766 22.8343 75.7483 22.8879 75.7483 23.9301V30.6888C75.7483 32.0782 75.4276 32.0782 74.3651 32.1579V32.666H79.2808V32.1579C78.0213 32.0782 77.6997 32.0782 77.6997 30.6888V23.6093C77.6997 23.1817 78.614 22.4338 79.0343 22.4338Z" fill="black"/>
<path d="M86.9325 31.1969C84.314 31.1969 82.5601 29.1662 82.5601 26.3607C82.5643 25.8509 82.6056 25.342 82.6832 24.8381H90.9587C90.3905 22.1664 88.4147 20.831 85.9692 20.831C82.9063 20.831 80.6825 23.689 80.6825 26.8952C80.6825 30.5016 82.708 32.9598 86.043 32.9598C88.5877 32.9598 90.2916 31.1969 91.0818 28.6853L90.6622 28.552C90.378 29.3164 89.8703 29.9776 89.2049 30.4493C88.5398 30.921 87.7479 31.1815 86.9325 31.1969ZM85.722 21.3916C87.3276 21.3916 87.871 22.7009 87.9696 24.224H82.8563C83.3255 22.7541 84.1157 21.3916 85.722 21.3916Z" fill="black"/>
<path d="M101.707 13.9916C100.521 14.4192 99.4091 15.0069 98.2231 15.4609V15.7015C98.5388 15.6835 98.8538 15.7479 99.1374 15.8885C99.7794 16.2088 99.7549 16.8234 99.7549 17.4381V21.6589C98.8808 21.1551 97.8975 20.8709 96.8895 20.8308C93.5049 20.8308 91.5294 23.4761 91.5294 27.0292C91.5294 30.1009 93.2336 32.9596 96.2968 32.9596C97.7294 32.9596 98.8654 32.3186 99.7056 31.1162H99.7549V32.9596L102.991 31.9443V31.7577L101.707 31.3301V13.9916ZM99.7549 30.4752C99.0629 31.2771 98.1496 31.8645 97.1115 31.8645C96.0496 31.8645 93.5301 31.0363 93.5301 26.4942C93.5301 24.2508 94.2465 21.3386 96.815 21.3386C97.5808 21.3386 99.7549 21.7926 99.7549 25.1586V30.4752Z" fill="black"/>
<path d="M121.887 26.5478V16.8501C121.887 15.3546 122.678 14.793 123.987 14.793V14.2317H118.651V14.793C120.356 14.8999 121.22 15.0065 121.22 16.8501V26.5478C121.22 29.6735 120.282 32.479 116.181 32.479C112.08 32.479 111.438 29.4601 111.438 27.5634V16.8501C111.438 15.4079 111.759 14.7661 113.612 14.793V14.2317H107.165V14.793C108.77 14.8734 108.943 15.0869 108.943 16.8501V26.8419C108.943 30.1547 110.401 33.0398 115.415 33.0398C120.578 33.0398 121.887 30.2613 121.887 26.5478" fill="black"/>
<path d="M133.15 30.6889V24.3572C133.15 22.3534 131.322 20.8308 129.544 20.8308C127.987 20.8308 127.197 21.7393 126.184 22.8614V20.8308C125.122 21.2584 124.134 21.7393 123.022 22.0867V22.3803C123.887 22.6473 124.233 23.0478 124.233 24.0633V30.6889C124.233 32.0782 123.912 32.0782 122.8 32.1579V32.666H127.567V32.1579C126.506 32.0782 126.184 32.0782 126.184 30.6889V24.3572C126.184 23.1282 127.666 22.0062 128.729 22.0062C130.335 22.0062 131.199 23.1282 131.199 24.8117V30.6889C131.199 32.0782 130.878 32.0782 129.766 32.1579V32.666H134.658V32.1579C133.817 32.0782 133.15 32.0782 133.15 30.6889Z" fill="black"/>
<path d="M139.843 32.158C138.805 32.0783 138.484 32.0783 138.484 30.6889V20.6971C137.372 21.1516 136.26 21.6327 135.199 22.1129V22.3803C135.511 22.4039 135.814 22.495 136.088 22.6473C136.533 22.9681 136.533 23.716 136.533 24.2773V30.6889C136.533 32.0783 136.212 32.0783 135.1 32.158V32.666H139.843V32.158Z" fill="black"/>
<path d="M137.398 16.7433C138.089 16.7433 138.583 16.0487 138.583 15.3544C138.583 14.6862 138.04 13.9919 137.398 13.9919C137.048 14.0062 136.717 14.1568 136.478 14.4114C136.237 14.666 136.107 15.0045 136.113 15.3544C136.106 15.707 136.236 16.0486 136.475 16.3076C136.715 16.5665 137.045 16.7227 137.398 16.7433Z" fill="black"/>
<path d="M149.4 23.155C149.77 22.2472 150.215 21.6323 151.153 21.6323V21.1243H147.324V21.6323C147.794 21.6323 148.906 21.579 148.906 22.3538C148.888 22.7248 148.796 23.0884 148.634 23.4224L145.842 30.1545L143.471 23.5557C143.322 23.1675 143.214 22.7646 143.15 22.3538C143.15 21.6054 144.311 21.6323 144.755 21.6323V21.1243H139.543V21.6323C140.778 21.6856 140.902 22.1667 141.272 23.1821L144.879 32.9595H145.299L149.4 23.155Z" fill="black"/>
<path d="M160.443 28.6853L160.024 28.552C159.739 29.3164 159.232 29.9776 158.566 30.4493C157.901 30.921 157.109 31.1815 156.294 31.1969C153.676 31.1969 151.921 29.1662 151.921 26.3608C151.926 25.8509 151.967 25.342 152.045 24.8381H160.32C159.752 22.1664 157.776 20.831 155.33 20.831C152.267 20.831 150.043 23.689 150.043 26.8952C150.043 30.5016 152.069 32.9598 155.404 32.9598C157.949 32.9598 159.653 31.1969 160.443 28.6853ZM155.084 21.3916C156.689 21.3916 157.232 22.7009 157.331 24.224H152.218C152.687 22.7541 153.477 21.3916 155.084 21.3916Z" fill="black"/>
<path d="M166.597 20.6437C165.534 20.6437 164.744 21.8996 164.126 22.6744V20.7505C163.113 21.1781 162.126 21.7394 161.088 22.113V22.3805C161.953 22.8345 162.224 22.8878 162.224 23.93V30.6888C162.224 32.0784 161.904 32.0784 160.841 32.1579V32.6659H165.757V32.1579C164.497 32.0784 164.176 32.0784 164.176 30.6888V23.6093C164.176 23.1817 165.09 22.4338 165.51 22.4338C166.152 22.4338 166.572 22.8878 166.967 22.8878C167.096 22.8849 167.223 22.856 167.341 22.8029C167.458 22.7499 167.564 22.6737 167.652 22.579C167.739 22.4843 167.807 22.3729 167.85 22.2516C167.894 22.1302 167.913 22.0013 167.906 21.8725C167.906 21.0444 167.313 20.6437 166.597 20.6437Z" fill="black"/>
<path d="M169.727 23.2352C169.727 22.1401 170.394 21.3382 171.432 21.3382C173.087 21.3382 174.075 22.888 174.372 24.4911H174.767V21.659C173.729 21.2585 172.643 20.8309 171.53 20.8309C169.875 20.8309 168.171 21.8462 168.171 23.8498C168.171 25.7196 169.382 26.3609 170.765 27.2161C171.876 27.9104 173.408 28.4178 173.408 30.0477C173.408 31.5704 172.692 32.452 171.259 32.452C169.382 32.452 168.887 30.5289 168.443 28.9529H168.146V32.1048C169.097 32.6859 170.194 32.9827 171.308 32.96C173.334 32.96 175.285 31.7845 175.285 29.3531C175.285 25.4529 169.727 25.5333 169.727 23.2352Z" fill="black"/>
<path d="M179.235 30.6888V20.697C178.123 21.1517 177.012 21.6327 175.95 22.1129V22.3803C176.262 22.4038 176.565 22.4949 176.839 22.6473C177.283 22.9683 177.283 23.7159 177.283 24.2772V30.6888C177.283 32.0782 176.962 32.0782 175.851 32.1579V32.666H180.593V32.1579C179.556 32.0782 179.235 32.0782 179.235 30.6888Z" fill="black"/>
<path d="M178.148 16.7433C178.84 16.7433 179.334 16.0487 179.334 15.3544C179.334 14.6862 178.791 13.9919 178.148 13.9919C177.799 14.0061 177.468 14.1567 177.228 14.4113C176.988 14.6659 176.857 15.0044 176.864 15.3544C176.857 15.7071 176.986 16.0487 177.226 16.3077C177.465 16.5667 177.796 16.7228 178.148 16.7433Z" fill="black"/>
<path d="M187.409 31.5706C187.631 31.3303 188.199 30.9295 187.705 30.6621C187.162 31.0364 186.371 31.6241 185.704 31.6241C184.346 31.6241 184 30.8491 184 29.5137V22.4606H187.063L187.656 21.1243H184V18.9606H183.95C182.987 20.1361 181.851 21.1243 180.813 22.22V22.4606H182.097V29.7805C182.097 31.517 182.839 32.9595 184.618 32.9595C185.157 32.9481 185.686 32.8176 186.169 32.5775C186.651 32.3374 187.075 31.9935 187.409 31.5706Z" fill="black"/>
<path d="M196.048 21.1244V21.6324C196.69 21.6593 197.802 21.6324 197.802 22.5138C197.765 22.9596 197.673 23.3992 197.53 23.823L195.554 29.9938L192.17 23.1819C192.033 22.9306 191.933 22.6605 191.873 22.3803C191.873 21.6324 193.207 21.6324 193.701 21.6324V21.1244H188.341V21.6324C189.502 21.8458 189.329 21.8727 189.946 23.0213L194.738 32.4792L193.973 35.1241C193.8 35.6846 193.504 36.4864 192.812 36.4059C192.54 36.3797 192.293 36.2724 192.022 36.2458C191.428 36.2724 191.083 36.7 191.083 37.3416C191.083 37.9024 191.478 38.4098 192.022 38.4098C193.43 38.4098 193.949 36.8608 194.368 35.6045L198.345 23.2616C198.716 22.0864 199.037 21.6324 200.222 21.6324V21.1244H196.048Z" fill="black"/>
<path d="M122.755 36.2185C122.512 36.2185 122.376 36.2427 122.142 36.2427C121.909 36.2427 121.749 36.2185 121.525 36.2185C121.506 36.2185 121.486 36.2717 121.486 36.3056C121.486 36.3448 121.506 36.3934 121.525 36.3934C121.943 36.4416 122.021 36.549 122.021 36.8063V38.2839C122.021 39.0178 121.705 39.4018 121.117 39.4018C120.519 39.4018 120.213 39.1301 120.213 38.3423V36.8063C120.213 36.549 120.276 36.4416 120.699 36.3934C120.718 36.3934 120.737 36.3448 120.737 36.3056C120.737 36.2717 120.718 36.2185 120.699 36.2185C120.378 36.2185 120.149 36.2427 119.849 36.2427C119.546 36.2427 119.319 36.2185 118.998 36.2185C118.978 36.2185 118.958 36.2717 118.958 36.3056C118.958 36.3448 118.978 36.3934 118.998 36.3934C119.42 36.4416 119.483 36.549 119.483 36.8063V38.2937C119.483 39.1542 119.989 39.6741 121 39.6741C121.87 39.6741 122.259 39.0717 122.259 38.3325V36.8063C122.259 36.5392 122.332 36.4416 122.755 36.3934C122.774 36.3934 122.794 36.3448 122.794 36.3056C122.794 36.2717 122.774 36.2185 122.755 36.2185ZM119.62 38.372V36.6899C119.627 36.6077 119.604 36.5259 119.556 36.4591C119.507 36.3923 119.437 36.3448 119.357 36.3252C119.483 36.335 119.59 36.3399 119.751 36.3399C119.911 36.3399 120.023 36.335 120.149 36.3252C120.069 36.3448 119.998 36.392 119.949 36.4587C119.9 36.5255 119.877 36.6073 119.882 36.6899V38.2643C119.882 39.1934 120.417 39.5822 120.981 39.5822C120.072 39.5822 119.62 39.0374 119.62 38.372ZM122.118 36.6171C122.1 36.5469 122.064 36.4825 122.012 36.4311C121.961 36.3797 121.897 36.3434 121.827 36.3252C121.92 36.3357 122.014 36.3402 122.108 36.3399C122.152 36.3399 122.307 36.3399 122.347 36.335C122.288 36.3587 122.236 36.3969 122.195 36.4462C122.155 36.4958 122.129 36.5546 122.118 36.6171Z" fill="black"/>
<path d="M125.442 36.2427C124.911 36.2584 124.38 36.2357 123.852 36.1745C123.794 36.4954 123.726 36.8549 123.634 37.1857C123.624 37.215 123.683 37.2437 123.736 37.2437C123.765 37.2437 123.799 37.2339 123.809 37.215C123.881 37.0129 124.007 36.8339 124.173 36.6979C124.34 36.5615 124.54 36.4731 124.752 36.442H124.864C125.019 36.442 125.073 36.4857 125.073 36.6315V39.0133C125.073 39.2706 125.009 39.3776 124.586 39.421C124.566 39.4266 124.548 39.4752 124.548 39.5087C124.548 39.5472 124.566 39.5965 124.586 39.5965C124.907 39.5965 125.141 39.572 125.442 39.572C125.738 39.572 125.967 39.5965 126.287 39.5965C126.307 39.5965 126.327 39.5472 126.327 39.5087C126.327 39.4752 126.307 39.4266 126.287 39.421C125.865 39.3776 125.801 39.2706 125.801 39.0133V36.6315C125.801 36.4954 125.855 36.442 126.011 36.442H126.161C126.545 36.442 126.876 36.7867 126.997 37.215C127.002 37.229 127.041 37.2437 127.07 37.2437C127.134 37.2437 127.177 37.215 127.173 37.1857C127.119 36.8409 127.08 36.4857 127.056 36.1745C126.52 36.2353 125.981 36.258 125.442 36.2427ZM123.886 36.7385C123.906 36.6364 123.95 36.3937 123.969 36.2815C124.057 36.2961 124.256 36.3108 124.416 36.3206C124.201 36.4031 124.017 36.5486 123.886 36.7385ZM125.341 39.4752C125.207 39.4734 125.074 39.4797 124.942 39.4941C125.022 39.4741 125.092 39.4266 125.141 39.3601C125.19 39.2934 125.214 39.2119 125.208 39.1297V36.6119C125.208 36.457 125.174 36.3738 125.063 36.3304C125.131 36.3346 125.233 36.3395 125.341 36.3395C125.422 36.3395 125.535 36.3346 125.587 36.3304C125.495 36.3787 125.471 36.4759 125.471 36.6315V39.1297C125.465 39.2115 125.488 39.293 125.536 39.3598C125.584 39.4262 125.654 39.4738 125.733 39.4941C125.603 39.4801 125.472 39.4738 125.341 39.4752ZM126.283 36.3255C126.492 36.3157 126.721 36.3059 126.837 36.2961C126.846 36.3937 126.9 36.6119 126.914 36.7C126.844 36.5944 126.75 36.5063 126.641 36.4413C126.531 36.3766 126.409 36.3371 126.283 36.3255Z" fill="black"/>
<path d="M129.109 36.8454C129.107 36.7752 129.12 36.7056 129.148 36.6405C129.175 36.5759 129.215 36.5178 129.267 36.4699C129.318 36.4224 129.379 36.386 129.446 36.3636C129.513 36.3409 129.583 36.3332 129.653 36.3398C130.013 36.3398 130.241 36.5874 130.358 37.0884C130.362 37.1178 130.411 37.1269 130.45 37.1269C130.484 37.1269 130.537 37.108 130.533 37.0884C130.498 36.8206 130.484 36.5542 130.47 36.2766C130.119 36.2381 130.017 36.1402 129.658 36.1402C128.933 36.1402 128.491 36.6073 128.491 37.1514C128.491 38.0993 130.095 38.1822 130.095 38.9304C130.102 39.0066 130.093 39.0836 130.066 39.1552C130.04 39.2269 129.997 39.2919 129.942 39.3447C129.887 39.3975 129.82 39.4371 129.747 39.4605C129.674 39.4839 129.597 39.4905 129.521 39.4794C129.089 39.4794 128.739 39.1636 128.584 38.5713C128.574 38.5416 128.535 38.5318 128.501 38.5318C128.462 38.5318 128.409 38.5517 128.409 38.5713C128.428 38.8042 128.438 39.2122 128.448 39.4748C128.827 39.5091 129.07 39.6741 129.512 39.6741C130.217 39.6741 130.698 39.2654 130.698 38.5947C130.698 37.657 129.109 37.5308 129.109 36.8454ZM130.289 36.3738C130.294 36.4367 130.304 36.5633 130.309 36.6171C130.235 36.4787 130.117 36.3692 129.974 36.3059C130.078 36.3343 130.183 36.3566 130.289 36.3738ZM128.579 39.3776C128.574 39.2902 128.569 39.1252 128.564 39.0322C128.646 39.1825 128.749 39.3199 128.87 39.4409C128.774 39.4136 128.677 39.3926 128.579 39.3776ZM129.808 39.5329C129.937 39.5007 130.05 39.4231 130.127 39.3143C130.204 39.2056 130.239 39.0727 130.227 38.9402C130.227 38.0556 128.627 38.0458 128.627 37.1126C128.634 36.9255 128.702 36.7461 128.821 36.6014C128.939 36.4563 129.102 36.3542 129.284 36.3105C129.147 36.3482 129.028 36.4315 128.944 36.5461C128.862 36.6612 128.82 36.8007 128.827 36.9423C128.827 37.3364 129.225 37.6035 129.585 37.808C130.051 38.0703 130.44 38.3035 130.44 38.7409C130.439 38.9248 130.376 39.1028 130.262 39.2465C130.147 39.3902 129.987 39.4912 129.808 39.5329Z" fill="black"/>
<path d="M133.507 36.3934C133.531 36.3934 133.546 36.3448 133.546 36.3056C133.546 36.272 133.531 36.2185 133.507 36.2185C133.186 36.2185 132.963 36.2427 132.661 36.2427C132.36 36.2427 132.131 36.2185 131.806 36.2185C131.786 36.2185 131.767 36.272 131.767 36.3056C131.767 36.3448 131.786 36.3934 131.806 36.3934C132.228 36.442 132.292 36.5486 132.292 36.8063V39.0129C132.292 39.2706 132.228 39.3776 131.806 39.4213C131.786 39.4266 131.767 39.4752 131.767 39.5087C131.767 39.5479 131.786 39.5965 131.806 39.5965C132.131 39.5965 132.36 39.5717 132.661 39.5717C132.963 39.5717 133.186 39.5965 133.507 39.5965C133.531 39.5965 133.546 39.5479 133.546 39.5087C133.546 39.4752 133.531 39.4266 133.507 39.4213C133.089 39.3776 133.026 39.2706 133.026 39.0129V36.8063C133.026 36.5486 133.089 36.442 133.507 36.3934ZM132.958 39.4941C132.693 39.4689 132.426 39.4689 132.161 39.4941C132.241 39.4741 132.312 39.4266 132.36 39.3598C132.409 39.2934 132.433 39.2119 132.428 39.1294V36.6899C132.434 36.6073 132.41 36.5255 132.361 36.4587C132.312 36.392 132.241 36.3448 132.161 36.3252C132.292 36.335 132.399 36.3395 132.559 36.3395C132.719 36.3395 132.826 36.335 132.958 36.3252C132.877 36.3448 132.806 36.392 132.757 36.4584C132.708 36.5252 132.685 36.607 132.69 36.6899V39.1294C132.685 39.2119 132.709 39.2937 132.758 39.3601C132.807 39.4266 132.878 39.4741 132.958 39.4941Z" fill="black"/>
<path d="M136.689 36.2231C136.47 36.2231 136.014 36.2378 135.79 36.2378C135.562 36.2378 135.065 36.2329 134.847 36.2231C134.827 36.2231 134.808 36.2769 134.808 36.3105C134.808 36.3493 134.827 36.3983 134.847 36.3983C135.265 36.4469 135.333 36.5535 135.333 36.8115V39.0129C135.333 39.2706 135.265 39.3776 134.847 39.4217C134.827 39.4266 134.808 39.4752 134.808 39.5087C134.808 39.5483 134.827 39.5965 134.847 39.5965C135.065 39.5867 135.562 39.5818 135.79 39.5818C136.014 39.5818 136.47 39.5965 136.689 39.5965C138.036 39.5965 138.604 38.8287 138.604 37.929C138.604 36.9815 137.958 36.2231 136.689 36.2231ZM135.926 39.4895C135.818 39.479 135.709 39.4745 135.6 39.4752C135.469 39.4734 135.337 39.4797 135.207 39.4941C135.286 39.4741 135.356 39.4266 135.405 39.3598C135.452 39.293 135.476 39.2115 135.469 39.1297V36.6895C135.476 36.6077 135.453 36.5259 135.405 36.4591C135.357 36.3923 135.287 36.3448 135.207 36.3255C135.333 36.3353 135.44 36.3395 135.6 36.3395C135.736 36.3395 135.824 36.3395 135.926 36.3304C135.77 36.3643 135.731 36.4657 135.731 36.6511V39.1689C135.731 39.3486 135.77 39.4504 135.926 39.4895ZM136.67 39.3972L136.344 39.3874C136.213 39.3825 136.062 39.3437 136.062 39.1056V36.7189C136.062 36.4804 136.213 36.442 136.344 36.4367L136.67 36.4269C137.428 36.4171 137.831 37.0301 137.831 37.929C137.831 38.8046 137.413 39.4021 136.67 39.3972ZM136.947 39.4997C137.604 39.329 137.987 38.7699 137.987 37.9098C137.987 37.0395 137.593 36.4804 136.966 36.3255C137.88 36.5053 138.279 37.0839 138.279 37.9098C138.279 38.7315 137.86 39.3192 136.947 39.4997Z" fill="black"/>
<path d="M142.663 38.5608C142.634 38.5608 142.61 38.5657 142.605 38.5804C142.54 38.8007 142.408 38.9951 142.228 39.1367C142.047 39.2787 141.827 39.3612 141.598 39.3727H141.21C141.171 39.3773 141.132 39.3727 141.095 39.3598C141.059 39.3469 141.026 39.3259 140.999 39.2983C140.971 39.2706 140.951 39.2371 140.938 39.2004C140.926 39.1636 140.922 39.1245 140.928 39.086V37.9731H141.316C141.609 37.9731 141.778 38.1136 141.822 38.5073C141.827 38.5269 141.875 38.5462 141.91 38.5462C141.948 38.5462 141.997 38.5269 141.997 38.5073C141.997 38.2643 141.972 38.1136 141.972 37.8857C141.972 37.6573 141.997 37.4965 141.997 37.2535C141.997 37.229 141.948 37.215 141.91 37.215C141.875 37.215 141.827 37.229 141.822 37.2535C141.778 37.6476 141.609 37.7741 141.316 37.7741H140.928V36.7332C140.922 36.6944 140.926 36.6552 140.938 36.6182C140.951 36.5811 140.971 36.5476 140.998 36.5192C141.026 36.4913 141.058 36.4699 141.095 36.4563C141.132 36.443 141.171 36.4381 141.21 36.442H141.598C141.798 36.4427 141.99 36.5154 142.14 36.6469C142.29 36.778 142.388 36.9591 142.415 37.1566C142.422 37.1678 142.433 37.1766 142.445 37.1825C142.457 37.1885 142.47 37.1913 142.483 37.1906C142.551 37.1906 142.6 37.1615 142.594 37.1273C142.546 36.8262 142.514 36.5231 142.498 36.2185C142.186 36.2283 141.428 36.2427 141.107 36.2427C140.787 36.2427 140.019 36.2283 139.713 36.2185C139.693 36.2185 139.673 36.272 139.673 36.3056C139.673 36.3448 139.693 36.3934 139.713 36.3934C140.131 36.442 140.199 36.5486 140.199 36.8063V39.0129C140.199 39.2706 140.131 39.3776 139.713 39.4213C139.693 39.4266 139.673 39.4752 139.673 39.5091C139.673 39.5483 139.693 39.5965 139.713 39.5965C140.019 39.5867 140.835 39.5717 141.156 39.5717C141.477 39.5717 142.254 39.5867 142.565 39.5965C142.619 39.2951 142.697 38.9161 142.78 38.629C142.79 38.5951 142.726 38.5608 142.663 38.5608ZM141.807 37.686V37.8857C141.807 37.9339 141.807 38.0413 141.812 38.0797C141.782 38.0217 141.736 37.972 141.681 37.9364C141.626 37.9007 141.562 37.8797 141.496 37.8755C141.56 37.8731 141.622 37.8546 141.676 37.8213C141.731 37.7881 141.776 37.7416 141.807 37.686ZM142.269 36.3304C142.274 36.3885 142.308 36.5878 142.318 36.6462C142.259 36.5601 142.181 36.4881 142.092 36.435C142.002 36.3822 141.901 36.3493 141.797 36.3395C141.929 36.3395 142.152 36.335 142.269 36.3304ZM140.465 39.485C140.306 39.485 140.199 39.4899 140.067 39.4993C140.148 39.4801 140.219 39.4329 140.268 39.3657C140.317 39.299 140.341 39.2171 140.335 39.1343V36.6899C140.34 36.6066 140.316 36.5245 140.267 36.457C140.219 36.3899 140.148 36.3416 140.067 36.3206C140.286 36.3304 140.616 36.335 140.826 36.335C140.754 36.3615 140.693 36.4105 140.652 36.4741C140.611 36.5381 140.592 36.614 140.598 36.6899V39.1343C140.592 39.2154 140.616 39.2955 140.665 39.3598C140.714 39.4241 140.785 39.4685 140.864 39.485H140.465ZM142.318 39.485C142.186 39.485 141.958 39.4801 141.807 39.4752C141.923 39.4661 142.035 39.4336 142.138 39.3801C142.241 39.3269 142.331 39.2532 142.405 39.164C142.369 39.2689 142.34 39.3762 142.318 39.485Z" fill="black"/>
<path d="M115.281 35.0745C113.615 35.0745 112.636 36.2349 112.636 37.6238C112.636 39.0199 113.615 40.1245 115.281 40.1245C116.949 40.1245 117.928 39.0199 117.928 37.6238C117.928 36.2349 116.949 35.0745 115.281 35.0745ZM112.851 37.5961C112.835 37.0255 113.029 36.4692 113.397 36.0325C113.764 35.5958 114.279 35.3094 114.844 35.2276C113.907 35.415 113.268 36.3182 113.268 37.5961C113.268 38.8808 113.907 39.7905 114.844 39.9783C114.278 39.8944 113.762 39.6056 113.394 39.1664C113.027 38.7273 112.833 38.1685 112.851 37.5961ZM113.74 37.6238C113.74 36.3384 114.219 35.3594 115.281 35.3594C116.344 35.3594 116.824 36.3384 116.824 37.6238C116.824 38.9157 116.344 39.8465 115.281 39.8465C114.219 39.8465 113.74 38.9157 113.74 37.6238ZM115.664 39.9783C116.601 39.7353 117.039 38.7699 117.039 37.5961C117.039 36.4217 116.601 35.478 115.664 35.2276C116.858 35.4636 117.456 36.3668 117.456 37.5961C117.456 38.8255 116.858 39.7419 115.664 39.9783Z" fill="black"/>
<path d="M155.979 35.4255C155.577 35.2073 155.126 35.0958 154.668 35.1018C154.21 35.0955 153.758 35.2084 153.357 35.4294C152.976 35.6406 152.658 35.9511 152.438 36.3276C152.219 36.7168 152.104 37.1556 152.104 37.6025C152.104 38.049 152.219 38.4881 152.438 38.8769C152.658 39.2535 152.976 39.5636 153.357 39.7745C153.758 39.9951 154.21 40.108 154.668 40.1021C155.126 40.108 155.577 39.9965 155.979 39.7783C156.361 39.5692 156.679 39.2601 156.898 38.8839C157.117 38.4923 157.233 38.0511 157.233 37.6021C157.233 37.1531 157.117 36.7119 156.898 36.3203C156.679 35.9441 156.361 35.635 155.979 35.4255ZM156.613 38.7318C156.421 39.0643 156.143 39.3388 155.808 39.5255C155.457 39.714 155.065 39.8126 154.666 39.8126C154.268 39.8126 153.876 39.714 153.524 39.5255C153.188 39.3392 152.908 39.0647 152.716 38.7318C152.523 38.3864 152.422 37.9972 152.422 37.6018C152.422 37.2059 152.523 36.8168 152.716 36.4717C152.909 36.1392 153.188 35.865 153.524 35.6783C153.876 35.4899 154.268 35.3913 154.666 35.3913C155.065 35.3913 155.457 35.4899 155.808 35.6783C156.143 35.8654 156.421 36.1395 156.613 36.4717C156.806 36.8168 156.907 37.2059 156.907 37.6018C156.907 37.9972 156.806 38.3864 156.613 38.7318Z" fill="black"/>
<path d="M161.438 38.0398C161.587 37.836 161.664 37.5884 161.656 37.3364C161.664 37.1685 161.633 37.001 161.566 36.8472C161.499 36.6933 161.396 36.5573 161.267 36.4496C160.959 36.2217 160.581 36.1091 160.199 36.1315H158.88V39.6832H159.196V38.535H160.199C160.304 38.535 160.409 38.5287 160.514 38.5161L161.359 39.6832H161.712L160.816 38.4531C161.062 38.385 161.28 38.2402 161.438 38.0398ZM160.186 38.2699H159.196V36.4091H160.186C160.49 36.3884 160.792 36.4727 161.041 36.6482C161.134 36.7374 161.207 36.8444 161.258 36.9629C161.308 37.0815 161.334 37.2087 161.334 37.3374C161.334 37.4664 161.308 37.5937 161.258 37.7122C161.207 37.8304 161.134 37.9378 161.041 38.0269C160.793 38.2049 160.491 38.2905 160.186 38.2699Z" fill="black"/>
<path d="M165.926 36.3552C165.608 36.1996 165.257 36.1227 164.904 36.1311H163.466V39.6836H164.904C165.257 39.6916 165.608 39.615 165.926 39.4594C166.206 39.3203 166.438 39.1017 166.595 38.8311C166.749 38.5475 166.829 38.2297 166.829 37.907C166.829 37.5843 166.749 37.2668 166.595 36.9829C166.438 36.7126 166.206 36.4944 165.926 36.3552ZM166.32 38.6927C166.191 38.921 165.997 39.1059 165.762 39.2227C165.491 39.3552 165.193 39.4199 164.892 39.4122H163.781V36.4084H164.892C165.193 36.4007 165.491 36.4657 165.762 36.5982C165.996 36.7147 166.19 36.8982 166.32 37.1252C166.452 37.3633 166.518 37.6322 166.513 37.9042C166.519 38.1794 166.452 38.451 166.32 38.6927Z" fill="black"/>
<path d="M168.926 36.1318H168.61V39.6836H168.926V36.1318Z" fill="black"/>
<path d="M173.859 39.128L171.474 36.1311H171.209V39.6832H171.524V36.6801L173.916 39.6832H174.181V36.1311H173.859V39.128Z" fill="black"/>
<path d="M177.386 36.1308L175.739 39.6832H176.061L176.515 38.699H178.578L179.026 39.6832H179.354L177.701 36.1308H177.386ZM176.635 38.4339L177.543 36.4531L178.452 38.4339H176.635Z" fill="black"/>
<path d="M183.54 38.0398C183.688 37.836 183.765 37.5884 183.757 37.3364C183.765 37.1685 183.735 37.001 183.667 36.8472C183.6 36.6933 183.498 36.5573 183.369 36.4496C183.061 36.2217 182.683 36.1091 182.3 36.1315H180.982V39.6832H181.297V38.535H182.3C182.405 38.535 182.51 38.5287 182.615 38.5161L183.461 39.6832H183.814L182.918 38.4531C183.164 38.385 183.381 38.2402 183.54 38.0398ZM182.287 38.2699H181.297V36.4091H182.287C182.591 36.3884 182.893 36.4727 183.142 36.6482C183.235 36.7374 183.309 36.8444 183.359 36.9629C183.409 37.0815 183.436 37.2087 183.436 37.3374C183.436 37.4664 183.409 37.5937 183.359 37.7122C183.309 37.8304 183.235 37.9378 183.142 38.0269C182.894 38.2049 182.592 38.2905 182.287 38.2699Z" fill="black"/>
<path d="M186.947 38.2066L185.654 36.1315H185.307L186.784 38.5161V39.6832H187.099V38.5161L188.575 36.1315H188.241L186.947 38.2066Z" fill="black"/>
<path d="M147.246 37.7874C147.246 37.1954 146.873 36.8419 146.512 36.8419C145.773 36.8419 144.961 37.8437 144.961 38.7556C144.961 39.344 145.331 39.6958 145.688 39.6958C146.431 39.6958 147.246 38.6968 147.246 37.7874ZM145.694 39.5262C145.476 39.5262 145.436 39.4017 145.436 39.1552C145.446 38.6493 145.577 38.1531 145.816 37.7073C146.042 37.2815 146.309 37.0171 146.512 37.0171C146.726 37.0171 146.765 37.1399 146.765 37.3822C146.755 37.8895 146.626 38.3874 146.388 38.8357C146.164 39.2619 145.898 39.5262 145.694 39.5262Z" fill="black"/>
<path d="M150.002 35.0063C149.489 35.0063 149.087 35.3745 148.841 35.6836C148.546 36.0566 148.338 36.4909 148.232 36.9545C148.225 37.0339 148.11 37.0961 147.563 37.1601C147.533 37.1706 147.507 37.1968 147.507 37.2196C147.507 37.2227 147.508 37.2857 147.549 37.2857H148.048C148.06 37.2846 148.072 37.286 148.083 37.2899C148.094 37.2937 148.105 37.3 148.114 37.308C148.12 37.3182 148.125 37.3297 148.127 37.342C148.129 37.3538 148.128 37.3664 148.125 37.378L147.532 40.1577C147.414 40.7171 147.323 40.9811 146.999 40.9811C146.89 40.9706 146.79 40.9189 146.717 40.8364C146.65 40.7598 146.557 40.7108 146.456 40.6996C146.422 40.6958 146.387 40.6996 146.355 40.7112C146.322 40.7224 146.292 40.7409 146.268 40.7654C146.244 40.7895 146.225 40.8192 146.214 40.8517C146.202 40.8843 146.199 40.9189 146.202 40.9531C146.202 41.1238 146.412 41.3059 146.725 41.3059C147.199 41.3059 147.851 40.7238 148.158 39.4451L148.679 37.2853L149.397 37.2982C149.428 37.2982 149.481 37.2273 149.481 37.1447C149.481 37.0601 149.473 37.0601 149.44 37.0601H148.728L148.733 37.0416C148.762 36.9129 148.788 36.7916 148.812 36.678C148.998 35.8234 149.091 35.394 149.621 35.394C149.723 35.4007 149.821 35.4406 149.899 35.5077C149.97 35.5685 150.059 35.6052 150.152 35.6122C150.235 35.6129 150.315 35.5808 150.374 35.5231C150.433 35.465 150.466 35.386 150.468 35.3031C150.468 35.1147 150.298 35.0063 150.002 35.0063Z" fill="black"/>
</g>
</svg>
