<svg width="16" height="25" viewBox="0 0 16 25" fill="none" xmlns="http://www.w3.org/2000/svg">
<path d="M14.629 0.57876C14.9805 0.930374 15.178 1.4072 15.178 1.90438C15.178 2.40157 14.9805 2.8784 14.629 3.23001L5.34775 12.5113L14.629 21.7925C14.9706 22.1461 15.1595 22.6198 15.1553 23.1114C15.151 23.603 14.9538 24.0733 14.6062 24.4209C14.2585 24.7686 13.7883 24.9658 13.2966 24.97C12.805 24.9743 12.3314 24.7853 11.9778 24.4438L1.37088 13.8369C1.01937 13.4853 0.821903 13.0084 0.821903 12.5113C0.821903 12.0141 1.01937 11.5372 1.37088 11.1856L11.9778 0.57876C12.3294 0.227252 12.8062 0.0297852 13.3034 0.0297852C13.8006 0.0297852 14.2774 0.227252 14.629 0.57876Z" fill="black"/>
</svg>
