<svg width="15" height="26" viewBox="0 0 15 26" fill="none" xmlns="http://www.w3.org/2000/svg">
<path d="M0.870935 1.07876C0.519427 1.43037 0.32196 1.9072 0.32196 2.40438C0.32196 2.90157 0.519427 3.3784 0.870935 3.73001L10.1522 13.0113L0.870935 22.2925C0.529389 22.6461 0.340399 23.1198 0.344671 23.6114C0.348943 24.103 0.546135 24.5733 0.893775 24.9209C1.24142 25.2686 1.71169 25.4658 2.20331 25.47C2.69493 25.4743 3.16856 25.2853 3.52218 24.9438L14.1291 14.3369C14.4806 13.9853 14.678 13.5084 14.678 13.0113C14.678 12.5141 14.4806 12.0372 14.1291 11.6856L3.52218 1.07876C3.17057 0.727252 2.69374 0.529785 2.19656 0.529785C1.69938 0.529785 1.22255 0.727252 0.870935 1.07876Z" fill="#FAF3E6"/>
</svg>
