<svg width="16" height="25" viewBox="0 0 16 25" fill="none" xmlns="http://www.w3.org/2000/svg">
<path d="M1.371 0.57876C1.01949 0.930374 0.822021 1.4072 0.822021 1.90438C0.822021 2.40157 1.01949 2.8784 1.371 3.23001L10.6522 12.5113L1.371 21.7925C1.02945 22.1461 0.84046 22.6198 0.844732 23.1114C0.849004 23.603 1.0462 24.0733 1.39384 24.4209C1.74148 24.7686 2.21175 24.9658 2.70337 24.97C3.19499 24.9743 3.66862 24.7853 4.02225 24.4438L14.6291 13.8369C14.9806 13.4853 15.1781 13.0084 15.1781 12.5113C15.1781 12.0141 14.9806 11.5372 14.6291 11.1856L4.02225 0.57876C3.67063 0.227252 3.1938 0.0297852 2.69662 0.0297852C2.19944 0.0297852 1.72261 0.227252 1.371 0.57876Z" fill="black"/>
</svg>
