<svg width="15" height="26" viewBox="0 0 15 26" fill="none" xmlns="http://www.w3.org/2000/svg">
<path d="M14.1291 1.07876C14.4806 1.43037 14.678 1.9072 14.678 2.40438C14.678 2.90157 14.4806 3.3784 14.1291 3.73001L4.84781 13.0113L14.1291 22.2925C14.4706 22.6461 14.6596 23.1198 14.6553 23.6114C14.6511 24.103 14.4539 24.5733 14.1062 24.9209C13.7586 25.2686 13.2883 25.4658 12.7967 25.47C12.3051 25.4743 11.8314 25.2853 11.4778 24.9438L0.870939 14.3369C0.519431 13.9853 0.321964 13.5084 0.321964 13.0113C0.321964 12.5141 0.519431 12.0372 0.870939 11.6856L11.4778 1.07876C11.8294 0.727252 12.3063 0.529785 12.8034 0.529785C13.3006 0.529785 13.7775 0.727252 14.1291 1.07876Z" fill="#FAF3E6"/>
</svg>
