<svg width="200" height="34" viewBox="0 0 200 34" fill="none" xmlns="http://www.w3.org/2000/svg">
<path fill-rule="evenodd" clip-rule="evenodd" d="M22.9396 21.8676C22.9396 28.1671 19.0979 33.5199 11.5292 33.5199H11.4104C3.8459 33.5199 0 28.1628 0 21.8676C0 15.5681 7.50077 6.4925 7.50077 6.4925C7.50077 6.4925 10.7948 2.92677 11.4061 0.995331H11.5249C12.1277 2.92677 15.4303 6.4925 15.4303 6.4925C15.4303 6.4925 22.9396 15.5681 22.9396 21.8676ZM16.568 23.4424C16.568 26.1465 14.8615 28.4429 11.5038 28.4429H11.4486C8.09085 28.4429 6.3844 26.1465 6.3844 23.4424C6.3844 20.7427 9.71666 16.8459 9.71666 16.8459C9.71666 16.8459 11.2109 15.22 11.4486 14.3032H11.5038C11.7415 15.2158 13.2357 16.8459 13.2357 16.8459C13.2357 16.8459 16.568 20.7384 16.568 23.4424Z" fill="black"/>
<path fill-rule="evenodd" clip-rule="evenodd" d="M57.2894 21.7021C57.2894 28.0014 53.4477 33.3544 45.879 33.3544H45.756C38.1916 33.3544 34.3455 28.0014 34.3455 21.7021C34.3455 15.4026 41.8506 6.32694 41.8506 6.32694C41.8506 6.32694 45.1489 2.75697 45.756 0.829773H45.8749C46.4776 2.76121 49.7803 6.32694 49.7803 6.32694C49.7803 6.32694 57.2894 15.4026 57.2894 21.7021ZM50.9178 23.2769C50.9178 25.981 49.2114 28.2774 45.8536 28.2774H45.7984C42.4406 28.2774 40.7342 25.981 40.7342 23.2769C40.7342 20.5729 44.0665 16.676 44.0665 16.676C44.0665 16.676 45.5607 15.046 45.7984 14.1333H45.8536C46.0913 15.046 47.5855 16.676 47.5855 16.676C47.5855 16.676 50.9178 20.5729 50.9178 23.2769Z" fill="black"/>
<path fill-rule="evenodd" clip-rule="evenodd" d="M40.0211 21.8676C40.0211 28.1671 36.1796 33.5199 28.6107 33.5199H28.4876C20.9232 33.5199 17.0773 28.1628 17.0773 21.8676C17.0773 15.5681 24.5823 6.4925 24.5823 6.4925C24.5823 6.4925 27.8765 2.92677 28.4876 0.995331H28.6066C29.2093 2.92677 32.5119 6.4925 32.5119 6.4925C32.5119 6.4925 40.0211 15.5681 40.0211 21.8676ZM33.6495 23.4424C33.6495 26.1465 31.943 28.4429 28.5853 28.4429H28.5301C25.1723 28.4429 23.4658 26.1465 23.4658 23.4424C23.4658 20.7427 26.7982 16.8459 26.7982 16.8459C26.7982 16.8459 28.2924 15.22 28.5301 14.3032H28.5853C28.8229 15.2158 30.3171 16.8459 30.3171 16.8459C30.3171 16.8459 33.6495 20.7384 33.6495 23.4424Z" fill="black"/>
<path d="M65.983 4.77756H75.5426C79.2654 4.77756 82.0331 5.32941 83.8372 6.43733C85.6413 7.54525 86.5455 9.26444 86.5455 11.6034C86.5455 13.1401 86.1507 14.4517 85.3653 15.5384C84.58 16.6251 83.5401 17.3255 82.2538 17.6354V17.8222C83.956 18.2722 85.1827 19.0235 85.9469 20.072C86.7067 21.1205 87.0888 22.4831 87.0888 24.1599C87.0888 26.6432 86.1548 28.6043 84.2872 30.0348C82.4193 31.4697 79.8724 32.1828 76.6506 32.1828H65.983V4.77756ZM73.3861 15.2922H75.6148C76.6761 15.2922 77.4994 15.0715 78.081 14.6385C78.6627 14.2013 78.9512 13.5518 78.9512 12.6901C78.9512 11.1534 77.7882 10.3851 75.462 10.3851H73.3818V15.2922H73.3861ZM73.3861 20.713V26.469H75.9925C78.306 26.469 79.4606 25.497 79.4606 23.5444C79.4606 22.6317 79.1507 21.9313 78.531 21.4431C77.9112 20.9549 77.0157 20.713 75.8397 20.713H73.3861Z" fill="black"/>
<path d="M110.164 21.5152C110.164 24.9919 109.23 27.7001 107.362 29.64C105.495 31.5841 102.88 32.5562 99.5178 32.5562C96.2958 32.5562 93.7278 31.563 91.8261 29.5764C89.9201 27.5898 88.9691 24.9026 88.9691 21.5152C88.9691 18.0556 89.9031 15.3644 91.7707 13.4457C93.6386 11.527 96.2577 10.5676 99.6325 10.5676C101.721 10.5676 103.563 11.0133 105.163 11.8963C106.764 12.7835 107.999 14.0569 108.865 15.7125C109.731 17.3722 110.164 19.3079 110.164 21.5152ZM96.4064 21.5152C96.4064 23.3406 96.6481 24.7288 97.1364 25.6881C97.6245 26.6432 98.4438 27.1229 99.59 27.1229C100.728 27.1229 101.53 26.6432 102.001 25.6881C102.468 24.7328 102.706 23.3406 102.706 21.5152C102.706 19.7027 102.468 18.3358 101.993 17.4104C101.517 16.485 100.706 16.0223 99.556 16.0223C98.4311 16.0223 97.6245 16.4808 97.1364 17.3977C96.6481 18.3188 96.4064 19.6942 96.4064 21.5152Z" fill="black"/>
<path d="M126.214 32.1828V20.5984C126.214 19.1848 126.01 18.1193 125.603 17.4019C125.195 16.6845 124.546 16.3237 123.646 16.3237C122.411 16.3237 121.515 16.8161 120.967 17.8052C120.416 18.7943 120.144 20.488 120.144 22.8864V32.1828H112.813V10.9454H118.344L119.265 13.5688H119.694C120.318 12.567 121.184 11.8199 122.292 11.3189C123.395 10.8181 124.669 10.5676 126.108 10.5676C128.455 10.5676 130.285 11.2468 131.592 12.6094C132.9 13.972 133.554 15.8907 133.554 18.3613V32.1785H126.214V32.1828Z" fill="black"/>
<path d="M149.965 16.4383H145.448V32.1828H138.117V16.4383H135.307V12.8386L138.27 11.0388V10.6822C138.27 7.8848 138.843 5.87272 139.985 4.64593C141.131 3.42339 142.965 2.80788 145.49 2.80788C146.462 2.80788 147.384 2.88004 148.254 3.03286C149.12 3.18143 150.134 3.44461 151.28 3.81817L149.706 8.55973C148.806 8.30929 147.927 8.18618 147.061 8.18618C146.501 8.18618 146.089 8.35599 145.834 8.69982C145.575 9.04366 145.448 9.604 145.448 10.3766V10.9369H149.965V16.4383ZM152.698 5.66046C152.698 4.56103 153.004 3.74175 153.615 3.20266C154.226 2.66779 155.215 2.39612 156.578 2.39612C157.941 2.39612 158.934 2.67204 159.558 3.21964C160.182 3.76722 160.496 4.58225 160.496 5.65621C160.496 7.80414 159.189 8.88237 156.578 8.88237C153.993 8.88237 152.698 7.80838 152.698 5.66046ZM160.216 32.1828H152.889V10.9454H160.216V32.1828Z" fill="black"/>
<path d="M176.601 10.5718C177.238 10.5718 177.845 10.6228 178.418 10.7204L178.83 10.7968L178.176 17.7118C177.578 17.5632 176.746 17.4868 175.684 17.4868C174.084 17.4868 172.921 17.8519 172.199 18.582C171.474 19.3121 171.113 20.3691 171.113 21.7402V32.1785H163.782V10.9454H169.232L170.378 14.3371H170.735C171.346 13.2122 172.199 12.3038 173.295 11.6076C174.385 10.9157 175.489 10.5718 176.601 10.5718Z" fill="black"/>
<path d="M190.512 32.5562C186.976 32.5562 184.229 31.6182 182.273 29.7335C180.316 27.8529 179.339 25.1744 179.339 21.702C179.339 18.1151 180.248 15.3644 182.056 13.4457C183.869 11.527 186.454 10.5676 189.816 10.5676C193.016 10.5676 195.487 11.4039 197.232 13.0679C198.976 14.7361 199.847 17.1387 199.847 20.2757V23.5358H186.743C186.793 24.7244 187.226 25.6541 188.046 26.329C188.865 27.0039 189.981 27.3392 191.391 27.3392C192.677 27.3392 193.861 27.2162 194.944 26.9742C196.026 26.7322 197.198 26.3163 198.458 25.7263V30.9941C197.308 31.5801 196.119 31.9875 194.897 32.2125C193.67 32.4459 192.21 32.5562 190.512 32.5562ZM190.079 15.5554C189.217 15.5554 188.496 15.8271 187.914 16.3704C187.333 16.9138 186.993 17.767 186.891 18.9301H193.186C193.161 17.9071 192.872 17.0878 192.316 16.4765C191.764 15.861 191.017 15.5554 190.079 15.5554Z" fill="black"/>
</svg>
