<svg width="100" height="100" viewBox="0 0 100 100" fill="none" xmlns="http://www.w3.org/2000/svg">
<path d="M38.1667 45.2916C37.75 45.2499 37.25 45.2499 36.7917 45.2916C26.875 44.9583 19 36.8333 19 26.8333C19 16.6249 27.25 8.33325 37.5 8.33325C47.7083 8.33325 56 16.6249 56 26.8333C55.9583 36.8333 48.0833 44.9583 38.1667 45.2916Z" stroke="#101010" stroke-width="5" stroke-linecap="round" stroke-linejoin="round"/>
<path d="M68.3752 16.6667C76.4585 16.6667 82.9585 23.2084 82.9585 31.2501C82.9585 39.1251 76.7085 45.5417 68.9168 45.8334C68.5835 45.7917 68.2085 45.7917 67.8335 45.8334" stroke="#101010" stroke-width="5" stroke-linecap="round" stroke-linejoin="round"/>
<path d="M17.3335 60.6667C7.25016 67.4167 7.25016 78.4167 17.3335 85.1251C28.7918 92.7918 47.5835 92.7918 59.0418 85.1251C69.1252 78.3751 69.1252 67.3751 59.0418 60.6667C47.6252 53.0417 28.8335 53.0417 17.3335 60.6667Z" stroke="#101010" stroke-width="5" stroke-linecap="round" stroke-linejoin="round"/>
<path d="M76.4165 83.3333C79.4165 82.7083 82.2498 81.4999 84.5832 79.7083C91.0832 74.8333 91.0832 66.7916 84.5832 61.9166C82.2915 60.1666 79.4998 58.9999 76.5415 58.3333" stroke="#101010" stroke-width="5" stroke-linecap="round" stroke-linejoin="round"/>
</svg>
