<svg width="100" height="100" viewBox="0 0 100 100" fill="none" xmlns="http://www.w3.org/2000/svg">
<path d="M12.4998 37.5002C17.1022 37.5002 20.8332 33.7692 20.8332 29.1668C20.8332 24.5645 17.1022 20.8335 12.4998 20.8335C7.89746 20.8335 4.1665 24.5645 4.1665 29.1668C4.1665 33.7692 7.89746 37.5002 12.4998 37.5002Z" stroke="#101010" stroke-width="5" stroke-miterlimit="10" stroke-linecap="round" stroke-linejoin="round"/>
<path d="M87.4998 37.5002C92.1022 37.5002 95.8332 33.7692 95.8332 29.1668C95.8332 24.5645 92.1022 20.8335 87.4998 20.8335C82.8975 20.8335 79.1665 24.5645 79.1665 29.1668C79.1665 33.7692 82.8975 37.5002 87.4998 37.5002Z" stroke="#101010" stroke-width="5" stroke-miterlimit="10" stroke-linecap="round" stroke-linejoin="round"/>
<path d="M79.1667 29.1667H62.5" stroke="#101010" stroke-width="5" stroke-miterlimit="10" stroke-linecap="round" stroke-linejoin="round"/>
<path d="M37.4997 29.1667H20.833" stroke="#101010" stroke-width="5" stroke-miterlimit="10" stroke-linecap="round" stroke-linejoin="round"/>
<path d="M31.2498 68.75V77.0833C31.2498 79.625 29.7082 81.8333 27.5415 82.7499C26.7498 83.1249 25.9165 83.3333 24.9998 83.3333H16.6665C13.2082 83.3333 10.4165 80.5417 10.4165 77.0833V68.75C10.4165 65.2917 13.2082 62.5 16.6665 62.5H24.9998C28.4582 62.5 31.2498 65.2917 31.2498 68.75Z" stroke="#101010" stroke-width="5" stroke-miterlimit="10" stroke-linecap="round" stroke-linejoin="round"/>
<path d="M89.5833 68.75V77.0833C89.5833 80.5417 86.7917 83.3333 83.3333 83.3333H75C74.0833 83.3333 73.25 83.1249 72.4583 82.7499C70.2917 81.8333 68.75 79.625 68.75 77.0833V68.75C68.75 65.2917 71.5417 62.5 75 62.5H83.3333C86.7917 62.5 89.5833 65.2917 89.5833 68.75Z" stroke="#101010" stroke-width="5" stroke-miterlimit="10" stroke-linecap="round" stroke-linejoin="round"/>
<path d="M62.5 22.9167V35.4167C62.5 38.8334 59.6667 41.6667 56.25 41.6667H43.75C40.3333 41.6667 37.5 38.8334 37.5 35.4167V22.9167C37.5 19.5001 40.3333 16.6667 43.75 16.6667H56.25C59.6667 16.6667 62.5 19.5001 62.5 22.9167Z" stroke="#101010" stroke-width="5" stroke-miterlimit="10" stroke-linecap="round" stroke-linejoin="round"/>
<path d="M62.5 32.2083C72.375 37.2083 79.1667 47.9583 79.1667 60.4167C79.1667 61.125 79.125 61.7917 79.0417 62.5" stroke="#101010" stroke-width="5" stroke-miterlimit="10" stroke-linecap="round" stroke-linejoin="round"/>
<path d="M20.958 62.5C20.8747 61.7917 20.833 61.125 20.833 60.4167C20.833 47.9583 27.6247 37.2083 37.4997 32.2083" stroke="#101010" stroke-width="5" stroke-miterlimit="10" stroke-linecap="round" stroke-linejoin="round"/>
</svg>
