<svg width="88" height="88" viewBox="0 0 88 88" fill="none" xmlns="http://www.w3.org/2000/svg">
<rect width="88" height="88" rx="20" fill="#FAF3E6"/>
<path d="M38.5 44.2749H48.125" stroke="#ED9F00" stroke-width="2.3" stroke-miterlimit="10" stroke-linecap="round" stroke-linejoin="round"/>
<path d="M38.5 49.775H44.5225" stroke="#ED9F00" stroke-width="2.3" stroke-miterlimit="10" stroke-linecap="round" stroke-linejoin="round"/>
<path d="M41.25 35.7501H46.75C49.5 35.7501 49.5 34.3751 49.5 33.0001C49.5 30.2501 48.125 30.2501 46.75 30.2501H41.25C39.875 30.2501 38.5 30.2501 38.5 33.0001C38.5 35.7501 39.875 35.7501 41.25 35.7501Z" stroke="#ED9F00" stroke-width="2.3" stroke-miterlimit="10" stroke-linecap="round" stroke-linejoin="round"/>
<path d="M49.5 33.0275C54.0787 33.275 56.375 34.9662 56.375 41.25V49.5C56.375 55 55 57.75 48.125 57.75H39.875C33 57.75 31.625 55 31.625 49.5V41.25C31.625 34.98 33.9213 33.275 38.5 33.0275" stroke="#ED9F00" stroke-width="2.3" stroke-miterlimit="10" stroke-linecap="round" stroke-linejoin="round"/>
</svg>
