<svg width="34" height="34" viewBox="0 0 34 34" fill="none" xmlns="http://www.w3.org/2000/svg">
<path d="M11.5 17.2749H21.125" stroke="#292D32" stroke-width="2.3" stroke-miterlimit="10" stroke-linecap="round" stroke-linejoin="round"/>
<path d="M11.5 22.775H17.5225" stroke="#292D32" stroke-width="2.3" stroke-miterlimit="10" stroke-linecap="round" stroke-linejoin="round"/>
<path d="M14.25 8.75006H19.75C22.5 8.75006 22.5 7.37506 22.5 6.00006C22.5 3.25006 21.125 3.25006 19.75 3.25006H14.25C12.875 3.25006 11.5 3.25006 11.5 6.00006C11.5 8.75006 12.875 8.75006 14.25 8.75006Z" stroke="#292D32" stroke-width="2.3" stroke-miterlimit="10" stroke-linecap="round" stroke-linejoin="round"/>
<path d="M22.5 6.0275C27.0787 6.275 29.375 7.96625 29.375 14.25V22.5C29.375 28 28 30.75 21.125 30.75H12.875C6 30.75 4.625 28 4.625 22.5V14.25C4.625 7.98 6.92125 6.275 11.5 6.0275" stroke="#292D32" stroke-width="2.3" stroke-miterlimit="10" stroke-linecap="round" stroke-linejoin="round"/>
</svg>
