<svg width="17" height="16" viewBox="0 0 17 16" fill="none" xmlns="http://www.w3.org/2000/svg">
<path fill-rule="evenodd" clip-rule="evenodd" d="M16.6111 8C16.6111 3.58207 13.029 0 8.61108 0C4.19315 0 0.611084 3.58207 0.611084 8C0.611084 11.9927 3.53616 15.3024 7.36121 15.9033V10.3131H5.32941V8H7.36121V6.23708C7.36121 4.23228 8.55596 3.12414 10.383 3.12414C11.2582 3.12414 12.174 3.28051 12.174 3.28051V5.24932H11.1649C10.1715 5.24932 9.86096 5.86583 9.86096 6.4992V7.99993H12.0794L11.7251 10.313H9.8609V15.9032C13.686 15.3036 16.611 11.9938 16.611 7.99993L16.6111 8Z" fill="#1977F3"/>
<path fill-rule="evenodd" clip-rule="evenodd" d="M11.7251 10.313L12.0795 7.99994H9.86102V6.49921C9.86102 5.86696 10.1704 5.24933 11.1649 5.24933H12.1741V3.28052C12.1741 3.28052 11.2584 3.12415 10.383 3.12415C8.55603 3.12415 7.36128 4.23119 7.36128 6.23709V8.00001H5.32947V10.3131H7.36128V15.9033C7.76851 15.9673 8.18589 16 8.61116 16C9.03641 16 9.45379 15.9662 9.86102 15.9033V10.3131H11.7252L11.7251 10.313Z" fill="#FEFEFE"/>
</svg>
