<svg width="200" height="48" viewBox="0 0 200 48" fill="none" xmlns="http://www.w3.org/2000/svg">
<path d="M23.3103 30.0143V1.98474H32.2666V28.8604C32.2666 30.7523 32.6743 31.2143 34.5733 31.2143H35.3437L36.3981 38.6302C35.7199 38.722 32.945 38.9237 31.2713 38.9237C26.3406 38.9237 23.3103 37.1696 23.3103 30.0143Z" fill="black"/>
<path d="M110.688 25.9063C110.688 22.8143 110.145 20.0907 106.255 20.0907C102.094 20.0907 100.871 22.2604 100.871 25.9063C100.871 29.5522 101.777 31.5379 106.255 31.5379C110.055 31.5379 110.688 28.9983 110.688 25.9063ZM91.915 12.894L98.8801 12.3398L99.5603 14.4588C100.962 13.1191 103.405 11.7811 108.652 11.7811C117.7 11.7811 119.779 18.2905 119.779 25.5363C119.779 32.8298 117.473 39.2471 108.109 39.2471C103.948 39.2471 102.003 38.2774 100.872 37.2155V46.4468H91.9153L91.915 12.894Z" fill="black"/>
<path d="M151.733 12.8941L158.698 12.3398L159.604 15.1049C160.735 13.535 163.856 12.197 167.566 12.0589V20.8555C161.595 20.9001 160.689 22.7206 160.689 26.3221V38.8312H151.733V12.8941Z" fill="black"/>
<path d="M170.064 12.0737H174.677L176.124 6.70412L183.046 5.18018V12.0737H188.7V20.8656H183.046V28.4924C183.046 30.2924 183.318 31.2145 186.121 31.2145H188.7V38.8302C187.343 38.922 185.85 38.9686 184.176 38.9686C176.622 38.9686 174.134 36.5227 174.134 29.8768V20.8658H170.064V12.0737Z" fill="black"/>
<path d="M198.642 38.8253H191.182V31.2129H198.642V38.8253Z" fill="black"/>
<path d="M1.18063 12.3815H6.06473V11.8737C6.06473 5.2278 8.50838 1.9025 16.9218 1.9025C19.1383 1.9025 19.5443 1.94721 20.6299 2.0418V9.47324H18.1428C15.5654 9.47324 15.0226 10.1194 15.0226 11.8273V12.3815H20.6299V20.1353H15.0226V38.8298H6.06473V20.1353H1.18063V12.3815Z" fill="black"/>
<path d="M50.4248 19.2778C54.1114 19.2778 54.3818 21.0668 54.5157 23.2239H45.2997C45.6593 20.7 46.8287 19.2778 50.4248 19.2778ZM55.8938 30.9379C54.413 31.8223 53.6492 32.0204 50.6938 32.0204C47.188 32.0204 45.8394 30.7473 45.3899 28.5918H62.6085C62.9228 19.2778 62.159 11.7542 50.6938 11.7542C39.185 11.7542 36.757 18.2223 36.757 25.4254C36.757 32.8125 39.185 39.3155 50.6938 39.3155C55.2326 39.3155 58.0948 38.4569 61.1326 36.4426L55.8938 30.9379Z" fill="black"/>
<path d="M80.3668 38.8419L75.9743 32.4358L71.5831 38.8419H61.5707L70.9436 25.2154L62.4309 12.9029L72.5521 12.8951L76.0176 17.9203L79.4863 12.8965L89.7195 12.9029L81.0449 25.1551L90.4459 38.8419H80.3668Z" fill="black"/>
<path d="M140.723 25.814C140.723 22.4902 139.909 20.0903 135.702 20.0903C131.496 20.0903 130.681 22.4902 130.681 25.814C130.681 29.0917 131.496 31.5376 135.702 31.5376C139.909 31.5376 140.723 29.0917 140.723 25.814ZM121.634 25.5364C121.634 16.7685 125.57 11.7812 135.702 11.7812C145.834 11.7812 149.724 16.7685 149.724 25.5364C149.724 34.3077 145.834 39.3393 135.702 39.3393C125.57 39.3393 121.634 34.3077 121.634 25.5364Z" fill="black"/>
</svg>
