<svg width="103" height="28" viewBox="0 0 103 28" fill="none" xmlns="http://www.w3.org/2000/svg">
<path d="M9.02 4.84004L3.63 9.04004C2.73 9.74004 2 11.23 2 12.36V19.77C2 22.09 3.89 23.99 6.21 23.99H17.79C20.11 23.99 22 22.09 22 19.78V12.5C22 11.29 21.19 9.74004 20.2 9.05004L14.02 4.72004C12.62 3.74004 10.37 3.79004 9.02 4.84004Z" stroke="#F9F9F9" stroke-width="1.5" stroke-linecap="round" stroke-linejoin="round"/>
<path d="M12 19.99V16.99" stroke="#F9F9F9" stroke-width="1.5" stroke-linecap="round" stroke-linejoin="round"/>
<path d="M55.28 7.06V21H53.46V14.68H46.36V21H44.54V7.06H46.36V13.18H53.46V7.06H55.28ZM63.1677 21.18C62.141 21.18 61.2077 20.9467 60.3677 20.48C59.541 20.0133 58.8877 19.3533 58.4077 18.5C57.941 17.6333 57.7077 16.6333 57.7077 15.5C57.7077 14.38 57.9477 13.3933 58.4277 12.54C58.921 11.6733 59.5877 11.0133 60.4277 10.56C61.2677 10.0933 62.2077 9.86 63.2477 9.86C64.2877 9.86 65.2277 10.0933 66.0677 10.56C66.9077 11.0133 67.5677 11.6667 68.0477 12.52C68.541 13.3733 68.7877 14.3667 68.7877 15.5C68.7877 16.6333 68.5343 17.6333 68.0277 18.5C67.5343 19.3533 66.861 20.0133 66.0077 20.48C65.1543 20.9467 64.2077 21.18 63.1677 21.18ZM63.1677 19.58C63.821 19.58 64.4343 19.4267 65.0077 19.12C65.581 18.8133 66.041 18.3533 66.3877 17.74C66.7477 17.1267 66.9277 16.38 66.9277 15.5C66.9277 14.62 66.7543 13.8733 66.4077 13.26C66.061 12.6467 65.6077 12.1933 65.0477 11.9C64.4877 11.5933 63.881 11.44 63.2277 11.44C62.561 11.44 61.9477 11.5933 61.3877 11.9C60.841 12.1933 60.401 12.6467 60.0677 13.26C59.7343 13.8733 59.5677 14.62 59.5677 15.5C59.5677 16.3933 59.7277 17.1467 60.0477 17.76C60.381 18.3733 60.821 18.8333 61.3677 19.14C61.9143 19.4333 62.5143 19.58 63.1677 19.58ZM84.3606 9.84C85.214 9.84 85.974 10.02 86.6406 10.38C87.3073 10.7267 87.834 11.2533 88.2206 11.96C88.6073 12.6667 88.8006 13.5267 88.8006 14.54V21H87.0006V14.8C87.0006 13.7067 86.7273 12.8733 86.1806 12.3C85.6473 11.7133 84.9206 11.42 84.0006 11.42C83.054 11.42 82.3006 11.7267 81.7406 12.34C81.1806 12.94 80.9006 13.8133 80.9006 14.96V21H79.1006V14.8C79.1006 13.7067 78.8273 12.8733 78.2806 12.3C77.7473 11.7133 77.0206 11.42 76.1006 11.42C75.154 11.42 74.4006 11.7267 73.8406 12.34C73.2806 12.94 73.0006 13.8133 73.0006 14.96V21H71.1806V10.04H73.0006V11.62C73.3606 11.0467 73.8406 10.6067 74.4406 10.3C75.054 9.99333 75.7273 9.84 76.4606 9.84C77.3806 9.84 78.194 10.0467 78.9006 10.46C79.6073 10.8733 80.134 11.48 80.4806 12.28C80.7873 11.5067 81.294 10.9067 82.0006 10.48C82.7073 10.0533 83.494 9.84 84.3606 9.84ZM101.786 15.1C101.786 15.4467 101.766 15.8133 101.726 16.2H92.9661C93.0328 17.28 93.3994 18.1267 94.0661 18.74C94.7461 19.34 95.5661 19.64 96.5261 19.64C97.3128 19.64 97.9661 19.46 98.4861 19.1C99.0194 18.7267 99.3928 18.2333 99.6061 17.62H101.566C101.273 18.6733 100.686 19.5333 99.8061 20.2C98.9261 20.8533 97.8328 21.18 96.5261 21.18C95.4861 21.18 94.5528 20.9467 93.7261 20.48C92.9128 20.0133 92.2728 19.3533 91.8061 18.5C91.3394 17.6333 91.1061 16.6333 91.1061 15.5C91.1061 14.3667 91.3328 13.3733 91.7861 12.52C92.2394 11.6667 92.8728 11.0133 93.6861 10.56C94.5128 10.0933 95.4594 9.86 96.5261 9.86C97.5661 9.86 98.4861 10.0867 99.2861 10.54C100.086 10.9933 100.699 11.62 101.126 12.42C101.566 13.2067 101.786 14.1 101.786 15.1ZM99.9061 14.72C99.9061 14.0267 99.7528 13.4333 99.4461 12.94C99.1394 12.4333 98.7194 12.0533 98.1861 11.8C97.6661 11.5333 97.0861 11.4 96.4461 11.4C95.5261 11.4 94.7394 11.6933 94.0861 12.28C93.4461 12.8667 93.0794 13.68 92.9861 14.72H99.9061Z" fill="#F9F9F9"/>
</svg>
