<svg width="101" height="100" viewBox="0 0 101 100" fill="none" xmlns="http://www.w3.org/2000/svg">
<path d="M64.6253 27.0415L70.5002 38.7915C71.2919 40.4165 73.4169 41.9581 75.2086 42.2915L85.8337 44.0414C92.6253 45.1664 94.2087 50.0831 89.3337 54.9998L81.0419 63.2915C79.6669 64.6665 78.8753 67.3748 79.3337 69.3331L81.7086 79.5832C83.5836 87.6665 79.2503 90.8331 72.1253 86.5831L62.1669 80.6665C60.3752 79.5832 57.3753 79.5832 55.5836 80.6665L45.6252 86.5831C38.5002 90.7915 34.1669 87.6665 36.0419 79.5832L38.417 69.3331C38.8753 67.4165 38.0836 64.7082 36.7086 63.2915L28.417 54.9998C23.542 50.1248 25.1253 45.2081 31.917 44.0414L42.5419 42.2915C44.3336 41.9998 46.4586 40.4165 47.2503 38.7915L53.1253 27.0415C56.2503 20.6665 61.417 20.6665 64.6253 27.0415Z" stroke="#101010" stroke-width="5" stroke-linecap="round" stroke-linejoin="round"/>
<path d="M33.8335 26.1665H8.8335" stroke="#101010" stroke-width="5" stroke-linecap="round" stroke-linejoin="round"/>
<path d="M21.3335 84.5H8.8335" stroke="#101010" stroke-width="5" stroke-linecap="round" stroke-linejoin="round"/>
<path d="M13.0002 55.3333H8.8335" stroke="#101010" stroke-width="5" stroke-linecap="round" stroke-linejoin="round"/>
</svg>
