<svg width="17" height="16" viewBox="0 0 17 16" fill="none" xmlns="http://www.w3.org/2000/svg">
<path d="M8.61807 3.92364C8.47737 3.92364 8.3382 3.93082 8.20109 3.94486C8.06398 3.95891 7.92876 3.97972 7.79585 4.00703C7.66293 4.03435 7.53238 4.06818 7.40444 4.10812L7.02892 4.246L6.6714 4.41863L6.33402 4.62392L6.01879 4.85971L5.7279 5.12394L5.46341 5.41457L5.22737 5.72945L5.02182 6.06652L4.84909 6.42363C4.79717 6.54577 4.75098 6.67101 4.711 6.79884C4.67102 6.92667 4.63719 7.05717 4.60981 7.18994C4.58244 7.3227 4.56163 7.45775 4.54753 7.59477C4.53344 7.73178 4.52637 7.8708 4.52637 8.01134C4.52637 8.15188 4.53354 8.29089 4.54753 8.42791C4.56146 8.56384 4.58223 8.69897 4.60981 8.83279C4.63719 8.96606 4.67102 9.09605 4.711 9.2239C4.75098 9.35173 4.79711 9.47691 4.84909 9.5991L5.02182 9.95622L5.22737 10.2932L5.46341 10.6082L5.7279 10.8988L6.01879 11.1631L6.33402 11.3988L6.6714 11.6041L7.02892 11.7767L7.40444 11.9146L7.79585 12.0157C7.92979 12.0433 8.06505 12.0641 8.20109 12.078C8.33963 12.0921 8.47881 12.0992 8.61807 12.0991C8.75877 12.0991 8.89793 12.092 9.035 12.078C9.17104 12.0641 9.3063 12.0433 9.44025 12.0157L9.8317 11.9146L10.2072 11.7767L10.5647 11.6041L10.9021 11.3988L11.2173 11.1631L11.5083 10.8988L11.7728 10.6082L12.0088 10.2932L12.2144 9.95622L12.3872 9.5991L12.5252 9.2239C12.5652 9.09605 12.599 8.96555 12.6264 8.83279L12.6886 8.42786C12.7027 8.29085 12.7098 8.15184 12.7098 8.01128C12.7098 7.87074 12.7027 7.73173 12.6886 7.59472C12.6747 7.45881 12.6539 7.32369 12.6264 7.18988C12.599 7.05662 12.5652 6.92667 12.5252 6.79878L12.3872 6.42358L12.2144 6.06646L12.0088 5.7294L11.7728 5.41452L11.5083 5.12388L11.2173 4.85965L10.9021 4.62387L10.5647 4.41858L10.2072 4.24595L9.8317 4.10806L9.44025 4.00698L9.035 3.94481C8.89648 3.93066 8.75731 3.92363 8.61807 3.92364ZM8.61807 5.33456C8.7111 5.33456 8.8029 5.33917 8.89332 5.3483L9.15987 5.38864L9.41733 5.45424L9.66388 5.5438L9.89828 5.65605L10.1187 5.78957L10.3247 5.9432L10.5147 6.11552L10.6872 6.30527L10.841 6.51113L10.9746 6.73184L11.0869 6.9661C11.1206 7.04626 11.1506 7.12843 11.1766 7.21244C11.2026 7.29645 11.2245 7.38231 11.2422 7.46975C11.2599 7.5572 11.273 7.64618 11.2825 7.73655L11.2963 8.01159C11.2963 8.10453 11.2917 8.19627 11.2825 8.2867C11.2734 8.37712 11.26 8.4661 11.2422 8.5535C11.2244 8.64088 11.2025 8.72674 11.1766 8.81081L11.0869 9.05715L10.9746 9.2914L10.841 9.51206L10.6872 9.71796L10.5147 9.90772L10.3247 10.0801L10.1187 10.2337L9.89828 10.3672L9.66388 10.4795L9.41733 10.569L9.15987 10.6346L8.89332 10.6749C8.80184 10.6841 8.70996 10.6887 8.61802 10.6886C8.52606 10.6887 8.43416 10.6841 8.34267 10.6749L8.07612 10.6346C7.98862 10.6169 7.90271 10.5949 7.8186 10.569L7.57206 10.4795L7.33766 10.3672L7.11725 10.2337L6.91119 10.0801L6.72122 9.90772L6.54875 9.71796L6.39497 9.51206L6.26129 9.2914L6.14903 9.05715L6.05933 8.81081L5.99372 8.5535L5.95339 8.2867C5.94421 8.19528 5.93962 8.10347 5.93965 8.01159C5.93962 7.91974 5.94421 7.82794 5.95339 7.73655C5.96246 7.64618 5.97593 7.55714 5.99372 7.46975C6.01133 7.38296 6.03324 7.2971 6.05939 7.21248L6.14909 6.96614L6.26134 6.7319L6.39502 6.51118L6.54879 6.30533L6.72128 6.11557L6.91123 5.94324L7.11729 5.78963L7.3377 5.6561L7.5721 5.54384C7.65278 5.50996 7.73509 5.48007 7.8187 5.4543L8.07622 5.38868C8.16372 5.37095 8.25281 5.35742 8.34277 5.34835C8.43427 5.33918 8.52611 5.33455 8.61807 5.33456Z" fill="url(#paint0_radial_728_13308)"/>
<path d="M12.8757 2.76086C12.8433 2.76086 12.8108 2.76251 12.7785 2.76579C12.7461 2.76905 12.714 2.77394 12.6821 2.78044C12.6504 2.78694 12.6188 2.79503 12.5878 2.80469C12.5567 2.81435 12.5263 2.82558 12.4963 2.83831C12.4664 2.85106 12.4371 2.86532 12.4086 2.88101C12.38 2.89668 12.3524 2.91376 12.3256 2.93222C12.2987 2.95069 12.2728 2.9705 12.248 2.99158C12.2231 3.01263 12.1994 3.03492 12.1767 3.05836C12.1541 3.08182 12.1327 3.10641 12.1125 3.13202C12.0923 3.15764 12.0734 3.18425 12.0558 3.21178C12.0383 3.23928 12.0221 3.26764 12.0074 3.29676C11.9927 3.32591 11.9794 3.35578 11.9676 3.38626C11.9558 3.41673 11.9456 3.44779 11.9368 3.47929C11.9281 3.5108 11.921 3.54272 11.9156 3.57494C11.91 3.60715 11.9061 3.63962 11.9038 3.67223C11.9021 3.69532 11.9014 3.71848 11.9014 3.74163C11.9014 3.77434 11.9029 3.80703 11.9063 3.83959C11.9095 3.87212 11.9144 3.90446 11.9208 3.93651C11.9273 3.96855 11.9353 4.00025 11.9448 4.03149C11.9545 4.06273 11.9656 4.09348 11.9783 4.1236C11.9909 4.15373 12.005 4.18321 12.0207 4.21192C12.0363 4.24062 12.0533 4.26852 12.0716 4.29552C12.0899 4.3225 12.1096 4.34853 12.1305 4.37353C12.1515 4.39855 12.1736 4.42251 12.1969 4.4453C12.2203 4.46808 12.2446 4.48966 12.2701 4.50999C12.2956 4.53032 12.322 4.54935 12.3494 4.56703C12.3767 4.58471 12.4049 4.601 12.4338 4.61583C12.4628 4.63068 12.4925 4.64405 12.5227 4.65591C12.553 4.66776 12.5838 4.67808 12.6151 4.68682C12.6465 4.69555 12.6781 4.70271 12.7101 4.70824C12.7421 4.71381 12.7745 4.71776 12.8068 4.72009C12.8298 4.72173 12.8528 4.72254 12.8758 4.72255C12.9083 4.72255 12.9408 4.72093 12.9731 4.71768C13.0054 4.71441 13.0376 4.70952 13.0694 4.70302C13.1013 4.69653 13.1327 4.68843 13.1638 4.67878C13.1948 4.66911 13.2254 4.65789 13.2553 4.64515C13.2851 4.63241 13.3145 4.61818 13.3429 4.6025C13.3715 4.58682 13.3991 4.56971 13.426 4.55124C13.4528 4.53279 13.4787 4.513 13.5036 4.49194C13.5284 4.47086 13.5521 4.44856 13.5748 4.4251C13.5975 4.40164 13.6189 4.37705 13.639 4.35144C13.6593 4.32582 13.6781 4.29921 13.6957 4.27169C13.7133 4.24418 13.7295 4.21579 13.7441 4.18665C13.7589 4.1575 13.7723 4.12763 13.784 4.09715C13.7958 4.06668 13.806 4.03563 13.8147 4.00412C13.8234 3.97262 13.8305 3.9407 13.836 3.90848C13.8416 3.87626 13.8455 3.84379 13.8477 3.81119C13.8494 3.78809 13.8503 3.76494 13.8503 3.74179C13.8503 3.70909 13.8486 3.67641 13.8454 3.64388C13.8421 3.61134 13.8373 3.579 13.8308 3.54695C13.8244 3.51491 13.8163 3.48321 13.8067 3.45198C13.797 3.42073 13.7859 3.38999 13.7733 3.35986C13.7606 3.32973 13.7465 3.30025 13.7309 3.27154C13.7154 3.24284 13.6984 3.21494 13.68 3.18794C13.6616 3.16094 13.6419 3.1349 13.621 3.10988C13.6 3.08486 13.5779 3.06091 13.5547 3.03812C13.5314 3.01534 13.5069 2.99375 13.4815 2.97343C13.456 2.95311 13.4296 2.93409 13.4023 2.91643C13.3749 2.89875 13.3467 2.88246 13.3177 2.86763C13.2887 2.85279 13.259 2.83941 13.2288 2.82755C13.1986 2.8157 13.1677 2.80539 13.1364 2.79664C13.1051 2.78789 13.0734 2.78072 13.0414 2.77516C13.0094 2.76962 12.9771 2.76568 12.9447 2.76338C12.9217 2.76173 12.8987 2.76086 12.8757 2.76086Z" fill="url(#paint1_radial_728_13308)"/>
<path d="M7.84219 0.0144313C7.39717 0.0137136 7.00003 0.0155588 6.64327 0.020582L5.6868 0.0462109C5.40345 0.0585126 5.1531 0.0745552 4.92839 0.0953146C4.81604 0.105669 4.71004 0.117253 4.60957 0.130016C4.51396 0.142066 4.41863 0.156097 4.3236 0.172099C4.23313 0.187477 4.14727 0.204084 4.06495 0.222126C3.98264 0.240169 3.904 0.259647 3.82814 0.280561C3.75398 0.301011 3.68039 0.323505 3.60748 0.348016C3.53603 0.372107 3.46631 0.397634 3.39747 0.424903C3.25979 0.479442 3.1255 0.540642 2.9872 0.609225C2.88079 0.662021 2.78248 0.715482 2.68909 0.772071C2.5957 0.828659 2.50723 0.888426 2.4206 0.953524C2.33139 1.02089 2.2454 1.09242 2.16294 1.16789C2.07671 1.24641 1.98866 1.33278 1.89716 1.4293C1.78219 1.54991 1.68229 1.66237 1.59361 1.77272C1.54927 1.82788 1.50775 1.88242 1.46865 1.93727C1.42997 1.99131 1.39299 2.04657 1.35777 2.10292C1.32292 2.1588 1.28991 2.2157 1.25833 2.27423C1.22627 2.33378 1.19596 2.39425 1.16745 2.45558C1.10912 2.58086 1.05469 2.71577 1.00035 2.86637C0.960047 2.97769 0.923953 3.09051 0.892149 3.20455C0.859704 3.32112 0.830846 3.44307 0.805114 3.57494C0.779383 3.70683 0.756932 3.84867 0.737197 4.00551C0.715932 4.17744 0.698943 4.34988 0.686247 4.52266C0.671895 4.71261 0.660003 4.92164 0.650264 5.1543L0.627199 5.92789L0.614794 6.87088L0.611206 8.01069L0.621714 9.66821L0.654519 10.924L0.679789 11.4145L0.711364 11.8211C0.721485 11.9306 0.734149 12.0399 0.749346 12.1489C0.763185 12.2456 0.77805 12.3303 0.794043 12.4036C0.826493 12.5526 0.864864 12.7003 0.909065 12.8463C0.951387 12.9861 0.999786 13.1239 1.05412 13.2594C1.10753 13.3922 1.16597 13.5202 1.22953 13.6434C1.29309 13.7666 1.36177 13.8851 1.43558 13.9989C1.5094 14.1125 1.58833 14.2216 1.6726 14.3261C1.75677 14.4305 1.8463 14.5304 1.94084 14.6256C2.0355 14.721 2.13536 14.8116 2.24059 14.8979C2.34706 14.9851 2.45775 15.0671 2.57223 15.1434C2.67848 15.2144 2.78361 15.2795 2.88951 15.3392C2.9954 15.399 3.10223 15.4531 3.21203 15.5024C3.32181 15.5516 3.43438 15.596 3.55197 15.6359C3.66955 15.6757 3.79206 15.7112 3.92154 15.7426C4.05101 15.7742 4.18807 15.8017 4.33314 15.8259C4.47819 15.85 4.63325 15.8706 4.79891 15.8884C4.96458 15.9062 5.14131 15.9209 5.33123 15.9332C5.52114 15.9455 5.72411 15.9553 5.94221 15.9632C6.27914 15.9754 6.78915 15.9825 7.37728 15.9853L9.28125 15.9814L11.0842 15.9562L11.7697 15.9369L12.2163 15.914C12.3122 15.9061 12.406 15.8969 12.4965 15.8861C12.5871 15.8753 12.6763 15.863 12.7633 15.8489C12.8502 15.8349 12.9352 15.8192 13.0186 15.8017C13.1012 15.7845 13.1833 15.7653 13.2648 15.7442C13.3456 15.7236 13.4253 15.7003 13.5042 15.6755C13.583 15.6509 13.6611 15.6241 13.7386 15.5953C13.8166 15.5664 13.8938 15.5356 13.9704 15.5031C14.0474 15.4702 14.1243 15.4352 14.2015 15.398C14.3201 15.3409 14.4155 15.2932 14.4993 15.2467C14.5782 15.2035 14.6541 15.1552 14.7266 15.102C14.7982 15.0493 14.8693 14.9893 14.9513 14.9137C15.0333 14.8382 15.1263 14.7472 15.2413 14.6321C15.3425 14.531 15.4277 14.4431 15.5013 14.3632C15.5748 14.2833 15.6368 14.2114 15.6912 14.1421C15.743 14.0763 15.7912 14.0079 15.8357 13.937C15.8792 13.8677 15.9192 13.7959 15.9598 13.7162C16.0212 13.5963 16.0757 13.4852 16.1245 13.378C16.172 13.2747 16.2153 13.1695 16.2544 13.0629C16.293 12.957 16.3264 12.8493 16.3545 12.7402C16.3834 12.628 16.4083 12.5094 16.4298 12.3794C16.4513 12.2494 16.4695 12.108 16.4853 11.95C16.5011 11.7921 16.5145 11.6174 16.5263 11.4213L16.5576 10.7628L16.5844 9.94382L16.6036 9.03143L16.611 8.07743L16.5938 6.2037L16.571 5.36445L16.5397 4.64388L16.5007 4.08209C16.4866 3.92576 16.4713 3.80263 16.4552 3.71939C16.4372 3.62741 16.4172 3.53587 16.3951 3.4448C16.3735 3.3562 16.3498 3.26813 16.3241 3.18068C16.299 3.09547 16.2716 3.01091 16.2422 2.9271C16.2131 2.84432 16.1822 2.76328 16.1498 2.68399C16.1176 2.60469 16.0826 2.52724 16.0463 2.45143C16.0098 2.37562 15.9717 2.30165 15.9317 2.22938C15.8916 2.15711 15.85 2.08663 15.8063 2.01789C15.7627 1.94916 15.7173 1.88215 15.67 1.81695C15.623 1.75197 15.5738 1.68847 15.5228 1.62653C15.4721 1.56495 15.4194 1.50499 15.3648 1.44672C15.3104 1.38854 15.2541 1.3321 15.1961 1.27748C15.138 1.22283 15.0782 1.16993 15.0165 1.11878C14.9545 1.06745 14.8911 1.01807 14.826 0.970695C14.7603 0.922836 14.6932 0.876992 14.6246 0.833223C14.5552 0.788831 14.4845 0.746507 14.4125 0.706307C14.3394 0.665435 14.265 0.626667 14.1896 0.590055C14.0644 0.529212 13.9486 0.475238 13.8351 0.427364C13.7233 0.379851 13.6094 0.337652 13.4937 0.300911C13.3774 0.264261 13.2563 0.232841 13.1231 0.205725C12.9897 0.178609 12.8444 0.156005 12.68 0.136783C12.5155 0.117562 12.3318 0.102031 12.1217 0.0891139C11.9117 0.0761969 11.6754 0.0660471 11.4057 0.0578459L10.4889 0.0373431L9.32856 0.0236573L7.8427 0.014533L7.84219 0.0144313ZM8.61387 1.42412L10.7566 1.43632L11.5649 1.4519C11.7875 1.45816 11.9574 1.46549 12.057 1.47394C12.1867 1.48487 12.3102 1.49854 12.4284 1.51496C12.5417 1.53061 12.6546 1.55008 12.7666 1.57333C12.8743 1.59589 12.977 1.62151 13.0753 1.65042C13.1735 1.67933 13.2674 1.71173 13.3574 1.74756C13.4475 1.78339 13.5336 1.8228 13.6165 1.86597C13.6987 1.9088 13.7786 1.95593 13.8558 2.00718C13.9327 2.05818 14.0068 2.11313 14.0788 2.17233C14.1507 2.23153 14.2205 2.29499 14.2886 2.36286C14.3606 2.43447 14.427 2.5074 14.4881 2.58264C14.549 2.65743 14.6054 2.73581 14.6568 2.81736C14.709 2.90007 14.7558 2.98592 14.7974 3.07441C14.8398 3.16463 14.878 3.25997 14.9122 3.3613C14.9465 3.46264 14.977 3.57033 15.004 3.68541C15.0323 3.80741 15.056 3.93043 15.0751 4.05421C15.0955 4.18543 15.1131 4.32537 15.128 4.47519C15.1427 4.62501 15.1551 4.78479 15.1652 4.95573C15.1733 5.09284 15.1804 5.27379 15.1864 5.48748L15.2014 6.21611L15.2128 8.0009L15.1998 9.784L15.1842 10.5105L15.1625 11.0389C15.1476 11.2864 15.1318 11.4944 15.113 11.6754C15.1035 11.766 15.0932 11.8497 15.0818 11.9283C15.0712 12.0025 15.0585 12.0764 15.044 12.15C15.0306 12.2171 15.0152 12.2837 14.9975 12.35C14.9807 12.413 14.9617 12.4755 14.9407 12.5374C14.9195 12.5995 14.8965 12.661 14.8716 12.7216C14.8453 12.7859 14.8175 12.8493 14.7883 12.9122C14.7623 12.9683 14.735 13.023 14.7061 13.0761C14.6775 13.1287 14.6471 13.1803 14.6151 13.2309C14.5833 13.281 14.55 13.3296 14.5151 13.3767C14.4804 13.4236 14.4441 13.4693 14.4061 13.5136C14.3683 13.5579 14.3288 13.6005 14.2878 13.6419C14.2468 13.6831 14.2043 13.7229 14.1602 13.7613C14.1162 13.7997 14.0704 13.8367 14.0231 13.8723C13.9758 13.9079 13.9268 13.942 13.8763 13.9746C13.8256 14.0074 13.7735 14.0387 13.7196 14.0687C13.6657 14.0986 13.6102 14.1272 13.5531 14.1544C13.4948 14.1821 13.436 14.208 13.3762 14.2321C13.3145 14.257 13.2522 14.2801 13.1892 14.3015C13.061 14.3452 12.9258 14.3835 12.7835 14.4165C12.6353 14.4509 12.4856 14.4789 12.335 14.5005C12.277 14.509 12.1438 14.517 11.9532 14.5243L11.2266 14.5445L9.16654 14.5713L7.01033 14.5746L6.16355 14.5656L5.6137 14.5485L5.20826 14.52C5.08237 14.5094 4.96529 14.4976 4.8556 14.4842C4.74591 14.4709 4.64376 14.456 4.54765 14.4391C4.45657 14.4234 4.36605 14.4045 4.27624 14.3827C4.19435 14.3629 4.11329 14.3396 4.03328 14.3132C3.95614 14.2875 3.88237 14.2593 3.81061 14.2283C3.73885 14.1973 3.66914 14.1633 3.60009 14.1262C3.53105 14.0891 3.46273 14.0489 3.39363 14.0049C3.3415 13.9717 3.29111 13.9382 3.24263 13.9027C3.19414 13.8672 3.14728 13.8317 3.10218 13.7946C3.05707 13.7575 3.01376 13.7193 2.97198 13.68C2.93048 13.6407 2.89041 13.6001 2.85184 13.5581C2.81339 13.5161 2.77664 13.473 2.74137 13.4283C2.70597 13.3834 2.67224 13.3372 2.64025 13.2899C2.60777 13.2417 2.57705 13.1925 2.54814 13.1423C2.51891 13.0915 2.49114 13.0391 2.46474 12.9849C2.43789 12.9297 2.41285 12.8737 2.38965 12.817C2.36607 12.7591 2.34371 12.6994 2.3227 12.6379C2.28067 12.5145 2.24377 12.3833 2.21168 12.2434C2.17959 12.1035 2.15221 11.9549 2.12905 11.7964C2.10588 11.6381 2.08723 11.4701 2.07236 11.2916C2.06139 11.1602 2.05268 10.9554 2.04601 10.6971L2.03207 9.77827L2.03719 7.43604L2.07754 5.19792L2.10829 4.40938L2.12571 4.14872C2.13177 4.07912 2.13803 4.02755 2.14443 3.99659C2.16555 3.89474 2.18681 3.79997 2.2088 3.71124C2.22935 3.62753 2.2522 3.54442 2.27734 3.46198C2.30123 3.38417 2.32639 3.31128 2.3533 3.24223C2.37925 3.17534 2.40817 3.10966 2.43998 3.04536C2.47104 2.98282 2.50441 2.92294 2.54065 2.86467C2.57689 2.80639 2.616 2.74986 2.65865 2.69362C2.70129 2.63739 2.74721 2.58188 2.79719 2.5256C2.84717 2.46932 2.90115 2.41248 2.95968 2.35389C3.0279 2.28528 3.09894 2.21952 3.1726 2.1568C3.24217 2.09762 3.3147 2.04203 3.38994 1.99027C3.4639 1.939 3.53977 1.89339 3.61876 1.85146C3.69775 1.80953 3.77986 1.77164 3.86623 1.73757C3.95259 1.70348 4.04333 1.67298 4.13943 1.6453C4.2404 1.61698 4.34249 1.59281 4.44544 1.57287C4.55369 1.55166 4.66867 1.53314 4.79143 1.517C4.91419 1.50085 5.04479 1.48691 5.18443 1.47481C5.28181 1.46641 5.44963 1.45892 5.6706 1.45262L6.47484 1.43673L8.61424 1.42366L8.61387 1.42412Z" fill="url(#paint2_radial_728_13308)"/>
<defs>
<radialGradient id="paint0_radial_728_13308" cx="0" cy="0" r="1" gradientUnits="userSpaceOnUse" gradientTransform="translate(3.16019 17.1495) rotate(-9.53101) scale(33.8153 20.5257)">
<stop stop-color="#FED576"/>
<stop offset="0.263" stop-color="#F47133"/>
<stop offset="0.609" stop-color="#BC3081"/>
<stop offset="1" stop-color="#4C63D2"/>
</radialGradient>
<radialGradient id="paint1_radial_728_13308" cx="0" cy="0" r="1" gradientUnits="userSpaceOnUse" gradientTransform="translate(3.16021 17.1496) rotate(-9.53102) scale(33.8153 20.5257)">
<stop stop-color="#FED576"/>
<stop offset="0.263" stop-color="#F47133"/>
<stop offset="0.609" stop-color="#BC3081"/>
<stop offset="1" stop-color="#4C63D2"/>
</radialGradient>
<radialGradient id="paint2_radial_728_13308" cx="0" cy="0" r="1" gradientUnits="userSpaceOnUse" gradientTransform="translate(3.16025 17.1495) rotate(-9.53101) scale(33.8153 20.5257)">
<stop stop-color="#FED576"/>
<stop offset="0.263" stop-color="#F47133"/>
<stop offset="0.609" stop-color="#BC3081"/>
<stop offset="1" stop-color="#4C63D2"/>
</radialGradient>
</defs>
</svg>
