<svg width="42" height="42" viewBox="0 0 42 42" fill="none" xmlns="http://www.w3.org/2000/svg">
<rect x="0.375732" y="0.93457" width="41.0003" height="41" rx="20.5" fill="#C98700"/>
<path d="M20.8739 18.9335C19.4967 18.9335 18.3728 20.0574 18.3728 21.4346C18.3728 22.8118 19.4967 23.9356 20.8739 23.9356C22.251 23.9356 23.3749 22.8118 23.3749 21.4346C23.3749 20.0574 22.251 18.9335 20.8739 18.9335ZM28.3752 21.4346C28.3752 20.3989 28.3846 19.3726 28.3264 18.3387C28.2682 17.1379 27.9943 16.0722 27.1162 15.1941C26.2362 14.3141 25.1724 14.0421 23.9716 13.9839C22.9359 13.9257 21.9096 13.9351 20.8757 13.9351C19.84 13.9351 18.8137 13.9257 17.7799 13.9839C16.5791 14.0421 15.5134 14.316 14.6353 15.1941C13.7553 16.0741 13.4832 17.1379 13.4251 18.3387C13.3669 19.3744 13.3763 20.4007 13.3763 21.4346C13.3763 22.4684 13.3669 23.4966 13.4251 24.5304C13.4832 25.7312 13.7572 26.7969 14.6353 27.675C15.5152 28.555 16.5791 28.8271 17.7799 28.8852C18.8156 28.9434 19.8419 28.934 20.8757 28.934C21.9114 28.934 22.9378 28.9434 23.9716 28.8852C25.1724 28.8271 26.2381 28.5531 27.1162 27.675C27.9962 26.7951 28.2682 25.7312 28.3264 24.5304C28.3864 23.4966 28.3752 22.4703 28.3752 21.4346ZM20.8739 25.2828C18.7443 25.2828 17.0256 23.5641 17.0256 21.4346C17.0256 19.305 18.7443 17.5863 20.8739 17.5863C23.0034 17.5863 24.7221 19.305 24.7221 21.4346C24.7221 23.5641 23.0034 25.2828 20.8739 25.2828ZM24.8797 18.3275C24.3825 18.3275 23.981 17.9259 23.981 17.4287C23.981 16.9315 24.3825 16.53 24.8797 16.53C25.3769 16.53 25.7784 16.9315 25.7784 17.4287C25.7786 17.5468 25.7554 17.6637 25.7103 17.7728C25.6652 17.882 25.599 17.9811 25.5155 18.0646C25.432 18.1481 25.3329 18.2142 25.2238 18.2594C25.1147 18.3045 24.9978 18.3276 24.8797 18.3275Z" fill="white"/>
</svg>
