<svg width="20" height="16" viewBox="0 0 20 16" fill="none" xmlns="http://www.w3.org/2000/svg">
<mask id="mask0_728_13316" style="mask-type:luminance" maskUnits="userSpaceOnUse" x="0" y="0" width="20" height="16">
<path d="M19.3783 0H0.611084V16H19.3783V0Z" fill="white"/>
</mask>
<g mask="url(#mask0_728_13316)">
<path d="M18.4573 14.9671C18.4976 14.9676 18.5375 14.9597 18.5746 14.944C18.6118 14.9283 18.6452 14.9052 18.673 14.8761C18.7008 14.8469 18.7223 14.8125 18.7362 14.7746C18.7501 14.7368 18.756 14.6966 18.7537 14.6563C18.7537 14.4359 18.6208 14.3306 18.3479 14.3306H17.907V15.4847H18.0729V14.9816H18.2765L18.2812 14.9878L18.5974 15.4847H18.7748L18.4345 14.9703L18.4573 14.9671ZM18.2655 14.8516H18.0733V14.4615H18.317C18.4429 14.4615 18.5864 14.482 18.5864 14.6468C18.5864 14.8363 18.4412 14.8516 18.2645 14.8516" fill="#0A66C2"/>
<path d="M14.1317 13.5208H11.7804V9.83864C11.7804 8.96058 11.7647 7.83025 10.5575 7.83025C9.33288 7.83025 9.1455 8.78693 9.1455 9.7747V13.5206H6.79422V5.94848H9.05145V6.98329H9.08305C9.30895 6.59706 9.63537 6.27931 10.0276 6.06393C10.4197 5.84853 10.863 5.74354 11.3102 5.76014C13.6933 5.76014 14.1327 7.32766 14.1327 9.3669L14.1317 13.5208ZM4.14119 4.91343C3.87133 4.91348 3.60749 4.8335 3.38308 4.6836C3.15866 4.53372 2.98375 4.32065 2.88043 4.07134C2.77712 3.82203 2.75004 3.54768 2.80264 3.28299C2.85524 3.0183 2.98515 2.77515 3.17595 2.58429C3.36674 2.39343 3.60984 2.26344 3.87452 2.21074C4.13919 2.15804 4.41354 2.18501 4.66288 2.28824C4.91223 2.39147 5.12536 2.56631 5.27533 2.79068C5.4253 3.01504 5.50538 3.27884 5.50543 3.5487C5.50546 3.72789 5.47019 3.90533 5.40165 4.07088C5.3331 4.23645 5.23264 4.38688 5.10596 4.5136C4.97928 4.64034 4.82887 4.74087 4.66333 4.80947C4.49779 4.87807 4.32038 4.91339 4.14119 4.91343ZM5.31683 13.5208H2.9631V5.94848H5.31683V13.5208ZM15.3039 0.000959071H1.78158C1.47467 -0.0025045 1.17891 0.116024 0.959343 0.330498C0.739771 0.544973 0.614341 0.837845 0.610596 1.14476V14.7232C0.614213 15.0303 0.739569 15.3233 0.959133 15.5381C1.1787 15.7527 1.47452 15.8715 1.78158 15.8682H15.3039C15.6116 15.8721 15.9083 15.7536 16.1287 15.539C16.349 15.3243 16.4753 15.0308 16.4796 14.7232V1.14378C16.4752 0.836257 16.3488 0.54305 16.1285 0.328582C15.908 0.114113 15.6115 -0.0040769 15.3039 -2.10267e-05" fill="#0A66C2"/>
<path d="M18.2857 13.8165C17.9997 13.8193 17.7262 13.9352 17.5254 14.139C17.3246 14.3428 17.2127 14.6178 17.214 14.9039C17.2154 15.1899 17.33 15.4638 17.5328 15.6655C17.7356 15.8674 18.01 15.9806 18.2961 15.9806C18.5822 15.9806 18.8566 15.8674 19.0593 15.6655C19.2621 15.4638 19.3768 15.1899 19.3781 14.9039C19.3796 14.6178 19.2676 14.3428 19.0668 14.139C18.8659 13.9352 18.5926 13.8193 18.3064 13.8165H18.2857ZM18.2857 15.8568C18.098 15.86 17.9137 15.8073 17.756 15.7056C17.5982 15.6041 17.4741 15.4579 17.3994 15.2858C17.3248 15.1135 17.3028 14.9231 17.3363 14.7385C17.3699 14.5539 17.4574 14.3833 17.5879 14.2484C17.7183 14.1135 17.8859 14.0203 18.0693 13.9806C18.2528 13.941 18.4438 13.9566 18.6183 14.0255C18.7929 14.0944 18.9431 14.2136 19.0499 14.3679C19.1568 14.5222 19.2154 14.7046 19.2186 14.8923C19.2186 14.8976 19.2186 14.9029 19.2186 14.9082C19.2239 15.1543 19.1311 15.3925 18.9608 15.5703C18.7906 15.7481 18.5566 15.851 18.3104 15.8563H18.2859" fill="#0A66C2"/>
</g>
</svg>
