<svg width="42" height="42" viewBox="0 0 42 42" fill="none" xmlns="http://www.w3.org/2000/svg">
<circle cx="20.6597" cy="21.3438" r="20.4092" fill="#C98700"/>
<path fill-rule="evenodd" clip-rule="evenodd" d="M28.4391 27.4671H25.3039V22.5619C25.3039 21.3915 25.2842 19.8873 23.6751 19.8873C22.0441 19.8873 21.7949 21.162 21.7949 22.4773V27.4671H18.6628V17.3789H21.6681V18.7585H21.7119C22.1294 17.9656 23.1526 17.129 24.6779 17.129C27.8523 17.129 28.4383 19.2176 28.4383 21.9344L28.4391 27.4671ZM15.1281 16.0016C14.8892 16.0018 14.6526 15.9549 14.4318 15.8635C14.211 15.7722 14.0104 15.6382 13.8414 15.4692C13.6725 15.3003 13.5385 15.0997 13.4471 14.8789C13.3558 14.6581 13.3089 14.4215 13.3091 14.1825C13.3091 13.823 13.4157 13.4715 13.6154 13.1725C13.8151 12.8735 14.099 12.6405 14.4312 12.5028C14.7634 12.3651 15.1289 12.329 15.4815 12.3991C15.8342 12.4691 16.1582 12.6421 16.4126 12.8963C16.6669 13.1504 16.8402 13.4743 16.9105 13.8269C16.9809 14.1795 16.9451 14.5451 16.8077 14.8773C16.6703 15.2096 16.4375 15.4937 16.1387 15.6937C15.8398 15.8936 15.4884 16.0005 15.1289 16.0008L15.1281 16.0016ZM16.6965 27.4671H13.5583V17.3789H16.6965V27.4671Z" fill="#F9F9F9"/>
</svg>
