<svg width="201" height="40" viewBox="0 0 201 40" fill="none" xmlns="http://www.w3.org/2000/svg">
<path d="M27.3113 32.7448L16.3676 17.6338V28.6247H20.7453V39.4778H0.5V28.6247H4.60365V11.7258H0.5V0.871887H16.4027L27.3649 16.1205L38.3507 0.871887H54.2523V11.7258H50.148V28.6247H54.2523V39.4778H34.008V28.6247H38.3844V17.6338L27.3113 32.7448Z" fill="black"/>
<path d="M135.541 1.40283C133.417 1.40283 131.588 2.70072 131.588 5.01785C131.588 7.42206 133.504 8.21145 134.523 8.57965C135.015 8.77255 135.542 8.93008 136.036 9.12179C136.632 9.36997 137.984 9.92949 137.984 11.3327C137.984 12.6678 136.826 13.2276 135.507 13.2276C133.646 13.2276 132.502 12.1395 131.816 10.1235L131.184 10.1915L131.364 12.6322L132.397 13.3875C132.887 13.7027 133.925 14.369 135.611 14.369C138.228 14.369 139.985 12.5988 139.985 10.4581C139.985 8.96662 139.177 7.87868 138.194 7.29885C137.685 7.00126 137.107 6.80608 136.403 6.58027C135.015 6.12271 133.557 5.62874 133.557 4.15611C133.557 3.17393 134.329 2.54254 135.646 2.54254C136.631 2.54254 137.474 2.90121 138.07 3.67284C138.562 4.32445 138.722 4.70011 138.932 5.50697L139.544 5.38568L139.142 1.70083L138.388 2.24299C137.336 1.57607 136.368 1.40283 135.541 1.40283ZM183.859 1.48921C179.875 1.47039 177.608 4.52431 177.608 7.91061C177.608 11.8603 180.425 14.4569 184.026 14.4569C187.311 14.4569 190.227 12.2116 190.227 7.92895C190.227 4.17335 187.61 1.5069 183.859 1.48921ZM159.533 1.64727V2.33094C160.726 2.40151 160.744 2.43614 161.639 3.76997L164.938 8.87729V11.0514C164.921 12.404 164.921 12.7196 164.64 12.9995C164.393 13.2453 164.025 13.2814 163.059 13.3873V14.0544H169.167V13.3873C167.325 13.2814 167.307 13.1068 167.307 10.8603V8.27818L169.236 5.05094C170.658 2.735 171.026 2.36737 172.273 2.33095V1.64727H167.43V2.33095C168.29 2.38388 168.797 2.40174 168.797 2.99808C168.797 3.28037 168.624 3.64852 168.306 4.26257L166.553 7.34641L164.657 4.24413C164.341 3.71718 164.114 3.33093 164.114 2.99808C164.114 2.40174 164.692 2.36741 165.991 2.33095V1.64727L159.533 1.64727ZM119.545 1.66013V2.32911C120.562 2.41497 120.897 2.53892 120.984 3.2223C121.037 3.62574 121.054 4.15062 121.054 5.64088V10.1234C121.054 10.6327 121.053 11.2094 121.036 11.7186C121.018 13.0501 120.879 13.2629 119.545 13.3653V14.0545H124.718V13.3653C123.227 13.3336 123.225 12.9504 123.208 10.1087L123.21 8.49882C124.386 8.51764 124.631 8.42045 125.367 9.98008L126.053 11.4375C127.036 13.5241 128.001 14.3321 130.335 14.3321C130.616 14.3321 130.877 14.316 131.142 14.2972V13.8763C130.141 13.7387 129.721 13.4027 128.931 11.9466L126.737 8.1312C128.439 7.60308 129.175 6.05005 129.175 4.85614C129.175 3.13773 128.211 1.68223 125.158 1.68223L119.545 1.66018L119.545 1.66013ZM108.652 1.66197V2.3291C109.547 2.41849 109.933 2.47017 110.057 3.04769C110.143 3.43349 110.161 4.80185 110.161 5.29351V9.64919C110.161 9.98206 110.144 11.4743 110.126 11.7719C110.091 13.1246 109.933 13.2455 108.652 13.369V14.0546H118.095C118.095 13.1606 118.252 11.6848 118.358 10.8439H117.761C117.338 13.0551 116.093 12.9464 114.302 12.9464C112.653 12.9464 112.321 12.5084 112.321 11.7003V8.23606H113.655C115.181 8.23606 115.62 8.36684 115.62 9.7559H116.217V5.66485H115.62C115.497 6.77048 115.269 7.13145 113.671 7.13145H112.321V2.76655H113.848C115.952 2.76655 116.707 2.92555 116.987 4.60992H117.549L117.477 1.66203H108.652L108.652 1.66197ZM147.226 1.66197L147.122 5.13734H147.772C147.877 2.92607 148.805 2.97792 150.209 2.97792H151.755V12.1046C151.755 13.0891 151.44 13.5113 150.298 13.529V14.0546H155.423L155.421 13.529C154.281 13.5113 153.966 13.0891 153.966 12.1046V2.97792H155.51C156.914 2.97792 157.844 2.92609 157.948 5.13734H158.599L158.492 1.66197H147.226ZM60.5525 1.66564V2.33094C61.4831 2.38387 61.8686 2.54324 61.9731 3.31605C62.0085 3.63129 62.0088 4.22504 62.0265 5.56008V8.36643C62.0265 10.3684 62.0444 12.23 63.8865 13.4757C65.045 14.2484 66.4482 14.3505 67.134 14.3505C67.9927 14.3505 71.2412 14.1773 72.0833 10.8438C72.2938 9.94871 72.3439 9.01616 72.3793 8.07048C72.3967 7.54472 72.538 4.10477 72.5557 3.80488C72.6262 2.57926 72.8721 2.31446 74.0297 2.33093V1.66564H69.3083V2.33093C70.415 2.42033 70.9927 2.4537 71.0632 3.57697C71.0809 3.98158 71.0817 5.45533 71.0817 5.91284C71.0817 7.35139 71.0646 9.52646 70.7141 10.6839C70.293 12.14 69.319 13.062 67.5474 13.062C67.0029 13.062 65.9246 12.9433 65.2906 12.0199C64.4957 10.8567 64.4672 9.56118 64.4672 8.05206V5.13909C64.4849 2.50671 64.4833 2.45439 66.1324 2.33084V1.66554H60.5528L60.5525 1.66564ZM74.9664 1.66564V2.33094C75.7922 2.40151 76.0726 2.52568 76.7584 3.15613C76.7407 4.4382 76.6873 11.7891 76.512 12.6139C76.3721 13.3161 75.9849 13.3347 74.9664 13.3876V14.0547H80.0206V13.3876C78.1254 13.1958 77.986 13.1253 77.986 11.1234V4.69834L82.8801 10.7375C83.4412 11.4221 84.0045 12.125 84.5654 12.8271L85.6699 14.2129H86.4088L86.5852 4.64885C86.6029 2.63046 86.7243 2.34902 88.0758 2.33133V1.66603H83.1962V2.33133C85.1629 2.4019 85.215 2.50761 85.2327 4.47421V10.019L81.7758 5.73501C79.9514 3.47197 79.7225 3.13868 78.6863 1.66606H74.9664V1.66564ZM89.4104 1.66564V2.33094C90.8664 2.54266 90.8667 2.61066 90.8844 5.19244V10.2097V11.7903C90.8667 13.0899 90.6195 13.2286 89.4104 13.3874V14.0545H94.5544V13.3874C93.5911 13.3168 93.2393 13.1416 93.1522 12.3876C93.1168 12.0183 93.0989 10.6313 93.0989 10.1914V5.19244C93.0989 2.54247 93.0983 2.47322 94.5546 2.33094V1.66564H89.4104ZM95.7343 1.66564V2.33094C96.9801 2.52619 97.0847 2.80628 97.927 5.15753L101.314 14.3008H101.981L105.754 5.29539C106.772 2.84057 106.931 2.50737 108.123 2.33094V1.66564H103.788V2.33094C104.559 2.34859 105.438 2.38299 105.438 3.27925C105.438 3.59448 105.228 4.15576 105.069 4.59332L102.544 11.1048L100.384 4.80646C100.051 3.77027 99.9616 3.47168 99.9616 3.12117C99.9616 2.40133 100.612 2.36737 101.612 2.3309V1.66561H95.7345L95.7343 1.66564ZM140.797 1.66564V2.33094C142.254 2.54266 142.255 2.61066 142.274 5.19244V10.2097V11.7903C142.255 13.0899 142.008 13.2286 140.797 13.3874V14.0545H145.941V13.3874C144.977 13.3168 144.626 13.1416 144.539 12.3876C144.503 12.0183 144.485 10.6313 144.485 10.1914V5.19244C144.485 2.54247 144.485 2.47322 145.941 2.33094V1.66564H140.797ZM190.832 1.75386V2.41916C191.727 2.5062 192.112 2.56023 192.234 3.13775C192.324 3.52473 192.341 4.89257 192.341 5.38547L192.339 9.73933C192.339 10.0722 192.321 11.5627 192.302 11.8602C192.269 13.2094 192.11 13.3338 190.83 13.4573V14.141H195.961V13.4573C194.68 13.3338 194.523 13.2094 194.487 11.8602L194.495 8.32421H195.866C197.25 8.32421 197.987 8.45667 198.075 9.84228H198.674V5.75308H198.075C198.004 7.08815 197.638 7.2197 196.129 7.2197H194.495L194.497 2.93017C194.937 2.87607 195.182 2.8585 195.973 2.8585C198.395 2.8585 199.175 2.84747 199.499 4.78826H200.115L199.92 1.75398H190.832L190.832 1.75386ZM183.876 2.62867C184.909 2.59692 185.695 3.22538 186.094 3.65236C187.004 4.62391 187.45 5.99426 187.5 7.59268C187.549 9.20533 187.369 10.4392 186.493 11.7848C185.727 12.9469 184.74 13.2957 184.039 13.3158C183.339 13.3158 182.344 13 181.544 11.8602C180.627 10.5428 180.41 9.31729 180.41 7.70118C180.41 6.10389 180.811 4.71539 181.692 3.71673C182.079 3.27917 182.843 2.62867 183.876 2.62867ZM123.973 2.7574C126.254 2.7574 126.978 4.00099 126.903 5.44067C126.851 6.43228 125.785 7.53868 124.376 7.53397C124.025 7.53397 123.551 7.47906 123.218 7.41083V2.82914C123.464 2.77621 123.657 2.7574 123.973 2.7574ZM172.884 19.232C171.955 19.9247 171.344 20.2426 169.168 20.9577L169.458 21.4098L164.39 35.3201C163.672 37.2821 163.035 37.6829 161.07 37.7628V38.7716H168.797V37.7628C167.656 37.7097 166.248 37.6309 166.248 36.3016C166.248 35.9065 166.354 35.5327 166.487 35.1327L167.067 33.5137H173.676L174.239 35.4268C174.344 35.7716 174.452 36.1708 174.452 36.5424C174.452 37.5775 173.469 37.6829 172.195 37.7628V38.7716H180.406H180.954H188.052V37.7628C185.184 37.4697 184.972 37.3641 184.972 34.3389V24.6166L192.378 33.7526C193.229 34.7901 194.076 35.8496 194.925 36.9118L196.6 39.0107H197.715L197.98 24.5432C198.006 21.4921 198.192 21.0637 200.237 21.0402V20.0294H192.856V21.0402C195.829 21.1461 195.909 21.3043 195.936 24.2767V32.6646L190.706 26.1862C187.945 22.7622 187.599 22.2595 186.034 20.0294H180.406V21.0402C181.654 21.1461 182.078 21.3312 183.114 22.2862C183.087 24.2235 183.007 35.3451 182.742 36.5957C182.55 37.5561 182.015 37.6649 180.783 37.737C178.955 37.5065 178.595 36.9223 177.876 34.7357L173.735 21.9921C173.311 20.6653 173.257 20.5067 172.884 19.2317L172.884 19.232ZM152.563 19.5499C147.472 19.5499 143.41 23.4517 143.41 29.4499C143.41 34.3595 146.493 39.2472 152.943 39.2472C156.623 39.2472 158.702 37.9448 160.159 37.0437V35.636C160.207 32.0791 160.207 31.6011 161.903 31.4952V30.4864H154.353V31.4952C156.433 31.7094 156.755 31.7606 156.84 34.1472C156.868 34.9729 156.792 35.4236 156.458 35.9282C156.361 36.0341 155.285 37.4941 153.206 37.4941C149.551 37.4941 147.426 33.8054 147.426 29.5051C147.426 24.1144 150.15 21.3542 153.423 21.3542C155.31 21.3542 156.505 22.1369 157.126 22.7473C158.535 24.1552 159.111 25.4421 159.492 26.5572L160.256 26.4248L160.113 20.5567L159.135 21.6722C157.606 20.7429 155.765 19.5494 152.563 19.5494V19.5499ZM104.465 19.5775C98.1359 19.5775 95.0337 24.5702 95.0337 29.6394C95.0337 35.1086 98.6924 39.2748 104.34 39.2748C109.511 39.2748 111.503 35.9558 112.335 34.6032L111.22 33.7577C110.236 35.1644 109.006 36.9941 105.728 36.9941C101.389 36.9941 99.1946 33.1183 99.1946 29.0014C99.1946 24.1425 101.869 21.3854 105.248 21.3854C107.215 21.3854 108.602 22.6043 109.183 23.2159C110.394 24.5427 110.872 25.4171 111.199 26.5074L112.032 26.3457L111.931 20.6649L110.644 21.8338C109.561 20.9869 107.794 19.577 104.466 19.577L104.465 19.5775ZM61.2922 20.0296V21.0404C62.9638 21.0639 63.3359 21.1986 63.3359 23.0546C63.3359 23.7192 63.3372 24.622 63.3101 25.2325L63.0455 33.0893C63.0174 34.1244 62.9385 35.6917 62.8857 36.1952C62.7788 37.4703 62.194 37.6829 60.6804 37.763V38.7719H67.1863V37.763C65.1949 37.604 64.9828 37.2585 64.9828 35.4271L65.1225 24.4054L71.1412 39.0102H72.7879L79.3436 24.5945V34.0212C79.3166 37.4992 79.3174 37.6043 76.9544 37.763V38.7721H85.1565V37.763C83.6699 37.6301 83.1396 37.3649 83.034 35.9842C82.9538 35.0279 82.9273 33.4365 82.9273 32.1614V24.4369C82.9013 21.5163 82.9265 21.2771 85.1565 21.1454V20.0299H79.4501L73.0268 34.2582L67.1841 20.0299L61.2922 20.0296ZM86.994 20.0296V21.0404C89.197 21.358 89.1962 21.4633 89.2233 25.3648V32.9587V35.3443C89.1962 37.311 88.8265 37.5242 86.994 37.763V38.7719H94.7753V37.763C93.3158 37.6571 92.7839 37.3896 92.6509 36.2486C92.5981 35.6923 92.5718 33.5939 92.5718 32.9295V25.3648C92.5718 21.3574 92.5723 21.2521 94.7755 21.0404V20.0296H86.994ZM113.72 20.0296V21.0404C115.179 21.1709 115.709 21.3306 115.815 22.4445C115.895 23.0291 115.896 24.2505 115.896 25.4714V33.3301C115.896 33.9923 115.896 34.6558 115.87 35.3204C115.87 37.1236 115.843 37.577 113.72 37.763V38.7719H121.742V37.763C119.326 37.4982 119.273 37.4984 119.246 33.5947V30.1579C120.866 30.0767 122.128 30.0255 123.747 30.0255C125.287 30.0255 126.522 30.1051 128.009 30.1579V33.5947C128.009 34.9496 128.009 35.666 127.955 36.1952C127.794 37.4984 127.291 37.5478 125.406 37.763V38.7719H133.533V37.763C132.152 37.6301 131.595 37.4456 131.462 36.4598C131.382 35.9059 131.355 33.5424 131.355 32.799V24.887C131.355 21.3312 131.355 21.3051 133.533 21.0404V20.0296H125.406V21.0404C127.955 21.278 127.982 21.4097 128.009 24.8336V27.9818C126.415 28.0606 125.154 28.1142 123.561 28.1142C121.996 28.1142 120.866 28.0606 119.246 27.9818V25.3923C119.246 24.2761 119.273 22.8956 119.406 22.2863C119.592 21.2513 120.175 21.199 121.742 21.0403V20.0295L113.72 20.0296ZM135.084 20.0296V21.0404C137.29 21.358 137.29 21.4633 137.317 25.3648V32.9587V35.3443C137.29 37.311 136.918 37.5242 135.084 37.763V38.7719H142.875V37.763C141.417 37.6571 140.887 37.3896 140.754 36.2486C140.7 35.6923 140.672 33.5939 140.672 32.9295V25.3648C140.672 21.3574 140.672 21.2521 142.875 21.0404V20.0296H135.084ZM170.516 23.7273L173.146 31.496H167.761L170.516 23.7273Z" fill="black"/>
</svg>
