<svg width="899" height="281" viewBox="0 0 899 281" fill="none" xmlns="http://www.w3.org/2000/svg">
<path d="M115.156 116.381C203.017 142.867 290.322 171.197 376.983 201.349C456.815 224.266 536.661 247.187 616.493 270.104C704.089 295.258 791.689 320.397 879.271 345.546C887.747 347.973 899.253 357.769 898.024 367.579C896.664 378.397 883.317 376.69 876.095 374.63C819.174 358.288 762.253 341.946 705.332 325.603C728.321 335.018 751.25 344.542 774.14 354.211C782.072 357.566 792.538 364.514 792.746 374.241C792.938 382.921 784.069 386.666 776.241 384.724C643.55 351.599 510.841 318.485 378.15 285.36C349.911 278.308 321.667 271.27 293.428 264.217C332.681 279.485 371.696 295.406 410.416 311.964C471.127 337.95 531.126 365.552 590.447 394.577C596.852 397.71 604.851 406.208 603.845 414.084C602.899 421.618 593.633 424.228 587.206 422.568C436.641 383.626 286.072 344.699 135.507 305.757C93.0551 294.771 50.6135 283.804 8.16131 272.818C-1.56594 270.305 -13.2677 264.195 -15.5977 253.338C-17.6743 243.624 -7.58934 238.71 0.770555 240.872C145.71 278.353 290.651 315.835 435.59 353.317C431.722 351.626 427.871 349.924 423.998 348.248C371.53 325.499 318.543 303.934 265.104 283.587C158.17 242.879 49.4061 207.024 -60.7772 176.176C-65.6499 174.808 -70.5883 173.454 -75.5123 172.103C-131.788 158.052 -188.053 144.02 -244.329 129.969C-254.061 127.532 -265.771 121.279 -268.088 110.488C-270.219 100.572 -260.077 96.1412 -251.719 98.0223C-193.939 111.044 -136.452 125.388 -79.3337 141.051C-4.09737 159.825 71.1349 178.612 146.371 197.386C279.062 230.511 411.771 263.625 544.462 296.749C555.159 299.413 565.867 302.095 576.565 304.759C509.378 278.86 441.773 254.064 373.768 230.407C229.856 189.089 85.9256 147.782 -57.9864 106.464C-145.583 81.3102 -233.183 56.1713 -320.765 31.0217C-328.805 28.7116 -339.183 19.9813 -339.37 10.9911C-339.565 2.20157 -330.703 -1.28008 -322.865 0.508654C-175.589 34.1461 -29.467 72.7854 115.156 116.381Z" fill="#C98700" fill-opacity="0.3"/>
</svg>
