<svg width="34" height="34" viewBox="0 0 34 34" fill="none" xmlns="http://www.w3.org/2000/svg">
<path fill-rule="evenodd" clip-rule="evenodd" d="M22.0586 2.81C22.1165 2.93267 22.1496 3.06554 22.156 3.20102C22.1624 3.33649 22.1421 3.4719 22.0961 3.5995C22.0501 3.72709 21.9794 3.84436 21.888 3.9446C21.7967 4.04483 21.6864 4.12605 21.5636 4.18362L14.0506 7.71875H19.827C22.3542 7.71875 24.3563 7.71875 25.9224 7.92912C27.5339 8.14637 28.8387 8.60287 29.8686 9.63137C30.8971 10.6612 31.3536 11.9661 31.5709 13.5776C31.7812 15.1451 31.7812 17.1457 31.7812 19.673V19.8284C31.7812 22.3542 31.7812 24.3562 31.5709 25.9224C31.3536 27.5352 30.8971 28.8401 29.8686 29.8686C28.8387 30.8971 27.5339 31.3536 25.9224 31.5709C24.3549 31.7812 22.3542 31.7812 19.827 31.7812H14.173C11.6458 31.7812 9.64375 31.7812 8.07763 31.5709C6.46613 31.3536 5.16125 30.8971 4.13138 29.8686C3.10287 28.8401 2.64638 27.5352 2.42912 25.9224C2.21875 24.3562 2.21875 22.3542 2.21875 19.8284V19.673C2.21875 17.1457 2.21875 15.1437 2.42912 13.5776C2.64638 11.9661 3.10287 10.6612 4.13138 9.63137C5.16125 8.60287 6.46613 8.14637 8.07763 7.92912C8.35813 7.892 8.65237 7.86037 8.96175 7.83562C8.97401 7.82943 8.98639 7.82347 8.99888 7.81775L20.6864 2.31775C20.9338 2.20125 21.2174 2.18781 21.4747 2.28038C21.7321 2.37295 21.9421 2.56395 22.0586 2.81137V2.81ZM8.35125 9.97375C6.968 10.1594 6.1705 10.5086 5.5875 11.0902C5.00725 11.6719 4.658 12.4694 4.47237 13.8526C4.28262 15.2661 4.27988 17.1279 4.27988 19.7514C4.27988 22.3721 4.28262 24.2339 4.47237 25.6474C4.658 27.0306 5.00725 27.8281 5.58888 28.4111C6.1705 28.9914 6.968 29.3406 8.35125 29.5262C9.76475 29.7174 11.6265 29.7187 14.2486 29.7187H19.7486C22.3707 29.7187 24.2339 29.7174 25.6474 29.5262C27.0292 29.3406 27.8268 28.9914 28.4084 28.4097C28.99 27.8281 29.3392 27.0306 29.5249 25.6474C29.7146 24.2352 29.7174 22.3721 29.7174 19.75C29.7174 17.1279 29.7146 15.2661 29.5249 13.8526C29.3392 12.4694 28.99 11.6719 28.4084 11.0902C27.8268 10.5086 27.0293 10.1594 25.646 9.97375C24.2339 9.784 22.3707 9.78125 19.7486 9.78125H14.2486C11.6265 9.78125 9.76613 9.784 8.35125 9.97375ZM6.34375 15.625C6.34375 14.6221 6.74213 13.6604 7.45125 12.9513C8.16037 12.2421 9.12215 11.8437 10.125 11.8437H23.875C24.8778 11.8437 25.8396 12.2421 26.5487 12.9513C27.2579 13.6604 27.6562 14.6221 27.6562 15.625C27.6562 16.6278 27.2579 17.5896 26.5487 18.2987C25.8396 19.0079 24.8778 19.4062 23.875 19.4062H10.125C9.12215 19.4062 8.16037 19.0079 7.45125 18.2987C6.74213 17.5896 6.34375 16.6278 6.34375 15.625ZM22.1562 17.3437V16.3125C22.1562 16.039 22.0476 15.7767 21.8542 15.5833C21.6608 15.3899 21.3985 15.2812 21.125 15.2812C20.8515 15.2812 20.5892 15.3899 20.3958 15.5833C20.2024 15.7767 20.0938 16.039 20.0938 16.3125V17.3437H10.125C9.66916 17.3437 9.23199 17.1627 8.90966 16.8403C8.58733 16.518 8.40625 16.0808 8.40625 15.625C8.40625 15.1692 8.58733 14.732 8.90966 14.4097C9.23199 14.0873 9.66916 13.9062 10.125 13.9062H23.875C24.3308 13.9062 24.768 14.0873 25.0903 14.4097C25.4127 14.732 25.5938 15.1692 25.5938 15.625C25.5938 16.0808 25.4127 16.518 25.0903 16.8403C24.768 17.1627 24.3308 17.3437 23.875 17.3437H22.1562ZM10.8125 22.8437C10.539 22.8437 10.2767 22.9524 10.0833 23.1458C9.8899 23.3392 9.78125 23.6015 9.78125 23.875C9.78125 24.1485 9.8899 24.4108 10.0833 24.6042C10.2767 24.7976 10.539 24.9062 10.8125 24.9062C11.086 24.9062 11.3483 24.7976 11.5417 24.6042C11.7351 24.4108 11.8438 24.1485 11.8438 23.875C11.8438 23.6015 11.7351 23.3392 11.5417 23.1458C11.3483 22.9524 11.086 22.8437 10.8125 22.8437ZM7.71875 23.875C7.71875 23.0545 8.0447 22.2676 8.62489 21.6874C9.20508 21.1072 9.99199 20.7812 10.8125 20.7812C11.633 20.7812 12.4199 21.1072 13.0001 21.6874C13.5803 22.2676 13.9062 23.0545 13.9062 23.875C13.9062 24.6955 13.5803 25.4824 13.0001 26.0626C12.4199 26.6428 11.633 26.9687 10.8125 26.9687C9.99199 26.9687 9.20508 26.6428 8.62489 26.0626C8.0447 25.4824 7.71875 24.6955 7.71875 23.875ZM17.3438 23.875C17.3438 23.6015 17.4524 23.3392 17.6458 23.1458C17.8392 22.9524 18.1015 22.8437 18.375 22.8437H25.25C25.5235 22.8437 25.7858 22.9524 25.9792 23.1458C26.1726 23.3392 26.2812 23.6015 26.2812 23.875C26.2812 24.1485 26.1726 24.4108 25.9792 24.6042C25.7858 24.7976 25.5235 24.9062 25.25 24.9062H18.375C18.1015 24.9062 17.8392 24.7976 17.6458 24.6042C17.4524 24.4108 17.3438 24.1485 17.3438 23.875Z" fill="#ED9F00"/>
</svg>
