<svg width="34" height="33" viewBox="0 0 34 33" fill="none" xmlns="http://www.w3.org/2000/svg">
<path d="M23.875 6.875H10.125C6 6.875 3.25 9.625 3.25 13.75V23.375C3.25 27.5 6 30.25 10.125 30.25H23.875C28 30.25 30.75 27.5 30.75 23.375V13.75C30.75 9.625 28 6.875 23.875 6.875Z" stroke="#292D32" stroke-width="2.3" stroke-linecap="round" stroke-linejoin="round"/>
<path d="M10.125 2.75V6.875" stroke="#292D32" stroke-width="2.3" stroke-linecap="round" stroke-linejoin="round"/>
<path d="M12.1875 22C14.086 22 15.625 20.461 15.625 18.5625C15.625 16.664 14.086 15.125 12.1875 15.125C10.289 15.125 8.75 16.664 8.75 18.5625C8.75 20.461 10.289 22 12.1875 22Z" stroke="#292D32" stroke-width="2.3" stroke-linecap="round" stroke-linejoin="round"/>
<path d="M20.4375 15.125H25.9375" stroke="#292D32" stroke-width="2.3" stroke-linecap="round" stroke-linejoin="round"/>
<path d="M20.4375 20.625H21.125" stroke="#292D32" stroke-width="2.3" stroke-linecap="round" stroke-linejoin="round"/>
<path d="M25.25 20.625H25.9375" stroke="#292D32" stroke-width="2.3" stroke-linecap="round" stroke-linejoin="round"/>
</svg>
