<svg width="100" height="100" viewBox="0 0 100 100" fill="none" xmlns="http://www.w3.org/2000/svg">
<path d="M62.6248 44.8749L86.2082 29.0834C88.5832 27.5 89.2082 24.25 87.6248 21.9167L80.0415 10.6249C78.4582 8.24993 75.2082 7.62495 72.8748 9.20828L49.2915 25L62.6248 44.8749Z" stroke="#101010" stroke-width="5" stroke-linecap="round" stroke-linejoin="round"/>
<path d="M50.7244 26.9968L30.8174 40.3296L41.4836 56.2552L61.3906 42.9224L50.7244 26.9968Z" stroke="#101010" stroke-width="5" stroke-linecap="round" stroke-linejoin="round"/>
<path d="M24.2916 66.2501L40.7499 55.2501L31.4166 41.3335L14.9582 52.3334C13.0416 53.6251 12.5416 56.2085 13.8333 58.1252L18.5416 65.1251C19.7916 67.0001 22.3749 67.5001 24.2916 66.2501Z" stroke="#101010" stroke-width="5" stroke-linecap="round" stroke-linejoin="round"/>
<path d="M50.2084 50.8335L31.5 91.6668" stroke="#101010" stroke-width="5" stroke-linecap="round" stroke-linejoin="round"/>
<path d="M50 50.8335L68.5 91.6668" stroke="#101010" stroke-width="5" stroke-linecap="round" stroke-linejoin="round"/>
</svg>
