<svg width="150" height="42" viewBox="0 0 150 42" fill="none" xmlns="http://www.w3.org/2000/svg">
<mask id="mask0_318_253" style="mask-type:luminance" maskUnits="userSpaceOnUse" x="0" y="0" width="150" height="42">
<path d="M149.718 0.603394H0V41.7462H149.718V0.603394Z" fill="white"/>
</mask>
<g mask="url(#mask0_318_253)">
<path d="M136.281 1.27343C135.513 1.49061 135.051 2.05898 135.051 2.72902C135.051 3.49608 135.467 3.97668 136.091 3.97668C136.47 3.97668 136.738 3.83805 136.923 3.57002C137.186 3.18187 137.316 2.69205 137.514 2.18375C137.884 1.25956 138.281 0.811335 139.058 0.811335C140.019 0.811335 140.652 1.50447 140.652 2.56728C140.652 3.49148 140.144 4.15225 139.192 4.42951L139.021 3.82879C139.732 3.63471 140.102 3.168 140.102 2.49797C140.102 1.85104 139.723 1.44902 139.132 1.44902C138.841 1.44902 138.609 1.58765 138.406 1.83718C138.207 2.09133 138.073 2.53956 137.861 3.10793C137.473 4.13379 137.066 4.60974 136.142 4.60974C135.158 4.60974 134.492 3.89348 134.492 2.76136C134.492 1.69855 135.028 0.977688 136.087 0.649603L136.29 1.27343H136.281ZM134.483 7.67339C134.483 6.22245 135.578 5.38142 137.57 5.38142C139.538 5.38142 140.652 6.27328 140.652 7.62719C140.652 8.73622 140.051 9.42936 138.873 9.68351L138.716 9.06431C139.612 8.87948 140.093 8.38965 140.093 7.68728C140.093 6.67068 139.215 6.05145 137.551 6.05145C135.934 6.05145 135.056 6.67528 135.056 7.70576C135.056 8.48208 135.564 9.01811 136.507 9.18445L136.377 9.78516C135.111 9.49405 134.483 8.79628 134.483 7.67802V7.67339ZM140.55 10.7833V11.4302H137.999V14.4338H140.55V15.0807H134.58V14.4338H137.422V11.4302H134.575V10.7833H140.546H140.55ZM140.647 18.4587C140.647 19.868 139.483 20.8153 137.57 20.8153C135.657 20.8153 134.488 19.868 134.488 18.4587C134.488 17.0446 135.666 16.102 137.574 16.102C139.487 16.0927 140.657 17.0446 140.657 18.4587H140.647ZM135.056 18.4587C135.056 19.4984 135.962 20.1499 137.57 20.1499C139.187 20.1499 140.083 19.503 140.083 18.4587C140.083 17.4143 139.187 16.7628 137.574 16.7628C135.971 16.7628 135.07 17.4097 135.07 18.4587H135.056ZM140.647 24.0777C140.647 25.4871 139.483 26.4344 137.57 26.4344C135.657 26.4344 134.488 25.4871 134.488 24.0777C134.488 22.6637 135.666 21.7118 137.574 21.7118C139.487 21.7118 140.657 22.6637 140.657 24.0684L140.647 24.0777ZM135.056 24.0777C135.056 25.1174 135.962 25.7689 137.57 25.7689C139.187 25.7689 140.083 25.122 140.083 24.0731C140.083 23.0287 139.187 22.3772 137.574 22.3772C135.971 22.3772 135.07 23.0241 135.07 24.0684L135.056 24.0777ZM140.55 27.4925V28.1626H135.144V30.8288H134.58V27.4972H140.55V27.4925ZM140.647 34.826C140.647 36.24 139.483 37.1825 137.57 37.1825C135.657 37.1825 134.488 36.24 134.488 34.826C134.488 33.412 135.666 32.4694 137.574 32.4694C139.487 32.4694 140.657 33.412 140.657 34.826H140.647ZM135.056 34.826C135.056 35.8657 135.962 36.5171 137.57 36.5171C139.187 36.5171 140.083 35.8702 140.083 34.826C140.083 33.7862 139.187 33.1348 137.574 33.1348C135.971 33.1348 135.07 33.7817 135.07 34.826H135.056ZM140.55 38.2454V41.7434H139.996V38.9017H137.999V41.0088H137.436V38.9017H134.58V38.2454H140.55ZM144.303 4.51731C143.794 4.14765 143.554 3.63934 143.554 2.93696C143.554 1.51834 144.691 0.603394 146.604 0.603394C148.591 0.603394 149.718 1.48137 149.718 2.96006C149.718 4.01362 149.131 4.70676 147.962 5.03948L147.837 4.36019C148.701 4.12916 149.15 3.65782 149.15 2.93696C149.15 1.88801 148.272 1.27343 146.655 1.27343C145.028 1.27343 144.122 1.9296 144.122 2.98317C144.122 3.84728 144.644 4.42491 145.555 4.42491H145.971V3.05248H146.544V5.10879H143.646V4.54042L144.293 4.51731H144.303ZM149.617 6.68454V8.35731C149.617 9.97462 149.182 10.7463 148.045 10.7463C147.26 10.7463 146.751 10.3305 146.521 9.50791L143.655 10.9127V10.1872L146.359 8.87485V7.33608H143.651V6.68914H149.612L149.617 6.68454ZM149.062 7.33145H146.909V8.33419C146.909 9.53565 147.209 10.0763 147.985 10.0763C148.863 10.0763 149.067 9.55414 149.067 8.35731V7.34071L149.062 7.33145ZM149.617 13.602V14.6094L143.655 16.4485V15.7554L145.504 15.2194V13.0013L143.655 12.4699V11.7675L149.617 13.6067V13.602ZM146.058 15.0345L149.173 14.1381V14.0457L146.058 13.1446V15.0253V15.0345ZM149.617 17.5345V18.9531C149.617 19.7571 149.524 20.3394 149.154 20.8476C148.646 21.4946 147.777 21.8735 146.636 21.8735C144.658 21.8735 143.651 20.8476 143.651 18.8098V17.5345H149.612H149.617ZM149.062 18.1814H144.238V18.7128C144.238 19.4706 144.312 20.0205 144.654 20.4457C145.037 20.9401 145.717 21.2173 146.631 21.2173C147.588 21.2173 148.281 20.9493 148.679 20.4318C149.025 19.9882 149.067 19.4799 149.067 18.8006V18.1768L149.062 18.1814ZM149.617 23.7219H145.772C145.402 23.7219 145.079 23.7219 144.801 23.8744C144.376 24.0915 144.122 24.5675 144.122 25.2144C144.122 25.8614 144.372 26.3466 144.792 26.5545C145.107 26.7162 145.453 26.7162 145.873 26.7162H149.607V27.3724H145.656C144.27 27.3724 143.545 26.6238 143.545 25.219C143.545 23.805 144.261 23.0703 145.656 23.0703H149.607V23.7311L149.617 23.7219ZM149.617 30.0757V31.0831L143.655 32.9174V32.2242L145.504 31.6837V29.4657L143.655 28.9343V28.2411L149.617 30.0802V30.0757ZM146.058 31.5082L149.173 30.6117V30.5194L146.058 29.6228V31.5034V31.5082ZM149.048 34.7151V32.9731H149.617V37.1317H149.048V35.3897H143.642V34.7151H149.048ZM149.617 38.2177V41.7434H149.062V38.8785H147.066V40.9117H146.511V38.8785H144.219V41.7434H143.651V38.2177H149.612H149.617Z" fill="black"/>
<path d="M30.4797 22.9547C33.3909 23.158 33.3909 24.4334 33.3909 26.73V33.2177C33.3909 35.6391 33.3909 36.9608 32.582 38.2082C31.3483 40.1354 28.9317 40.796 27.0232 40.796C24.5186 40.796 22.9891 39.6731 22.3283 38.5457C21.6121 37.3442 21.6121 35.8194 21.6121 33.0745V27.0812C21.6121 22.9547 21.7045 22.9547 24.551 22.9547V22.3216H15.8405V22.9547H16.2749C18.8164 22.9547 18.8441 23.2781 18.8441 27.1366V32.9868C18.8441 36.2122 18.8441 37.5382 19.796 38.9477C20.5446 40.0474 22.4161 41.7434 26.367 41.7434C29.9991 41.7434 32.328 40.3108 33.3446 38.4625C34.084 37.0762 34.084 35.8377 34.084 33.3334V26.9887C34.084 24.6321 34.084 23.1534 36.8843 22.9547V22.3216H30.4797V22.9547ZM51.93 22.9547H52.3366C54.8411 22.9547 54.9011 23.2181 54.9011 27.0765V36.4385C54.9011 40.1354 54.9011 40.7637 52.4846 40.7637H51.93V41.3968H60.6403V40.7591H60.086C57.6691 40.7591 57.6691 40.126 57.6691 36.434V27.0812C57.6691 23.1857 57.7246 22.9547 60.2291 22.9547H60.6357V22.3216H51.93V22.9547ZM44.0837 29.8722C41.8654 28.8926 39.4997 27.8528 39.4997 25.5747C39.4997 24.3086 40.3637 22.6636 42.7806 22.6636C44.9246 22.6636 47.332 24.2901 47.8311 26.9056H48.4689V22.3216H47.8683C47.8034 22.6682 47.6094 23.5785 47.1149 23.9944C46.4217 23.2412 45.2111 21.975 42.702 21.975C39.532 21.975 37.6651 24.2208 37.6651 26.7022C37.6651 30.3342 40.8074 31.6928 42.9331 32.6077C43.1086 32.668 44.056 33.07 44.2269 33.1622C46.1677 33.994 48.1223 35.0891 48.1223 37.3351C48.1223 39.0908 46.7083 41.0502 43.8849 41.0502C39.8 41.0502 38.5477 37.1362 38.2151 35.4588H37.5126V41.406H38.1411C38.3537 40.1582 38.7189 39.6131 38.8943 39.3542C39.3563 39.872 40.9969 41.7434 44.1391 41.7434C47.7989 41.7434 50.1323 39.47 50.1323 36.2445C50.1323 32.6077 47.7943 31.5125 44.0789 29.8677L44.0837 29.8722ZM109.285 29.8722C107.057 28.8926 104.696 27.8528 104.696 25.5747C104.696 24.3086 105.56 22.6636 107.977 22.6636C110.121 22.6636 112.529 24.2901 113.028 26.9056H113.661V22.3216H113.06C112.995 22.6682 112.801 23.5785 112.302 23.9944C111.609 23.2412 110.408 21.975 107.894 21.975C104.719 21.975 102.848 24.2208 102.848 26.7022C102.848 30.3342 105.99 31.6928 108.116 32.6077C108.301 32.668 109.243 33.07 109.419 33.1622C111.35 33.994 113.31 35.0891 113.31 37.3351C113.31 39.0908 111.896 41.0502 109.072 41.0502C104.983 41.0502 103.735 37.1362 103.402 35.4588H102.7V41.406H103.333C103.546 40.1582 103.911 39.6131 104.086 39.3542C104.548 39.872 106.189 41.7434 109.331 41.7434C112.995 41.7434 115.329 39.47 115.329 36.2445C115.329 32.6077 112.995 31.5125 109.276 29.8677L109.285 29.8722ZM124.238 29.8722C122.02 28.8926 119.654 27.8528 119.654 25.5747C119.654 24.3086 120.518 22.6636 122.935 22.6636C125.079 22.6636 127.487 24.2901 127.986 26.9056H128.619V22.3216H128.018C127.953 22.6682 127.759 23.5785 127.265 23.9944C126.572 23.2412 125.37 21.975 122.857 21.975C119.687 21.975 117.82 24.2208 117.82 26.7022C117.82 30.3342 120.962 31.6928 123.087 32.6077C123.263 32.668 124.211 33.07 124.381 33.1622C126.322 33.994 128.277 35.0891 128.277 37.3351C128.277 39.0908 126.858 41.0502 124.035 41.0502C119.95 41.0502 118.698 37.1362 118.365 35.4588H117.672V41.406H118.296C118.508 40.1582 118.878 39.6131 119.049 39.3542C119.511 39.872 121.151 41.7434 124.294 41.7434C127.953 41.7434 130.287 39.47 130.287 36.2445C130.287 32.6077 127.953 31.5125 124.233 29.8677L124.238 29.8722ZM76.0974 22.9547C79.3551 22.987 79.3551 24.4565 79.3551 25.8381V37.0022H79.2997L68.0663 22.3216H62.4471V22.9547C64.8686 22.9547 65.266 22.9547 65.266 27.0765V37.1871C65.266 38.9754 65.266 39.4374 64.8409 39.8674C64.0551 40.6205 62.7614 40.6991 62.1883 40.7637V41.3968H69.3046V40.7591C67.4886 40.7268 66.8 40.2045 66.6246 40.0382C66.0469 39.5485 65.9637 39.1742 65.9637 37.1825V23.9666H66.0191L79.3643 41.4014H80.0574V26.0368C80.0574 24.5119 80.0574 23.2181 83.024 22.95V22.3216H76.1066V22.9547H76.0974ZM93.8277 40.7682H92.4186C89.7937 40.7682 89.6183 40.5374 89.6183 36.1565V31.6282H91.6977C93.8834 31.6282 94.5163 31.776 94.5163 34.6594H95.1817V28.1162H94.5163C94.5163 30.3342 94.3454 30.9951 91.6651 30.9951H89.6183V22.9547H92.4091C95.7454 22.9547 97.1366 23.0748 97.9311 26.9056H98.5874V22.3216H84.378V22.9547C86.8271 22.9547 86.8503 23.3012 86.8503 27.0765V36.4385C86.8503 40.126 86.8503 40.7637 84.3734 40.7637H83.9946V41.3968H99.7888V35.4634H99.128C98.1854 40.7868 95.7409 40.7637 93.8231 40.7637L93.8277 40.7682ZM9.14943 31.1708V31.1105C10.2954 30.972 14.5328 30.3342 14.5328 26.6745C14.5328 22.1183 8.50711 22.3124 6.72346 22.3124C5.91477 22.3124 0 22.3216 0 22.3216V22.9547C2.86497 22.9547 2.94814 22.9547 2.94814 27.1366V36.4431C2.94814 40.1305 2.94814 40.7682 0.526786 40.7682H0V41.4014H7.30106C8.94149 41.4014 11.6447 41.4014 13.2621 40.3848C14.7038 39.4931 15.5725 37.908 15.5725 36.2074C15.5725 32.8342 12.7445 31.4017 9.14943 31.1708ZM5.71146 22.9593C5.71146 22.9593 6.94063 22.9408 7.47666 22.9593C10.2492 23.0055 11.5615 23.8927 11.5615 26.8178C11.5615 30.4497 9.28806 30.9397 5.71146 30.852V22.9593ZM8.02191 40.736C5.71146 40.736 5.71146 40.1908 5.71146 35.81V31.5402C8.59491 31.3648 10.2076 31.8545 11.0163 32.4322C12.0791 33.2085 12.4857 34.4191 12.4857 36.1197C12.4857 37.1271 12.5135 40.7268 8.01731 40.7268L8.02191 40.736Z" fill="black"/>
<path d="M21.7645 13.5974V1.48137H24.4123C26.5056 1.48137 27.6193 1.48137 28.2154 5.03025H28.7329V0.917616H12.3194V5.03025H12.8924C13.1003 3.81494 13.4007 2.75212 13.8166 2.23458C14.4173 1.48137 15.0457 1.48137 16.8294 1.48137H19.2785V13.5882C19.2785 16.906 19.3108 17.479 17.1067 17.479H16.2287V18.0474H24.7959V17.479H23.9364C21.7645 17.479 21.7645 16.9106 21.7645 13.5974ZM86.0877 0.603394C81.43 0.603394 76.846 3.52845 76.846 9.35079C76.846 15.0438 80.9586 18.3616 86.1663 18.3616C91.8594 18.3616 95.51 14.6833 95.51 9.45245C95.5146 3.3205 90.7411 0.603394 86.0877 0.603394ZM86.2726 17.7378C81.7671 17.7378 79.748 14.7804 79.748 9.45708C79.748 5.85276 80.8337 1.23184 86.1708 1.23184C92.0951 1.23184 92.608 6.99876 92.608 9.48019C92.608 12.3821 91.8917 17.7424 86.2771 17.7424L86.2726 17.7378ZM126.831 2.88151C125.25 1.54144 123.24 0.912996 119.483 0.912996C118.037 0.912996 111.873 0.912996 111.873 0.912996V1.48137H112.362C114.641 1.48137 114.691 1.85104 114.691 5.31674V13.5974C114.691 15.9541 114.627 17.0308 113.767 17.4004C113.305 17.5622 112.917 17.5391 112.667 17.4836C111.614 17.2757 110.694 16.5132 108.647 13.7499C108.518 13.5974 107.894 12.7656 107.769 12.5854C107.455 12.1696 105.851 10.0254 104.738 9.45708V9.40162C107.455 9.12436 109.636 7.69188 109.636 5.10416C109.636 3.99516 109.22 3.01089 108.181 2.15602C107.205 1.3566 105.699 0.917616 102.206 0.917616C101.48 0.917616 95.8657 0.917616 95.8657 0.917616V1.48137C98.4071 1.48137 98.4766 1.48137 98.4766 5.18734V13.5974C98.4766 16.9106 98.4766 17.479 96.2768 17.479H95.7363V18.0474H103.939V17.479H103.107C100.935 17.479 100.963 16.9106 100.963 13.5974V9.79902H101.637C101.915 9.79902 102.437 9.76668 102.853 10.1826C103.37 10.7001 104.516 12.0171 105.547 13.5466C106.24 14.5863 108.005 17.1232 109.299 18.052H119.405C121.937 18.052 124.733 18.0797 126.983 16.1574C129.312 14.1981 129.617 11.0929 129.617 9.64191C129.626 7.72425 129.183 4.88236 126.831 2.88613V2.88151ZM102.386 9.16596H100.963V1.60151C101.295 1.60151 101.549 1.60151 102.016 1.60151C104.317 1.60151 106.854 1.56454 106.854 5.29825C106.854 7.83051 105.717 9.17982 102.372 9.17982L102.386 9.16596ZM124.395 16.2822C122.972 17.4004 121.082 17.4513 119.867 17.4513C117.15 17.4513 117.177 17.3496 117.177 12.8442V1.48137C117.177 1.48137 118.393 1.47213 119.271 1.47213C120.625 1.47213 123.476 1.3335 125.255 3.86576C126.604 5.77882 126.858 8.18634 126.858 9.81751C126.858 11.86 126.47 14.6833 124.4 16.2868L124.395 16.2822ZM5.90091 7.70114C3.91391 6.82316 1.7883 5.88974 1.7883 3.84265C1.7883 2.70591 2.55999 1.23184 4.73646 1.23184C6.65874 1.23184 8.82134 2.68743 9.26494 5.03948H9.83331V0.908374H9.28806C9.24186 1.21798 9.06626 2.0405 8.61803 2.41017C7.9942 1.74014 6.90828 0.603394 4.65789 0.603394C1.8114 0.603394 0.129386 2.62274 0.129386 4.85465C0.129386 8.10776 2.94814 9.32771 4.86583 10.1549C5.02294 10.201 5.8732 10.5707 6.03031 10.6447C7.76314 11.3979 9.52371 12.3775 9.52371 14.3968C9.52371 15.9772 8.2622 17.7378 5.72531 17.7378C2.05631 17.7378 0.928806 14.2259 0.633066 12.7194H0V18.0474H0.591477C0.748588 16.9938 1.08592 16.4439 1.23841 16.2083C1.65429 16.6703 3.133 18.357 5.95174 18.357C9.24186 18.357 11.3351 16.3145 11.3351 13.4126C11.3351 10.1549 9.23723 9.17059 5.90091 7.69651V7.70114ZM56.3291 1.48137C59.254 1.50909 59.254 2.48873 59.254 4.06908V14.1427H59.208L49.102 0.917616H44.0606V1.48137C46.2323 1.48137 46.602 1.48137 46.602 5.17811V14.2674C46.602 15.8755 46.5834 16.3931 46.2091 16.7997C45.6317 17.4189 44.7491 17.6176 44.0097 17.4698C42.9837 17.2064 42.6697 16.5825 42.2214 15.5105C42.1937 15.4088 42.092 15.1732 41.9626 14.9098L35.9646 0.658845H35.4703L30.498 12.5716C30.3686 12.8488 29.9529 13.8654 29.8743 14.0503C29.0426 16.2221 28.6589 17.2018 26.8476 17.4882V18.0566H31.9446V17.4882C30.4657 17.4882 30.0823 16.5825 30.0823 15.8802C30.0823 15.1593 30.5211 14.1704 30.9603 13.0891C31.0157 12.9597 31.0389 12.8581 31.0666 12.8304L31.5054 11.7398H38.0303L39.324 14.8959C39.3703 15.0068 39.6014 15.5244 39.6337 15.626C39.8186 16.0142 39.9109 16.3007 39.9109 16.5594C39.9109 17.4929 39.0097 17.4929 37.7946 17.4929V18.0613H50.2157V17.4929C48.5843 17.4651 47.9651 16.9984 47.8126 16.8459C47.2906 16.407 47.212 16.0696 47.212 14.2813V2.39169H47.2583L59.254 18.0474H59.8686V4.25394C59.8686 2.88151 59.9148 1.43516 62.5303 1.43516C65.1457 1.43516 65.1966 2.88151 65.1966 4.25394V13.5882C65.1966 16.9014 65.1966 17.4698 63.0248 17.4698H62.5026V18.0381H70.4506V17.4698H69.8823C67.6826 17.4698 67.6826 16.9014 67.6826 13.5882V9.31845H69.286C70.8388 9.31845 71.8737 9.31845 71.8737 12.1649H72.4977V6.13925H71.8737C71.8737 8.54214 71.042 8.74545 69.286 8.74545H67.6826V1.48137H71.0188C72.6826 1.48137 73.7314 1.48137 74.5586 2.67357C75.2517 3.65319 75.2886 4.39256 75.3534 5.03025H75.9634V0.917616H56.3246V1.48137H56.3291ZM31.7643 11.1622L34.7677 3.86114L37.7946 11.1622H31.7597H31.7643Z" fill="black"/>
</g>
</svg>
