<svg width="100" height="100" viewBox="0 0 100 100" fill="none" xmlns="http://www.w3.org/2000/svg">
<path d="M50 81.25C67.2589 81.25 81.25 67.2589 81.25 50C81.25 32.7411 67.2589 18.75 50 18.75C32.7411 18.75 18.75 32.7411 18.75 50C18.75 67.2589 32.7411 81.25 50 81.25Z" stroke="#101010" stroke-width="5" stroke-linecap="round" stroke-linejoin="round"/>
<path d="M50 62.5C56.9036 62.5 62.5 56.9036 62.5 50C62.5 43.0964 56.9036 37.5 50 37.5C43.0964 37.5 37.5 43.0964 37.5 50C37.5 56.9036 43.0964 62.5 50 62.5Z" stroke="#101010" stroke-width="5" stroke-linecap="round" stroke-linejoin="round"/>
<path d="M50 16.6666V8.33325" stroke="#101010" stroke-width="5" stroke-linecap="round" stroke-linejoin="round"/>
<path d="M16.6668 50H8.3335" stroke="#101010" stroke-width="5" stroke-linecap="round" stroke-linejoin="round"/>
<path d="M50 83.3333V91.6666" stroke="#101010" stroke-width="5" stroke-linecap="round" stroke-linejoin="round"/>
<path d="M83.3335 50H91.6668" stroke="#101010" stroke-width="5" stroke-linecap="round" stroke-linejoin="round"/>
</svg>
