<svg width="909" height="278" viewBox="0 0 909 278" fill="none" xmlns="http://www.w3.org/2000/svg">
<path d="M783.158 116.381C695.297 142.867 607.992 171.197 521.331 201.349C441.499 224.266 361.653 247.187 281.822 270.104C194.225 295.258 106.625 320.397 19.0432 345.546C10.5677 347.973 -0.93925 357.769 0.290091 367.579C1.64976 378.397 14.9975 376.69 22.2189 374.63C79.1399 358.288 136.061 341.946 192.982 325.604C169.993 335.019 147.064 344.542 124.174 354.211C116.243 357.567 105.776 364.514 105.568 374.242C105.376 382.922 114.246 386.666 122.074 384.724C254.764 351.599 387.474 318.485 520.164 285.361C548.404 278.308 576.647 271.27 604.886 264.217C565.634 279.485 526.618 295.406 487.898 311.964C427.187 337.95 367.189 365.552 307.867 394.577C301.462 397.71 293.463 406.208 294.469 414.084C295.415 421.618 304.681 424.228 311.108 422.569C461.673 383.626 612.242 344.699 762.807 305.757C805.259 294.771 847.701 283.804 890.153 272.818C899.88 270.305 911.582 264.195 913.912 253.338C915.988 243.624 905.904 238.71 897.544 240.872C752.604 278.354 607.664 315.835 462.724 353.317C466.593 351.626 470.443 349.924 474.316 348.248C526.784 325.499 579.771 303.934 633.21 283.588C740.145 242.88 848.908 207.024 959.091 176.176C963.964 174.808 968.903 173.454 973.827 172.104C1030.1 158.052 1086.37 144.02 1142.64 129.969C1152.37 127.532 1164.09 121.28 1166.4 110.489C1168.53 100.573 1158.39 96.1413 1150.03 98.0225C1092.25 111.044 1034.77 125.388 977.648 141.051C902.412 159.825 827.179 178.613 751.943 197.386C619.252 230.511 486.543 263.625 353.852 296.749C343.155 299.413 332.447 302.096 321.75 304.759C388.936 278.861 456.542 254.064 524.546 230.407C668.458 189.089 812.389 147.782 956.301 106.464C1043.9 81.3103 1131.5 56.1715 1219.08 31.0219C1227.12 28.7117 1237.5 19.9814 1237.68 10.9913C1237.88 2.20169 1229.02 -1.27996 1221.18 0.508776C1073.9 34.1462 927.781 72.7856 783.158 116.381Z" fill="#C98700" fill-opacity="0.3"/>
</svg>
