<svg width="34" height="33" viewBox="0 0 34 33" fill="none" xmlns="http://www.w3.org/2000/svg">
<path d="M12.875 30.25H21.125C28 30.25 30.75 27.5 30.75 20.625V12.375C30.75 5.5 28 2.75 21.125 2.75H12.875C6 2.75 3.25 5.5 3.25 12.375V20.625C3.25 27.5 6 30.25 12.875 30.25Z" stroke="#292D32" stroke-width="2.3" stroke-linecap="round" stroke-linejoin="round"/>
<path d="M17.825 25.4375H23.05C25.1125 25.4375 25.9375 24.6125 25.9375 22.55V20.075C25.9375 18.0125 25.1125 17.1875 23.05 17.1875H17.825C15.7625 17.1875 14.9375 18.0125 14.9375 20.075V22.55C14.9375 24.6125 15.7625 25.4375 17.825 25.4375Z" stroke="#292D32" stroke-width="2.3" stroke-linecap="round" stroke-linejoin="round"/>
</svg>
