<svg width="34" height="34" viewBox="0 0 34 34" fill="none" xmlns="http://www.w3.org/2000/svg">
<path fill-rule="evenodd" clip-rule="evenodd" d="M21.796 2.46625C21.8989 2.55442 21.9834 2.66201 22.0447 2.78286C22.1059 2.9037 22.1428 3.03544 22.1532 3.17054C22.1635 3.30565 22.1471 3.44146 22.1049 3.57023C22.0628 3.699 21.9956 3.81819 21.9074 3.921L18.6528 7.71875H22.5756C24.4552 7.71875 25.9719 7.71875 27.164 7.87962C28.4015 8.04462 29.4438 8.40212 30.2715 9.2285C31.0993 10.0562 31.454 11.0985 31.6218 12.336C31.7813 13.5281 31.7812 15.0447 31.7812 16.9244V22.5756C31.7812 24.4552 31.7813 25.9719 31.6218 27.164C31.454 28.4015 31.0993 29.4438 30.2715 30.2715C29.4438 31.0993 28.4015 31.454 27.164 31.6218C25.9719 31.7813 24.4552 31.7812 22.5756 31.7812H11.4244C9.54475 31.7812 8.02812 31.7813 6.836 31.6218C5.5985 31.454 4.55625 31.0993 3.7285 30.2715C2.90075 29.4438 2.546 28.4015 2.37962 27.164C2.21875 25.9719 2.21875 24.4552 2.21875 22.5756V16.9244C2.21875 15.0447 2.21875 13.5281 2.37962 12.336C2.54462 11.0985 2.90213 10.0562 3.7285 9.2285C4.55625 8.40075 5.5985 8.046 6.836 7.87962C8.02812 7.71875 9.54475 7.71875 11.4244 7.71875H15.3472L12.0913 3.921C11.9979 3.81904 11.926 3.69935 11.8798 3.56905C11.8336 3.43874 11.8141 3.30048 11.8224 3.16248C11.8307 3.02448 11.8667 2.88956 11.9282 2.76575C11.9897 2.64194 12.0755 2.53175 12.1804 2.44175C12.2854 2.35175 12.4073 2.28377 12.5391 2.24185C12.6708 2.19992 12.8096 2.18492 12.9473 2.19772C13.085 2.21053 13.2186 2.25088 13.3404 2.31638C13.4621 2.38188 13.5695 2.47119 13.656 2.579L17 6.4785L20.3413 2.579C20.4294 2.47612 20.537 2.39162 20.6579 2.33034C20.7787 2.26906 20.9104 2.23219 21.0455 2.22185C21.1806 2.21151 21.3165 2.22789 21.4452 2.27006C21.574 2.31223 21.6932 2.37937 21.796 2.46762V2.46625ZM23.5312 9.78125V29.7188C24.9695 29.7133 26.042 29.6912 26.889 29.5771C27.8982 29.441 28.4317 29.1921 28.8126 28.8126C29.1935 28.4318 29.441 27.8983 29.5771 26.8876C29.716 25.8495 29.7188 24.4731 29.7188 22.5V17C29.7188 15.0269 29.716 13.6491 29.5771 12.611C29.441 11.6017 29.1921 11.0682 28.8126 10.6874C28.4317 10.3065 27.8983 10.059 26.8876 9.92287C26.042 9.80875 24.9695 9.78537 23.5312 9.78125ZM21.4688 29.7188V9.78125H11.5C9.52688 9.78125 8.14913 9.784 7.111 9.92287C6.10175 10.059 5.56825 10.3079 5.18737 10.6874C4.8065 11.0682 4.559 11.6017 4.42287 12.6124C4.284 13.6491 4.28125 15.0269 4.28125 17V22.5C4.28125 24.4731 4.284 25.8495 4.42287 26.889C4.559 27.8983 4.80787 28.4318 5.18737 28.8126C5.56825 29.1935 6.10175 29.441 7.11238 29.5771C8.14913 29.716 9.52688 29.7188 11.5 29.7188H21.4688Z" fill="#ED9F00"/>
<path d="M28 22.5C28 22.1353 27.8551 21.7856 27.5973 21.5277C27.3394 21.2699 26.9897 21.125 26.625 21.125C26.2603 21.125 25.9106 21.2699 25.6527 21.5277C25.3949 21.7856 25.25 22.1353 25.25 22.5C25.25 22.8647 25.3949 23.2144 25.6527 23.4723C25.9106 23.7301 26.2603 23.875 26.625 23.875C26.9897 23.875 27.3394 23.7301 27.5973 23.4723C27.8551 23.2144 28 22.8647 28 22.5ZM28 17C28 16.6353 27.8551 16.2856 27.5973 16.0277C27.3394 15.7699 26.9897 15.625 26.625 15.625C26.2603 15.625 25.9106 15.7699 25.6527 16.0277C25.3949 16.2856 25.25 16.6353 25.25 17C25.25 17.3647 25.3949 17.7144 25.6527 17.9723C25.9106 18.2301 26.2603 18.375 26.625 18.375C26.9897 18.375 27.3394 18.2301 27.5973 17.9723C27.8551 17.7144 28 17.3647 28 17Z" fill="#ED9F00"/>
</svg>
