<svg width="88" height="88" viewBox="0 0 88 88" fill="none" xmlns="http://www.w3.org/2000/svg">
<rect width="88" height="88" rx="20" fill="#FAF3E6"/>
<path fill-rule="evenodd" clip-rule="evenodd" d="M48.796 29.4662C48.8989 29.5544 48.9834 29.662 49.0447 29.7829C49.1059 29.9037 49.1428 30.0354 49.1532 30.1705C49.1635 30.3056 49.1471 30.4415 49.1049 30.5702C49.0628 30.699 48.9956 30.8182 48.9074 30.921L45.6528 34.7187H49.5756C51.4552 34.7187 52.9719 34.7188 54.164 34.8796C55.4015 35.0446 56.4438 35.4021 57.2715 36.2285C58.0993 37.0562 58.454 38.0985 58.6218 39.336C58.7813 40.5281 58.7812 42.0447 58.7812 43.9244V49.5756C58.7812 51.4552 58.7813 52.9719 58.6218 54.164C58.454 55.4015 58.0993 56.4438 57.2715 57.2715C56.4438 58.0993 55.4015 58.454 54.164 58.6218C52.9719 58.7813 51.4552 58.7812 49.5756 58.7812H38.4244C36.5448 58.7812 35.0281 58.7813 33.836 58.6218C32.5985 58.454 31.5563 58.0993 30.7285 57.2715C29.9008 56.4438 29.546 55.4015 29.3796 54.164C29.2187 52.9719 29.2188 51.4552 29.2188 49.5756V43.9244C29.2188 42.0447 29.2187 40.5281 29.3796 39.336C29.5446 38.0985 29.9021 37.0562 30.7285 36.2285C31.5563 35.4007 32.5985 35.046 33.836 34.8796C35.0281 34.7188 36.5448 34.7187 38.4244 34.7187H42.3472L39.0913 30.921C38.9979 30.819 38.926 30.6994 38.8798 30.569C38.8336 30.4387 38.8141 30.3005 38.8224 30.1625C38.8307 30.0245 38.8667 29.8896 38.9282 29.7657C38.9897 29.6419 39.0755 29.5318 39.1804 29.4418C39.2854 29.3518 39.4073 29.2838 39.5391 29.2418C39.6708 29.1999 39.8096 29.1849 39.9473 29.1977C40.085 29.2105 40.2186 29.2509 40.3404 29.3164C40.4621 29.3819 40.5695 29.4712 40.656 29.579L44 33.4785L47.3413 29.579C47.4294 29.4761 47.537 29.3916 47.6579 29.3303C47.7787 29.2691 47.9104 29.2322 48.0455 29.2218C48.1806 29.2115 48.3165 29.2279 48.4452 29.2701C48.574 29.3122 48.6932 29.3794 48.796 29.4676V29.4662ZM50.5312 36.7812V56.7188C51.9695 56.7133 53.042 56.6912 53.889 56.5771C54.8982 56.441 55.4317 56.1921 55.8126 55.8126C56.1935 55.4318 56.441 54.8983 56.5771 53.8876C56.716 52.8495 56.7188 51.4731 56.7188 49.5V44C56.7188 42.0269 56.716 40.6491 56.5771 39.611C56.441 38.6017 56.1921 38.0682 55.8126 37.6874C55.4317 37.3065 54.8983 37.059 53.8876 36.9229C53.042 36.8087 51.9695 36.7854 50.5312 36.7812ZM48.4688 56.7188V36.7812H38.5C36.5269 36.7812 35.1491 36.784 34.111 36.9229C33.1018 37.059 32.5682 37.3079 32.1874 37.6874C31.8065 38.0682 31.559 38.6017 31.4229 39.6124C31.284 40.6491 31.2812 42.0269 31.2812 44V49.5C31.2812 51.4731 31.284 52.8495 31.4229 53.889C31.559 54.8983 31.8079 55.4318 32.1874 55.8126C32.5682 56.1935 33.1017 56.441 34.1124 56.5771C35.1491 56.716 36.5269 56.7188 38.5 56.7188H48.4688Z" fill="#ED9F00"/>
<path d="M55 49.5C55 49.1353 54.8551 48.7856 54.5973 48.5277C54.3394 48.2699 53.9897 48.125 53.625 48.125C53.2603 48.125 52.9106 48.2699 52.6527 48.5277C52.3949 48.7856 52.25 49.1353 52.25 49.5C52.25 49.8647 52.3949 50.2144 52.6527 50.4723C52.9106 50.7301 53.2603 50.875 53.625 50.875C53.9897 50.875 54.3394 50.7301 54.5973 50.4723C54.8551 50.2144 55 49.8647 55 49.5ZM55 44C55 43.6353 54.8551 43.2856 54.5973 43.0277C54.3394 42.7699 53.9897 42.625 53.625 42.625C53.2603 42.625 52.9106 42.7699 52.6527 43.0277C52.3949 43.2856 52.25 43.6353 52.25 44C52.25 44.3647 52.3949 44.7144 52.6527 44.9723C52.9106 45.2301 53.2603 45.375 53.625 45.375C53.9897 45.375 54.3394 45.2301 54.5973 44.9723C54.8551 44.7144 55 44.3647 55 44Z" fill="#ED9F00"/>
</svg>
