<svg width="34" height="33" viewBox="0 0 34 33" fill="none" xmlns="http://www.w3.org/2000/svg">
<path fill-rule="evenodd" clip-rule="evenodd" d="M27.4717 4.30167H24.2C23.89 1.87833 21.815 0 19.31 0H15.0067C12.5017 0 10.4267 1.87667 10.1167 4.3L6.86167 4.30167C3.35333 4.30167 0.5 7.14833 0.5 10.6467V16.425C0.5 16.845 0.71 17.2367 1.06167 17.4683C4.49333 19.7333 8.555 21.2417 12.8067 21.8333C13.4383 21.9267 14.0183 21.5317 14.185 20.925C14.5567 19.5733 15.7483 18.665 17.15 18.665C18.5367 18.665 19.74 19.5933 20.0767 20.9183C20.2183 21.4783 20.7233 21.8617 21.2867 21.8617C21.345 21.8617 21.4017 21.8583 21.46 21.85C25.74 21.2583 29.82 19.7417 33.2567 17.4683C33.6067 17.235 33.8167 16.845 33.8167 16.425V10.6467C33.8167 7.14833 30.97 4.30167 27.4717 4.30167ZM31.3167 15.7417C28.5783 17.4433 25.4217 18.635 22.0983 19.22C21.185 17.375 19.285 16.165 17.15 16.165C15.0317 16.165 13.1233 17.3717 12.185 19.205C8.88167 18.6233 5.735 17.4383 3 15.7417V10.6467C3 8.52667 4.73167 6.80167 6.86333 6.80167L11.3267 6.79833C11.66 6.79833 11.9767 6.66667 12.2117 6.43167C12.445 6.195 12.5767 5.87833 12.5767 5.54667L12.575 4.93C12.575 3.59 13.6667 2.5 15.0067 2.5H19.31C20.4317 2.5 21.38 3.265 21.6583 4.30167H17.1583C16.4683 4.30167 15.9083 4.86167 15.9083 5.55167C15.9083 6.24167 16.4683 6.80167 17.1583 6.80167H27.4717C29.5917 6.80167 31.3167 8.52667 31.3167 10.6467V15.7417ZM18.408 22.3057V24.4623C18.408 25.1523 17.848 25.7123 17.158 25.7123C16.468 25.7123 15.908 25.1523 15.908 24.4623V22.3057C15.908 21.6157 16.468 21.0557 17.158 21.0557C17.848 21.0557 18.408 21.6157 18.408 22.3057ZM32.525 21.2088C31.87 21.2088 31.3483 21.7188 31.2983 22.3588C31.2983 22.3588 31.0417 25.2738 30.9883 26.1938C30.9267 27.2122 30.5133 28.3205 29.935 29.0155C29.12 29.9988 28.2167 30.3838 26.7133 30.3872C25.7267 30.3888 20.405 30.3905 16.385 30.3905C15.6933 30.3905 15.1333 30.9505 15.1333 31.6405C15.1333 32.3305 15.6933 32.8905 16.3833 32.8905C20.2633 32.8905 25.7867 32.8888 26.7183 32.8872C28.9417 32.8822 30.5767 32.1588 31.86 30.6122C32.7817 29.5022 33.3883 27.9072 33.4833 26.3438C33.5211 25.701 33.6503 24.0335 33.7222 23.1044L33.7223 23.1038C33.7518 22.7228 33.7717 22.4662 33.7717 22.4555C33.7717 21.7672 33.2133 21.2088 32.525 21.2088ZM7.60367 30.3868C7.93033 30.3885 8.607 30.3885 9.49533 30.3885C10.1853 30.3885 10.7503 30.9485 10.7503 31.6385C10.7503 32.3285 10.1837 32.8885 9.492 32.8885C8.592 32.8885 7.93533 32.8885 7.60033 32.8868C5.37533 32.8818 3.74033 32.1585 2.457 30.6102C1.537 29.5018 0.928667 27.9068 0.835333 26.3435C0.796896 25.7099 0.670543 24.0807 0.59793 23.1444C0.566643 22.741 0.545333 22.4662 0.545333 22.4552C0.545333 21.7668 1.10367 21.2085 1.792 21.2085C2.447 21.2085 2.967 21.7185 3.01867 22.3602C3.01867 22.3602 3.27533 25.2752 3.33033 26.1935C3.392 27.2118 3.80367 28.3202 4.382 29.0135C5.19867 30.0002 6.102 30.3835 7.60367 30.3868Z" fill="#130F26"/>
</svg>
